<svg width="61" height="60" viewBox="0 0 61 60" fill="none" xmlns="http://www.w3.org/2000/svg">
<g id="SVG" clip-path="url(#clip0_86_2144)">
<g id="Rectangle 21" filter="url(#filter0_d_86_2144)">
<rect x="5" y="4" width="50.4596" height="51.5332" rx="13" fill="#CCE5FD"/>
</g>
<g id="Clip path group">
<mask id="mask0_86_2144" style="mask-type:luminance" maskUnits="userSpaceOnUse" x="5" y="10" width="51" height="40">
<g id="clip0_1_417">
<path id="Vector" d="M55.25 10H5.25V50H55.25V10Z" fill="white"/>
</g>
</mask>
<g mask="url(#mask0_86_2144)">
<g id="Group">
<path id="Vector_2" d="M30 20.203C26.91 20.208 24.405 22.713 24.4 25.803C24.4 26.243 24.76 26.603 25.2 26.603C25.64 26.603 26 26.243 26 25.803C26 23.593 27.79 21.803 30 21.803C30.44 21.803 30.8 21.443 30.8 21.003C30.8 20.563 30.44 20.203 30 20.203ZM30 17.003C24.855 17.003 21.195 21.183 21.2 25.813C21.2 27.938 21.975 29.993 23.38 31.593C24.665 33.053 25.895 35.438 26 36.203L26.005 39.963C26.005 40.118 26.05 40.273 26.14 40.403L27.365 42.243C27.515 42.468 27.765 42.598 28.03 42.598H31.975C32.245 42.598 32.495 42.463 32.64 42.243L33.865 40.398C33.95 40.268 34 40.113 34 39.958V36.203C34.11 35.418 35.35 33.043 36.62 31.593C39.82 27.938 39.45 22.383 35.795 19.183C34.195 17.778 32.135 17.003 30 17.003ZM32.395 39.718L31.54 41.003H28.455L27.6 39.718V39.403H32.4L32.395 39.718ZM32.4 37.803H27.6L27.595 36.203H32.4V37.803ZM35.42 30.538C34.72 31.338 33.605 32.943 32.89 34.603H27.11C26.395 32.943 25.28 31.338 24.58 30.538C23.43 29.228 22.8 27.543 22.8 25.803C22.795 21.953 25.82 18.603 30 18.603C33.97 18.603 37.2 21.833 37.2 25.803C37.2 27.543 36.565 29.228 35.42 30.538ZM18.8 25.803C18.8 25.363 18.44 25.003 18 25.003H14.8C14.36 25.003 14 25.363 14 25.803C14 26.243 14.36 26.603 14.8 26.603H18C18.44 26.603 18.8 26.243 18.8 25.803ZM40.4 20.203C40.525 20.203 40.645 20.173 40.76 20.118L43.96 18.518C44.355 18.318 44.515 17.838 44.32 17.443C44.125 17.048 43.64 16.888 43.245 17.083L40.045 18.683C39.65 18.883 39.49 19.363 39.685 19.758C39.82 20.033 40.095 20.203 40.4 20.203ZM45.2 25.003H42C41.56 25.003 41.2 25.363 41.2 25.803C41.2 26.243 41.56 26.603 42 26.603H45.2C45.64 26.603 46 26.243 46 25.803C46 25.363 45.64 25.003 45.2 25.003ZM19.96 18.688L16.76 17.088C16.365 16.888 15.885 17.048 15.685 17.443C15.485 17.838 15.645 18.318 16.04 18.518L19.24 20.118C19.35 20.173 19.475 20.203 19.6 20.203C20.04 20.203 20.4 19.843 20.4 19.403C20.4 19.098 20.23 18.823 19.96 18.688ZM43.96 33.088L40.76 31.488C40.365 31.288 39.885 31.448 39.685 31.848C39.485 32.243 39.645 32.723 40.045 32.923L43.245 34.523C43.64 34.723 44.12 34.563 44.32 34.163C44.515 33.768 44.355 33.283 43.96 33.088ZM19.6 31.403C19.475 31.403 19.355 31.433 19.24 31.488L16.04 33.088C15.645 33.288 15.485 33.768 15.68 34.163C15.88 34.558 16.36 34.718 16.755 34.523L19.955 32.923C20.35 32.728 20.51 32.248 20.315 31.848C20.18 31.573 19.905 31.403 19.6 31.403Z" fill="#2A71BD" stroke="#2A71BD" stroke-width="0.64"/>
</g>
</g>
</g>
</g>
<defs>
<filter id="filter0_d_86_2144" x="-8.48585" y="-14.714" width="147.141" height="148.213" filterUnits="userSpaceOnUse" color-interpolation-filters="sRGB">
<feFlood flood-opacity="0" result="BackgroundImageFix"/>
<feColorMatrix in="SourceAlpha" type="matrix" values="0 0 0 0 0 0 0 0 0 0 0 0 0 0 0 0 0 0 127 0" result="hardAlpha"/>
<feOffset dx="34.8541" dy="29.626"/>
<feGaussianBlur stdDeviation="24.17"/>
<feComposite in2="hardAlpha" operator="out"/>
<feColorMatrix type="matrix" values="0 0 0 0 0.2 0 0 0 0 0.4 0 0 0 0 1 0 0 0 0.05 0"/>
<feBlend mode="normal" in2="BackgroundImageFix" result="effect1_dropShadow_86_2144"/>
<feBlend mode="normal" in="SourceGraphic" in2="effect1_dropShadow_86_2144" result="shape"/>
</filter>
<clipPath id="clip0_86_2144">
<rect width="60" height="60" fill="white" transform="translate(0.25)"/>
</clipPath>
</defs>
</svg>
