<svg width="61" height="60" viewBox="0 0 61 60" fill="none" xmlns="http://www.w3.org/2000/svg">
<g id="SVG" clip-path="url(#clip0_86_2129)">
<g id="Rectangle 21" filter="url(#filter0_d_86_2129)">
<rect x="6" y="4" width="50.4596" height="51.5332" rx="13" fill="#CCE5FD"/>
</g>
<g id="Clip path group">
<mask id="mask0_86_2129" style="mask-type:luminance" maskUnits="userSpaceOnUse" x="5" y="10" width="51" height="40">
<g id="clip0_1_414">
<path id="Vector" d="M55.75 10H5.75V49.8773H55.75V10Z" fill="white"/>
</g>
</mask>
<g mask="url(#mask0_86_2129)">
<g id="Group">
<path id="Vector_2" d="M47.3884 27.5995L46.9828 26.897C46.8713 26.705 46.6229 26.6393 46.4303 26.7505L40.9557 29.9342V29.1307C40.9557 27.7915 39.8659 26.705 38.5226 26.705H31.2232V29.8483C31.2232 30.6568 30.6707 31.4047 29.8749 31.531C28.861 31.6978 27.979 30.9145 27.979 29.9342V25.1687C27.979 24.4714 28.3389 23.8245 28.932 23.4556L30.625 22.3994C31.203 22.0406 31.872 21.8486 32.5564 21.8486H37.7876L43.7944 18.4628C43.987 18.3515 44.058 18.104 43.9465 17.9119L43.541 17.2044C43.4294 17.0124 43.1811 16.9417 42.9884 17.0528L37.3618 20.2365H32.5614C31.573 20.2365 30.6048 20.5144 29.7684 21.035L28.0702 22.0912C27.1832 22.647 26.6155 23.5365 26.438 24.5421L23.2699 26.4119C22.175 27.0689 21.4907 28.2665 21.4907 29.54V31.4906L15.2051 35.0483C15.0124 35.1595 14.9415 35.407 15.053 35.5991L15.4585 36.3015C15.57 36.4936 15.8184 36.5643 16.011 36.4532L23.1127 32.4306V29.54C23.1127 28.8325 23.493 28.1655 24.0961 27.8016L26.3569 26.4674V29.7977C26.3569 31.4855 27.5887 32.9966 29.2767 33.1583C31.208 33.3452 32.8453 31.8292 32.8453 29.9392V28.3221H38.5226C38.9687 28.3221 39.3336 28.6859 39.3336 29.1307V30.7478C39.3336 31.1925 38.9687 31.5563 38.5226 31.5563H37.306V33.3756C37.306 34.3762 36.495 35.1847 35.4913 35.1847H34.6752V35.9933C34.6752 37.1152 33.7628 38.0248 32.6375 38.0248H27.0919L21.2322 41.4258C21.0395 41.5369 20.9736 41.7846 21.0851 41.9766L21.4907 42.674C21.6022 42.866 21.8506 42.9317 22.0432 42.8205L27.5279 39.6419H32.6375C34.4015 39.6419 35.8816 38.3886 36.2264 36.7261C37.7673 36.3874 38.9281 35.0129 38.9281 33.3756V33.1381C39.6175 33.0219 40.1751 32.6024 40.5401 32.0415L47.2413 28.1503C47.434 28.0391 47.4999 27.7915 47.3884 27.5995Z" fill="#2A71BD" stroke="#2A71BD" stroke-width="0.648836"/>
</g>
</g>
</g>
</g>
<defs>
<filter id="filter0_d_86_2129" x="-7.48585" y="-14.714" width="147.141" height="148.213" filterUnits="userSpaceOnUse" color-interpolation-filters="sRGB">
<feFlood flood-opacity="0" result="BackgroundImageFix"/>
<feColorMatrix in="SourceAlpha" type="matrix" values="0 0 0 0 0 0 0 0 0 0 0 0 0 0 0 0 0 0 127 0" result="hardAlpha"/>
<feOffset dx="34.8541" dy="29.626"/>
<feGaussianBlur stdDeviation="24.17"/>
<feComposite in2="hardAlpha" operator="out"/>
<feColorMatrix type="matrix" values="0 0 0 0 0.2 0 0 0 0 0.4 0 0 0 0 1 0 0 0 0.05 0"/>
<feBlend mode="normal" in2="BackgroundImageFix" result="effect1_dropShadow_86_2129"/>
<feBlend mode="normal" in="SourceGraphic" in2="effect1_dropShadow_86_2129" result="shape"/>
</filter>
<clipPath id="clip0_86_2129">
<rect width="60" height="60" fill="white" transform="translate(0.75)"/>
</clipPath>
</defs>
</svg>
