<svg width="61" height="60" viewBox="0 0 61 60" fill="none" xmlns="http://www.w3.org/2000/svg">
<g id="SVG" clip-path="url(#clip0_86_2159)">
<g id="Rectangle 21" filter="url(#filter0_d_86_2159)">
<rect x="6" y="4" width="50.4596" height="51.5332" rx="13" fill="#CCE5FD"/>
</g>
<g id="Clip path group">
<mask id="mask0_86_2159" style="mask-type:luminance" maskUnits="userSpaceOnUse" x="15" y="17" width="33" height="26">
<g id="clip0_1_420">
<path id="Vector" d="M47.25 17H15V42.8H47.25V17Z" fill="white"/>
</g>
</mask>
<g mask="url(#mask0_86_2159)">
<g id="Group">
<path id="Vector_2" d="M47.1284 26.9319L43.4247 17.9976C43.0821 17.1762 42.1397 16.7832 41.3184 17.1259L35.8459 19.3934C35.08 19.7109 34.7121 20.5524 34.9389 21.3335L18.7837 29.1641C18.3402 29.3758 18.1235 29.8495 18.2848 30.2425L18.7232 31.3057L15.4982 32.6411C15.085 32.8125 14.8935 33.281 15.0598 33.6942L16.0726 36.1332C16.244 36.5464 16.7126 36.7379 17.1258 36.5716L20.3559 35.2312L20.7943 36.2995C21.0009 36.7933 21.5703 36.8235 21.9079 36.7076L28.6552 34.3695C28.7207 34.4451 28.8013 34.5106 28.8719 34.5811L26.307 42.2707C26.2365 42.4824 26.3524 42.7091 26.564 42.7797C26.6043 42.7948 26.6496 42.7998 26.69 42.7998H27.5365C27.7078 42.7998 27.864 42.689 27.9195 42.5227L30.2878 35.4176C30.9127 35.589 31.3813 35.5738 31.9558 35.4176L34.3241 42.5227C34.3796 42.689 34.5307 42.7998 34.7071 42.7998H35.5587C35.7805 42.7998 35.9618 42.6185 35.9618 42.3967C35.9618 42.3514 35.9568 42.311 35.9417 42.2707L33.3869 34.6114C33.9815 34.0269 34.3191 33.2307 34.3393 32.3992L38.8996 30.817C39.2372 31.2453 39.9628 31.6484 40.7792 31.3108L46.2516 29.0432C47.078 28.7006 47.466 27.7582 47.1284 26.9319ZM17.2518 34.7726L16.8587 33.8203L19.343 32.7923L19.736 33.7447L17.2518 34.7726ZM31.1243 33.9311C30.2324 33.9311 29.5118 33.2105 29.5118 32.3186C29.5118 31.4267 30.2324 30.7061 31.1243 30.7061C32.0162 30.7061 32.7368 31.4267 32.7368 32.3186C32.7368 33.2105 32.0162 33.9311 31.1243 33.9311ZM33.9613 30.817C33.15 29.2397 31.215 28.62 29.6378 29.4312C28.368 30.0863 27.6827 31.4972 27.9547 32.8981L21.9885 34.9691L20.0686 30.3282L35.5285 22.83L38.2244 29.3355L33.9613 30.817ZM40.1644 29.8192L36.4607 20.88L41.9331 18.6123L45.6368 27.5516L40.1644 29.8192Z" fill="#2A71BD" stroke="#2A71BD" stroke-width="0.645"/>
</g>
</g>
</g>
</g>
<defs>
<filter id="filter0_d_86_2159" x="-7.48585" y="-14.714" width="147.141" height="148.213" filterUnits="userSpaceOnUse" color-interpolation-filters="sRGB">
<feFlood flood-opacity="0" result="BackgroundImageFix"/>
<feColorMatrix in="SourceAlpha" type="matrix" values="0 0 0 0 0 0 0 0 0 0 0 0 0 0 0 0 0 0 127 0" result="hardAlpha"/>
<feOffset dx="34.8541" dy="29.626"/>
<feGaussianBlur stdDeviation="24.17"/>
<feComposite in2="hardAlpha" operator="out"/>
<feColorMatrix type="matrix" values="0 0 0 0 0.2 0 0 0 0 0.4 0 0 0 0 1 0 0 0 0.05 0"/>
<feBlend mode="normal" in2="BackgroundImageFix" result="effect1_dropShadow_86_2159"/>
<feBlend mode="normal" in="SourceGraphic" in2="effect1_dropShadow_86_2159" result="shape"/>
</filter>
<clipPath id="clip0_86_2159">
<rect width="60" height="60" fill="white" transform="translate(0.75)"/>
</clipPath>
</defs>
</svg>
