<?xml version="1.0" encoding="UTF-8"?>
<svg version="1.1" xmlns="http://www.w3.org/2000/svg" width="65" height="65">
<path d="M0 0 C21.45 0 42.9 0 65 0 C65 21.45 65 42.9 65 65 C43.55 65 22.1 65 0 65 C0 43.55 0 22.1 0 0 Z " fill="#F5BF30" transform="translate(0,0)"/>
<path d="M0 0 C7.31082871 5.27413215 9.49601124 14.24460745 11.0625 22.625 C11.38147272 24.30569161 11.7055194 25.98542989 12.03515625 27.6640625 C12.1731665 28.40092285 12.31117676 29.1377832 12.45336914 29.89697266 C13.04283643 32.16480258 13.7971106 33.98939425 15 36 C17.29439785 37.3412641 17.29439785 37.3412641 19.9375 38.375 C23.46757891 40.03561432 24.8180052 40.74306616 27.125 44 C28 47 28 47 28 52 C7.87 52 -12.26 52 -33 52 C-31.76742486 47.06969945 -29.59160978 43.59160978 -26 40 C-24.01178687 39.60235737 -22.01055661 39.26224651 -20 39 C-20.33386719 38.27425781 -20.66773438 37.54851563 -21.01171875 36.80078125 C-23.42665653 29.95686666 -20.87271909 21.64872884 -19.6875 14.625 C-19.58219971 13.94719482 -19.47689941 13.26938965 -19.3684082 12.57104492 C-18.54932659 8.04843619 -17.24726205 5.25317692 -14 2 C-9.71930959 -0.81081478 -4.93706274 -1.0217302 0 0 Z " fill="#C6712F" transform="translate(37,13)"/>
<path d="M0 0 C4.93713729 3.56171858 7.94210454 9.53779668 9.6875 15.25 C11.52715939 31.43900267 11.52715939 31.43900267 7.625 36.9375 C6 38 6 38 3 38 C2.852134 33.7858189 2.7900365 30.66694288 4.0625 26.625 C5.30127086 21.83508602 5.46697294 17.759859 4 13 C2.05337996 10.25120137 0.02579641 8.48202273 -3 7 C-6.29561997 6.56133647 -6.29561997 6.56133647 -9 8 C-10.45291273 10.46255685 -10.45291273 10.46255685 -11 13 C-10.01 13.33 -9.02 13.66 -8 14 C-7.67 14.66 -7.34 15.32 -7 16 C-8.98 16.33 -10.96 16.66 -13 17 C-12.05782996 21.13105325 -11.13859383 24.69615968 -9.375 28.5625 C-7.8802868 32.29928301 -7.75598546 35.01442917 -8 39 C-9.485 39.495 -9.485 39.495 -11 40 C-10.34 41.65 -9.68 43.3 -9 45 C-10.98 45 -12.96 45 -15 45 C-15 44.34 -15 43.68 -15 43 C-15.8971875 42.7215625 -15.8971875 42.7215625 -16.8125 42.4375 C-20.06621668 40.29934332 -21.19201006 37.68603673 -22 34 C-22.10603612 30.25754874 -21.58201228 26.69200155 -21 23 C-20.90412598 22.34660645 -20.80825195 21.69321289 -20.70947266 21.02001953 C-20.39066145 18.88423159 -20.04396738 16.75480751 -19.6875 14.625 C-19.52967041 13.60805054 -19.52967041 13.60805054 -19.36865234 12.57055664 C-18.54886192 8.04825172 -17.24720704 5.25312181 -14 2 C-9.71930959 -0.81081478 -4.93706274 -1.0217302 0 0 Z " fill="#413828" transform="translate(37,13)"/>
<path d="M0 0 C4.11552929 1.49655611 7.08332289 3.49196487 9.75 7 C12.39677182 14.6462297 10.13206274 22.93323539 6.796875 30.02734375 C5.8125 31.6875 5.8125 31.6875 3.75 34 C2.43 34 1.11 34 -0.25 34 C-2.9054407 31.2943382 -3.85799825 28.55369807 -4.8125 24.9375 C-5.67267206 21.70578012 -6.35922736 19.83615896 -8.25 17 C-8.375 13.8125 -8.375 13.8125 -8.25 11 C-7.26 10.67 -6.27 10.34 -5.25 10 C-5.58 9.01 -5.91 8.02 -6.25 7 C-6 4.4375 -6 4.4375 -5.25 2 C-2.25 0 -2.25 0 0 0 Z " fill="#BF784C" transform="translate(32.25,19)"/>
<path d="M0 0 C1.4540625 0.0309375 1.4540625 0.0309375 2.9375 0.0625 C2.90269531 0.72636719 2.86789063 1.39023437 2.83203125 2.07421875 C2.66952706 7.37495075 2.69643001 10.65464481 5.9375 15.0625 C7.25907924 18.66680701 7.01063094 22.25969092 6.9375 26.0625 C5.9475 26.3925 4.9575 26.7225 3.9375 27.0625 C4.5975 28.7125 5.2575 30.3625 5.9375 32.0625 C3.9575 32.0625 1.9775 32.0625 -0.0625 32.0625 C-0.0625 31.4025 -0.0625 30.7425 -0.0625 30.0625 C-0.660625 29.876875 -1.25875 29.69125 -1.875 29.5 C-5.12436766 27.36470126 -6.27094276 24.74983749 -7.0625 21.0625 C-7.14318215 14.37596712 -5.97015974 7.47104445 -4.0625 1.0625 C-3.0625 0.0625 -3.0625 0.0625 0 0 Z " fill="#110C08" transform="translate(22.0625,25.9375)"/>
<path d="M0 0 C0.33 0 0.66 0 1 0 C1.19916016 0.92232422 1.19916016 0.92232422 1.40234375 1.86328125 C1.57894531 2.67152344 1.75554688 3.47976562 1.9375 4.3125 C2.11152344 5.11300781 2.28554688 5.91351563 2.46484375 6.73828125 C2.99886159 9.145401 2.99886159 9.145401 4 12 C3.01 12.495 3.01 12.495 2 13 C2 15.97 2 18.94 2 22 C1.01 21.67 0.02 21.34 -1 21 C-1 19.02 -1 17.04 -1 15 C-3.10211697 15.96663749 -3.10211697 15.96663749 -5 18 C-5.66549451 20.69924572 -5.81680763 23.20631637 -6 26 C-6.99 26 -7.98 26 -9 26 C-9.33 24.68 -9.66 23.36 -10 22 C-10 23.65 -10 25.3 -10 27 C-10.99 27 -11.98 27 -13 27 C-13.33 25.35 -13.66 23.7 -14 22 C-14 23.32 -14 24.64 -14 26 C-16.31 26 -18.62 26 -21 26 C-21 24.68 -21 23.36 -21 22 C-20.34 22 -19.68 22 -19 22 C-19.66 20.35 -20.32 18.7 -21 17 C-20.34 16.67 -19.68 16.34 -19 16 C-18.34 15.01 -17.68 14.02 -17 13 C-16.34 14.32 -15.68 15.64 -15 17 C-13.08533633 16.87822312 -13.08533633 16.87822312 -11 16 C-9.22851628 13.52066803 -9.22851628 13.52066803 -8 11 C-7.67 12.32 -7.34 13.64 -7 15 C-4.45611302 13.9255659 -4.45611302 13.9255659 -2 12 C-0.96820891 9.06568989 -0.96820891 9.06568989 -0.6875 5.8125 C-0.54699219 4.72582031 -0.40648438 3.63914063 -0.26171875 2.51953125 C-0.17535156 1.68808594 -0.08898437 0.85664062 0 0 Z " fill="#AA5515" transform="translate(47,36)"/>
<path d="M0 0 C9.98077389 0.61846676 9.98077389 0.61846676 13 4 C14.97003525 7.74306697 15 9.56859264 15 14 C8.73 14 2.46 14 -4 14 C-4 12.02 -4 10.04 -4 8 C-3.01 8 -2.02 8 -1 8 C-0.67 5.36 -0.34 2.72 0 0 Z " fill="#B15C16" transform="translate(50,51)"/>
<path d="M0 0 C2.74148672 0.37047118 4.58593199 0.68587944 6.8125 2.375 C8 4 8 4 8 7 C10.47266765 6.65555119 10.47266765 6.65555119 13 6 C13.33 5.34 13.66 4.68 14 4 C14 6.31 14 8.62 14 11 C13.01 11.33 12.02 11.66 11 12 C11.66 13.65 12.32 15.3 13 17 C11.02 17 9.04 17 7 17 C7 16.34 7 15.68 7 15 C6.401875 14.814375 5.80375 14.62875 5.1875 14.4375 C1.87552714 12.26106069 1.23147372 9.69442115 0 6 C-0.1875 2.5625 -0.1875 2.5625 0 0 Z " fill="#321E11" transform="translate(15,41)"/>
<path d="M0 0 C1.98 0.66 3.96 1.32 6 2 C6 2.33 6 2.66 6 3 C4.35 3 2.7 3 1 3 C1 7.29 1 11.58 1 16 C0.67 16 0.34 16 0 16 C0 14.35 0 12.7 0 11 C-0.99 11 -1.98 11 -3 11 C-3 12.98 -3 14.96 -3 17 C-4.65 17 -6.3 17 -8 17 C-8 16.34 -8 15.68 -8 15 C-10.64 15.33 -13.28 15.66 -16 16 C-14.68 15.67 -13.36 15.34 -12 15 C-12 13.35 -12 11.7 -12 10 C-11.34 10.33 -10.68 10.66 -10 11 C-10.33 11.99 -10.66 12.98 -11 14 C-10.01 14 -9.02 14 -8 14 C-8 11.03 -8 8.06 -8 5 C-6.35 4.34 -4.7 3.68 -3 3 C-2.87625 3.969375 -2.7525 4.93875 -2.625 5.9375 C-2.41875 6.948125 -2.2125 7.95875 -2 9 C-1.34 9.33 -0.68 9.66 0 10 C-0.08378906 9.36191406 -0.16757812 8.72382812 -0.25390625 8.06640625 C-0.35574219 7.24011719 -0.45757812 6.41382813 -0.5625 5.5625 C-0.66691406 4.73878906 -0.77132812 3.91507813 -0.87890625 3.06640625 C-0.91886719 2.38449219 -0.95882812 1.70257813 -1 1 C-0.67 0.67 -0.34 0.34 0 0 Z " fill="#CF7C38" transform="translate(49,48)"/>
<path d="M0 0 C0.763125 0.20625 1.52625 0.4125 2.3125 0.625 C2.6425 1.945 2.9725 3.265 3.3125 4.625 C2.3225 5.12 2.3225 5.12 1.3125 5.625 C0.9825 6.615 0.6525 7.605 0.3125 8.625 C2.2925 8.625 4.2725 8.625 6.3125 8.625 C6.6425 9.615 6.9725 10.605 7.3125 11.625 C5.3325 11.625 3.3525 11.625 1.3125 11.625 C1.3125 12.285 1.3125 12.945 1.3125 13.625 C-1.3275 13.955 -3.9675 14.285 -6.6875 14.625 C-6.6875 13.635 -6.6875 12.645 -6.6875 11.625 C-5.0375 11.295 -3.3875 10.965 -1.6875 10.625 C-2.0175 9.635 -2.3475 8.645 -2.6875 7.625 C-4.70258358 6.89176204 -4.70258358 6.89176204 -6.6875 6.625 C-6.375 4.25 -6.375 4.25 -5.6875 1.625 C-2.6875 -0.375 -2.6875 -0.375 0 0 Z " fill="#DC9E7E" transform="translate(32.6875,19.375)"/>
<path d="M0 0 C1.45922693 0.11409593 2.91740598 0.24165544 4.375 0.375 C5.59316406 0.47941406 5.59316406 0.47941406 6.8359375 0.5859375 C9 1 9 1 11 3 C10.34 3 9.68 3 9 3 C9 3.99 9 4.98 9 6 C9.99 6 10.98 6 12 6 C11.67 6.66 11.34 7.32 11 8 C10.01 7.67 9.02 7.34 8 7 C8 8.65 8 10.3 8 12 C6.35 12 4.7 12 3 12 C3 10.68 3 9.36 3 8 C2.01 8 1.02 8 0 8 C0 5.36 0 2.72 0 0 Z " fill="#C77530" transform="translate(50,51)"/>
<path d="M0 0 C2.68442615 2.79431494 3.94025318 4.3049173 4.27734375 8.2265625 C4.10912109 9.90878906 4.10912109 9.90878906 3.9375 11.625 C3.84339844 12.75164063 3.74929687 13.87828125 3.65234375 15.0390625 C2.97743733 18.10241018 2.57393019 19.25935656 0 21 C-0.99 21 -1.98 21 -3 21 C-3.43230491 13.65081658 -1.81774185 7.09784913 0 0 Z " fill="#26180F" transform="translate(43,30)"/>
<path d="M0 0 C1.98 0 3.96 0 6 0 C5.21990585 9.20511096 5.21990585 9.20511096 2 13 C-0.6875 13.8125 -0.6875 13.8125 -3 14 C-2.58846263 9.02906176 -2.20399168 4.55491614 0 0 Z " fill="#21150D" transform="translate(19,26)"/>
<path d="M0 0 C0.33 0 0.66 0 1 0 C1.13277344 0.61488281 1.26554687 1.22976562 1.40234375 1.86328125 C1.57894531 2.67152344 1.75554688 3.47976562 1.9375 4.3125 C2.11152344 5.11300781 2.28554688 5.91351563 2.46484375 6.73828125 C2.99886159 9.145401 2.99886159 9.145401 4 12 C3.01 12.495 3.01 12.495 2 13 C2 15.97 2 18.94 2 22 C1.01 21.67 0.02 21.34 -1 21 C-1 19.02 -1 17.04 -1 15 C-1.78375 15.350625 -2.5675 15.70125 -3.375 16.0625 C-4.674375 16.5265625 -4.674375 16.5265625 -6 17 C-6.66 16.67 -7.32 16.34 -8 16 C-8 14.35 -8 12.7 -8 11 C-7.67 12.32 -7.34 13.64 -7 15 C-4.45611302 13.9255659 -4.45611302 13.9255659 -2 12 C-0.96820891 9.06568989 -0.96820891 9.06568989 -0.6875 5.8125 C-0.54699219 4.72582031 -0.40648437 3.63914063 -0.26171875 2.51953125 C-0.17535156 1.68808594 -0.08898438 0.85664062 0 0 Z " fill="#533619" transform="translate(47,36)"/>
<path d="M0 0 C1.37478516 0.01740234 1.37478516 0.01740234 2.77734375 0.03515625 C3.69644531 0.04417969 4.61554687 0.05320312 5.5625 0.0625 C6.27277344 0.07410156 6.98304687 0.08570312 7.71484375 0.09765625 C7.23402344 0.54753906 6.75320312 0.99742188 6.2578125 1.4609375 C4.50230358 3.32311026 4.14359271 4.61091226 3.71484375 7.09765625 C4.70484375 7.42765625 5.69484375 7.75765625 6.71484375 8.09765625 C7.04484375 8.75765625 7.37484375 9.41765625 7.71484375 10.09765625 C6.06484375 10.42765625 4.41484375 10.75765625 2.71484375 11.09765625 C2.71484375 9.77765625 2.71484375 8.45765625 2.71484375 7.09765625 C1.72484375 7.09765625 0.73484375 7.09765625 -0.28515625 7.09765625 C-0.61515625 7.75765625 -0.94515625 8.41765625 -1.28515625 9.09765625 C-1.28515625 8.43765625 -1.28515625 7.77765625 -1.28515625 7.09765625 C-2.27515625 7.42765625 -3.26515625 7.75765625 -4.28515625 8.09765625 C-3.27234375 0.13984375 -3.27234375 0.13984375 0 0 Z " fill="#523725" transform="translate(22.28515625,18.90234375)"/>
<path d="M0 0 C3.3 0 6.6 0 10 0 C9.5020163 3.73487777 9.12508244 5.81237635 7 9 C3 9 3 9 1.25 7.3125 C0 5 0 5 0 0 Z " fill="#D49568" transform="translate(29,44)"/>
<path d="M0 0 C-0.875 4.875 -0.875 4.875 -2 6 C-5.25 6.375 -5.25 6.375 -9 6 C-11.9375 3.5 -11.9375 3.5 -14 1 C-13.2575 0.855625 -12.515 0.71125 -11.75 0.5625 C-9.10438169 0.06955551 -9.10438169 0.06955551 -7 -0.625 C-4.45499393 -1.10218864 -2.49041787 -0.62260447 0 0 Z " fill="#D79877" transform="translate(40,37)"/>
<path d="M0 0 C0 0.99 0 1.98 0 3 C-3.13498292 4.85776765 -5.37471432 5.20140476 -9 5 C-9.33 5.66 -9.66 6.32 -10 7 C-10 6.34 -10 5.68 -10 5 C-10.99 5 -11.98 5 -13 5 C-12.06788763 2.66971908 -11.30996602 1.24108468 -9.3125 -0.3125 C-6.0239998 -1.29016222 -3.32480873 -0.63938629 0 0 Z " fill="#281E15" transform="translate(34,14)"/>
<path d="M0 0 C1.98 0.66 3.96 1.32 6 2 C6 2.33 6 2.66 6 3 C4.35 3 2.7 3 1 3 C1 7.29 1 11.58 1 16 C0.67 16 0.34 16 0 16 C0 14.35 0 12.7 0 11 C-0.99 11 -1.98 11 -3 11 C-3.33 11.99 -3.66 12.98 -4 14 C-4.33 11.69 -4.66 9.38 -5 7 C-5.99 7.495 -5.99 7.495 -7 8 C-7.33 7.01 -7.66 6.02 -8 5 C-6.35 4.34 -4.7 3.68 -3 3 C-2.87625 3.969375 -2.7525 4.93875 -2.625 5.9375 C-2.41875 6.948125 -2.2125 7.95875 -2 9 C-1.34 9.33 -0.68 9.66 0 10 C-0.08378906 9.36191406 -0.16757812 8.72382812 -0.25390625 8.06640625 C-0.40666016 6.82697266 -0.40666016 6.82697266 -0.5625 5.5625 C-0.66691406 4.73878906 -0.77132812 3.91507813 -0.87890625 3.06640625 C-0.91886719 2.38449219 -0.95882812 1.70257813 -1 1 C-0.67 0.67 -0.34 0.34 0 0 Z " fill="#CD7F3D" transform="translate(49,48)"/>
<path d="M0 0 C0.66 0.33 1.32 0.66 2 1 C2 1.99 2 2.98 2 4 C0.35 4.33 -1.3 4.66 -3 5 C-3 5.99 -3 6.98 -3 8 C-2.1646875 7.6596875 -2.1646875 7.6596875 -1.3125 7.3125 C1.92123084 6.87550935 3.39073978 8.18801373 6 10 C2.5980513 12.09350689 -0.05272412 12.17942163 -4 12 C-5.35439668 9.29120665 -5.06501451 6.99066732 -5 4 C-4.01 3.67 -3.02 3.34 -2 3 C-2.33 2.34 -2.66 1.68 -3 1 C-2.01 0.67 -1.02 0.34 0 0 Z " fill="#AB6844" transform="translate(29,26)"/>
<path d="M0 0 C2.31 0 4.62 0 7 0 C7 1.32 7 2.64 7 4 C8.65 4 10.3 4 12 4 C12 4.66 12 5.32 12 6 C8.04 6 4.08 6 0 6 C0 4.02 0 2.04 0 0 Z " fill="#BC5D11" transform="translate(46,59)"/>
<path d="M0 0 C2.0703125 2.078125 2.0703125 2.078125 4 5 C3.8046875 8.296875 3.8046875 8.296875 2.875 11.75 C2.58367188 12.89984375 2.29234375 14.0496875 1.9921875 15.234375 C1 18 1 18 -1 19 C-0.505 14.545 -0.505 14.545 0 10 C-0.66 10.66 -1.32 11.32 -2 12 C-1.33333333 8 -0.66666667 4 0 0 Z " fill="#302116" transform="translate(43,30)"/>
<path d="M0 0 C1.65 0.33 3.3 0.66 5 1 C5.33 2.98 5.66 4.96 6 7 C3.03 7 0.06 7 -3 7 C-2 3 -2 3 0 0 Z " fill="#B5631F" transform="translate(7,58)"/>
<path d="M0 0 C1.99954746 -0.04254356 4.00041636 -0.04080783 6 0 C7 1 7 1 7.0625 3.5625 C7.041875 4.366875 7.02125 5.17125 7 6 C4.69 6.33 2.38 6.66 0 7 C0 4.69 0 2.38 0 0 Z " fill="#B0550D" transform="translate(50,51)"/>
<path d="M0 0 C0.7734375 0.495 0.7734375 0.495 1.5625 1 C4.78026512 2.32010877 7.5570528 2.13242105 11 2 C11.33 1.34 11.66 0.68 12 0 C12.66 0 13.32 0 14 0 C13.67 2.31 13.34 4.62 13 7 C12.67 6.01 12.34 5.02 12 4 C11.01 4.495 11.01 4.495 10 5 C8.45976004 5.06950541 6.91665012 5.08452357 5.375 5.0625 C4.14910156 5.04896484 4.14910156 5.04896484 2.8984375 5.03515625 C1.95871094 5.01775391 1.95871094 5.01775391 1 5 C0.67 3.35 0.34 1.7 0 0 Z " fill="#B06C3A" transform="translate(27,40)"/>
<path d="M0 0 C1.98 1.65 3.96 3.3 6 5 C5.67 6.32 5.34 7.64 5 9 C4.34 8.01 3.68 7.02 3 6 C1.02 6.33 -0.96 6.66 -3 7 C-2.67 5.68 -2.34 4.36 -2 3 C-1.34 3 -0.68 3 0 3 C0 2.01 0 1.02 0 0 Z " fill="#A06946" transform="translate(36,21)"/>
<path d="M0 0 C0.78375 0.2475 1.5675 0.495 2.375 0.75 C2.705 1.41 3.035 2.07 3.375 2.75 C1.065 3.41 -1.245 4.07 -3.625 4.75 C-3.625 5.41 -3.625 6.07 -3.625 6.75 C-4.615 6.75 -5.605 6.75 -6.625 6.75 C-6.3125 4.375 -6.3125 4.375 -5.625 1.75 C-2.625 -0.25 -2.625 -0.25 0 0 Z " fill="#CD8E67" transform="translate(32.625,19.25)"/>
<path d="M0 0 C0 1.98 0 3.96 0 6 C-0.99 6 -1.98 6 -3 6 C-3.33 5.34 -3.66 4.68 -4 4 C-4.33 4.66 -4.66 5.32 -5 6 C-5.99 5.67 -6.98 5.34 -8 5 C-7.25 3.0625 -7.25 3.0625 -6 1 C-3.86997684 0.20124132 -2.26695035 0 0 0 Z " fill="#A44E0D" transform="translate(17,52)"/>
<path d="M0 0 C0.33 0.66 0.66 1.32 1 2 C0.01 2.495 0.01 2.495 -1 3 C-1 5.97 -1 8.94 -1 12 C-1.99 11.67 -2.98 11.34 -4 11 C-5.25 4.375 -5.25 4.375 -3 1 C-2.01 0.67 -1.02 0.34 0 0 Z " fill="#A65610" transform="translate(50,46)"/>
<path d="M0 0 C3.3 0 6.6 0 10 0 C9.67 1.32 9.34 2.64 9 4 C6.69 3.67 4.38 3.34 2 3 C1.67 3.99 1.34 4.98 1 6 C0.67 5.67 0.34 5.34 0 5 C0 3.35 0 1.7 0 0 Z " fill="#C28152" transform="translate(29,44)"/>
<path d="M0 0 C1.98 0.99 1.98 0.99 4 2 C4 2.66 4 3.32 4 4 C4.99 4 5.98 4 7 4 C6.67 5.65 6.34 7.3 6 9 C5.34 9 4.68 9 4 9 C4 7.68 4 6.36 4 5 C2.68 5 1.36 5 0 5 C0 3.35 0 1.7 0 0 Z " fill="#A64E10" transform="translate(18,54)"/>
<path d="M0 0 C3 1 3 1 4 3 C4.1875 6 4.1875 6 4 9 C3.34 9.66 2.68 10.32 2 11 C0.19769832 7.17010894 -0.19622241 4.21878192 0 0 Z " fill="#534229" transform="translate(15,41)"/>
<path d="M0 0 C3.84478875 1.45836815 5.1822915 3.36458299 7 7 C7.6875 9.3125 7.6875 9.3125 8 11 C7.01 11 6.02 11 5 11 C3.74335022 8.09399739 3 6.20395416 3 3 C2.34 3 1.68 3 1 3 C0.67 2.01 0.34 1.02 0 0 Z " fill="#322A21" transform="translate(17,41)"/>
<path d="M0 0 C1.98 0 3.96 0 6 0 C6.33 0.66 6.66 1.32 7 2 C6.01 2 5.02 2 4 2 C4 2.99 4 3.98 4 5 C4.66 5 5.32 5 6 5 C5.67 5.99 5.34 6.98 5 8 C3.02 7.34 1.04 6.68 -1 6 C-0.67 5.34 -0.34 4.68 0 4 C0.99 4 1.98 4 3 4 C3 3.01 3 2.02 3 1 C2.01 0.67 1.02 0.34 0 0 Z " fill="#574128" transform="translate(31,13)"/>
<path d="M0 0 C0.99 0 1.98 0 3 0 C3.33 2.31 3.66 4.62 4 7 C2.68 7 1.36 7 0 7 C0 4.69 0 2.38 0 0 Z " fill="#A74D0D" transform="translate(58,58)"/>
<path d="M0 0 C2.31 0.33 4.62 0.66 7 1 C7 2.32 7 3.64 7 5 C4.69 4.67 2.38 4.34 0 4 C0 2.68 0 1.36 0 0 Z " fill="#B85A10" transform="translate(14,59)"/>
<path d="M0 0 C0.99 0.99 1.98 1.98 3 3 C1.68 3.33 0.36 3.66 -1 4 C-1 5.32 -1 6.64 -1 8 C-1.99 8 -2.98 8 -4 8 C-4 6.68 -4 5.36 -4 4 C-3.34 4 -2.68 4 -2 4 C-2 3.01 -2 2.02 -2 1 C-1.34 0.67 -0.68 0.34 0 0 Z " fill="#B2540D" transform="translate(30,54)"/>
<path d="M0 0 C1.52519276 0.08937803 3.04681929 0.24537146 4.5625 0.4375 C5.80193359 0.59025391 5.80193359 0.59025391 7.06640625 0.74609375 C7.70449219 0.82988281 8.34257813 0.91367187 9 1 C8.67 1.66 8.34 2.32 8 3 C6.68 3 5.36 3 4 3 C3.67 3.66 3.34 4.32 3 5 C1.68 3.68 0.36 2.36 -1 1 C-0.67 0.67 -0.34 0.34 0 0 Z " fill="#C6805C" transform="translate(27,37)"/>
<path d="M0 0 C2.39763185 2.39763185 2.34280586 3.33273498 2.625 6.625 C2.69976562 7.44226563 2.77453125 8.25953125 2.8515625 9.1015625 C2.92503906 10.04128906 2.92503906 10.04128906 3 11 C1.5 9.625 1.5 9.625 0 8 C0 7.34 0 6.68 0 6 C-0.66 6 -1.32 6 -2 6 C-1.34 4.02 -0.68 2.04 0 0 Z " fill="#513A1A" transform="translate(44,24)"/>
<path d="M0 0 C0.86625 0.495 0.86625 0.495 1.75 1 C4.19883862 2.27075898 4.19883862 2.27075898 8 2 C7.67 3.98 7.34 5.96 7 8 C4.35247996 5.42215154 2.05567935 3.08351902 0 0 Z " fill="#312318" transform="translate(36,20)"/>
<path d="M0 0 C1.32 0 2.64 0 4 0 C4.33 1.65 4.66 3.3 5 5 C3.02 5.66 1.04 6.32 -1 7 C-0.67 4.69 -0.34 2.38 0 0 Z " fill="#5B4C32" transform="translate(19,20)"/>
<path d="M0 0 C3 2 3 2 3.6875 4.625 C3.790625 5.40875 3.89375 6.1925 4 7 C3.01 6.67 2.02 6.34 1 6 C0.01 6.33 -0.98 6.66 -2 7 C-2.33 6.01 -2.66 5.02 -3 4 C-2.34 3.67 -1.68 3.34 -1 3 C-0.67 2.01 -0.34 1.02 0 0 Z " fill="#AF5F24" transform="translate(29,49)"/>
<path d="M0 0 C1.32 0.66 2.64 1.32 4 2 C2.875 3.5 2.875 3.5 1 5 C-2.1875 5.1875 -2.1875 5.1875 -5 5 C-4.34 3.68 -3.68 2.36 -3 1 C-2.01 1.33 -1.02 1.66 0 2 C0 1.34 0 0.68 0 0 Z " fill="#CC8A65" transform="translate(34,31)"/>
<path d="M0 0 C0.33 1.32 0.66 2.64 1 4 C1.99 4 2.98 4 4 4 C4 4.99 4 5.98 4 7 C1.69 7 -0.62 7 -3 7 C-3 6.34 -3 5.68 -3 5 C-2.34 4.67 -1.68 4.34 -1 4 C-0.34786708 1.97536745 -0.34786708 1.97536745 0 0 Z " fill="#CA7028" transform="translate(25,58)"/>
<path d="M0 0 C0.33 0 0.66 0 1 0 C1 2.64 1 5.28 1 8 C0.01 8 -0.98 8 -2 8 C-2.125 5.125 -2.125 5.125 -2 2 C-1.34 1.34 -0.68 0.68 0 0 Z " fill="#BE5A0C" transform="translate(44,54)"/>
<path d="M0 0 C0 1.32 0 2.64 0 4 C-2.64 4.33 -5.28 4.66 -8 5 C-3.16129032 0 -3.16129032 0 0 0 Z " fill="#4A3C22" transform="translate(29,13)"/>
<path d="M0 0 C0.33 0 0.66 0 1 0 C1 1.65 1 3.3 1 5 C1.99 5.33 2.98 5.66 4 6 C4 6.66 4 7.32 4 8 C2.35 8.33 0.7 8.66 -1 9 C-0.67 6.03 -0.34 3.06 0 0 Z " fill="#3F3220" transform="translate(17,31)"/>
<path d="M0 0 C2.475 0.495 2.475 0.495 5 1 C5 2.32 5 3.64 5 5 C3.68 5 2.36 5 1 5 C0.67 3.35 0.34 1.7 0 0 Z " fill="#A54807" transform="translate(7,58)"/>
<path d="M0 0 C0.556875 0.28875 1.11375 0.5775 1.6875 0.875 C4.08494645 2.0413253 6.51596939 3.0339881 9 4 C9 4.33 9 4.66 9 5 C6.36 5 3.72 5 1 5 C0.67 3.35 0.34 1.7 0 0 Z " fill="#93542A" transform="translate(27,40)"/>
</svg>
