<svg width="817" height="878" viewBox="0 0 817 878" fill="none" xmlns="http://www.w3.org/2000/svg">
<path d="M720.816 618.81C762.934 553.336 712.658 445.442 650.247 392.99C578.32 332.554 507.649 360.356 466.815 298.219C429.537 241.533 469.373 189.388 439.769 150.267C412.561 114.315 333.866 98.8092 118.837 172.348" stroke="white" stroke-opacity="0.09" stroke-width="0.678614" stroke-miterlimit="10"/>
<path d="M117.319 182.506C329.441 110.203 409.164 124.576 437.992 159.604C459.329 185.6 448.245 218.035 451.661 253.792C453.112 271.934 459.046 289.43 468.929 304.71C501.273 354.794 551.43 348.794 608.174 376.56C622.668 383.602 636.284 392.323 648.741 402.544C712.211 454.275 765.824 556.44 726.808 620.88" stroke="white" stroke-opacity="0.09" stroke-width="0.678614" stroke-miterlimit="10"/>
<path d="M115.834 192.653C325.04 121.596 405.753 134.819 436.122 168.874C458.443 193.91 448.924 225.691 453.205 260.525C455.191 278.52 461.26 295.823 470.948 311.115C502.485 360.873 550.218 357.666 606.637 386.135C620.996 393.345 634.57 402.023 647.141 412.03C711.516 463.24 768.629 559.465 732.715 622.872" stroke="white" stroke-opacity="0.09" stroke-width="0.678614" stroke-miterlimit="10"/>
<path d="M114.352 202.772C320.595 132.974 402.32 145.084 434.295 178.171C457.604 202.284 449.626 233.355 454.794 267.302C457.298 285.127 463.489 302.233 472.972 317.53C503.743 366.996 548.97 366.495 605.106 395.721C619.358 403.077 632.913 411.713 645.603 421.521C710.967 472.092 771.486 562.488 738.673 624.862" stroke="white" stroke-opacity="0.09" stroke-width="0.678614" stroke-miterlimit="10"/>
<path d="M112.824 212.94C316.178 144.357 398.856 155.34 432.468 187.484C456.726 210.658 450.34 241.063 456.41 274.085C459.436 291.75 465.765 308.685 475.065 324.003C505.069 373.177 547.812 375.418 603.693 405.408C617.791 412.919 631.289 421.503 644.068 431.086C710.432 481.025 774.347 565.603 744.647 626.952" stroke="white" stroke-opacity="0.09" stroke-width="0.678614" stroke-miterlimit="10"/>
<path d="M111.276 223.054C311.752 155.733 396.266 164.645 430.652 196.788C455.221 219.703 451.116 248.702 457.999 280.861C461.555 298.347 468.022 315.11 477.13 330.452C506.367 379.334 546.606 384.299 602.153 415.003C616.128 422.648 629.596 431.185 642.472 440.562C709.871 489.83 777.157 568.619 750.549 628.945" stroke="white" stroke-opacity="0.09" stroke-width="0.678614" stroke-miterlimit="10"/>
<path d="M109.817 233.246C307.327 167.127 391.87 175.924 428.868 206.032C454.889 227.424 451.86 256.419 459.589 287.656C463.666 304.948 470.269 321.545 479.185 336.91C507.655 385.501 545.429 393.206 600.653 424.632C614.495 432.425 627.928 440.923 640.898 450.093C709.297 498.729 780.014 571.66 756.482 630.982" stroke="white" stroke-opacity="0.09" stroke-width="0.678614" stroke-miterlimit="10"/>
<path d="M108.309 243.396C302.881 178.487 388.415 186.153 426.999 215.398C453.984 235.793 452.701 264.063 461.196 294.432C465.791 311.517 472.538 327.947 481.275 343.329C508.96 391.63 544.25 402.096 599.187 434.222C611.959 441.71 625.407 449.921 639.368 459.574C708.803 507.558 782.845 574.732 762.432 633.001" stroke="white" stroke-opacity="0.09" stroke-width="0.678614" stroke-miterlimit="10"/>
<path d="M106.799 253.543C298.475 189.897 384.864 196.49 425.189 224.671C453.069 244.17 453.544 271.724 462.832 301.213C467.949 318.086 474.836 334.369 483.378 349.792C510.295 397.801 543.109 410.98 597.725 443.866C610.443 451.518 623.844 459.723 637.852 469.118C708.223 516.382 785.685 577.792 768.382 635.017" stroke="white" stroke-opacity="0.09" stroke-width="0.678614" stroke-miterlimit="10"/>
<path d="M105.308 263.691C294.058 201.283 381.329 206.81 423.345 234.007C452.101 252.61 454.419 279.451 464.39 307.984C470.018 324.627 477.04 340.766 485.383 356.227C511.544 403.953 541.874 419.873 596.22 453.44C608.833 461.213 622.244 469.427 636.29 478.574C707.793 525.196 788.576 580.793 774.366 636.995" stroke="white" stroke-opacity="0.09" stroke-width="0.678614" stroke-miterlimit="10"/>
<path d="M103.8 273.838C289.633 212.657 377.779 217.148 421.499 243.283C451.123 261.001 455.261 287.074 465.961 314.76C472.11 331.158 479.28 347.155 487.428 362.657C512.812 410.082 540.666 428.734 594.665 463.09C607.208 471.048 620.597 479.226 634.663 488.126C707.226 534.047 791.343 583.877 780.255 639.063" stroke="white" stroke-opacity="0.09" stroke-width="0.678614" stroke-miterlimit="10"/>
<path d="M102.291 283.988C285.207 224.053 374.248 227.505 419.701 252.605C450.195 269.457 456.18 294.75 467.569 321.555C474.12 336.959 480.9 352.648 489.511 369.124C514.137 416.248 539.499 437.651 593.193 472.728C605.653 480.843 619.031 488.993 633.146 497.673C706.77 542.892 794.231 586.964 786.226 641.118" stroke="white" stroke-opacity="0.09" stroke-width="0.678614" stroke-miterlimit="10"/>
<path d="M100.78 294.136C280.754 235.477 370.627 237.82 417.864 261.91C449.235 277.884 457.115 302.404 469.166 328.339C476.276 343.645 483.225 359.198 491.574 375.572C515.406 422.434 538.309 446.53 591.7 482.347C604.069 490.629 617.445 498.76 631.568 507.166C706.26 551.654 797.058 589.997 792.146 643.127" stroke="white" stroke-opacity="0.09" stroke-width="0.678614" stroke-miterlimit="10"/>
<path d="M99.2535 304.267C276.356 246.822 367.113 248.241 416.031 271.215C448.254 286.343 458.064 310.049 470.759 335.134C478.454 350.33 485.553 365.75 493.591 381.995C516.693 428.544 537.065 455.395 590.193 491.986C602.498 500.423 615.853 508.519 629.996 516.697C705.784 560.442 799.909 593.047 798.09 645.155" stroke="white" stroke-opacity="0.09" stroke-width="0.678614" stroke-miterlimit="10"/>
<path d="M97.7843 314.431C271.941 258.207 363.51 258.621 414.214 280.519C447.308 294.799 459.046 317.672 472.357 341.9C480.647 356.976 487.899 372.3 495.705 388.468C518.02 434.708 535.937 464.308 588.711 501.595C601.541 510.462 614.816 518.666 628.486 526.176C705.306 569.213 802.772 596.144 804.042 647.172" stroke="white" stroke-opacity="0.09" stroke-width="0.678614" stroke-miterlimit="10"/>
<path d="M96.2757 324.581C267.516 269.602 360.012 269.043 412.357 289.789C446.313 303.231 460.007 325.261 473.965 348.695C482.859 363.641 490.245 378.851 497.769 394.918C519.327 440.875 534.75 473.207 587.199 511.198C599.888 520.209 613.143 528.393 626.883 535.701C704.878 577.924 805.59 599.17 810.028 649.169" stroke="white" stroke-opacity="0.09" stroke-width="0.678614" stroke-miterlimit="10"/>
<path d="M94.7659 334.729C263.089 280.977 356.453 279.532 410.57 299.118C445.35 311.725 461.044 332.879 475.562 355.461C485.068 370.267 492.56 385.393 499.822 401.357C520.604 447.013 533.561 482.086 585.727 520.833C598.284 529.974 611.53 538.13 625.346 545.228C704.379 586.694 808.429 602.23 815.934 651.236" stroke="white" stroke-opacity="0.09" stroke-width="0.678614" stroke-miterlimit="10"/>
<path d="M93.2702 344.887C258.632 292.413 352.843 289.924 408.737 308.424C444.41 320.22 462.073 340.453 477.153 362.238C487.329 376.919 494.898 391.935 501.889 407.806C521.921 453.151 532.367 490.977 584.23 530.463C596.66 539.727 609.898 547.856 623.784 554.75C703.918 595.426 811.281 605.282 821.879 653.265" stroke="white" stroke-opacity="0.09" stroke-width="0.678614" stroke-miterlimit="10"/>
<path d="M91.7595 355.034C254.198 303.712 349.271 300.384 406.883 317.766C443.411 328.753 463.06 348.046 478.698 369.081C489.447 383.606 497.191 398.562 503.9 414.313C523.147 459.386 531.126 499.933 582.701 540.121C595.005 549.507 608.237 557.609 622.191 564.298C703.436 604.175 814.118 608.445 827.784 655.33" stroke="white" stroke-opacity="0.09" stroke-width="0.678614" stroke-miterlimit="10"/>
<path d="M90.2518 365.183C249.815 315.142 345.712 310.857 405.084 327.032C442.494 337.217 464.137 355.541 480.35 375.807C491.78 390.111 499.56 405.046 505.999 420.722C524.47 465.495 529.974 508.774 581.228 549.721C593.399 559.235 606.629 567.311 620.653 573.79C703.024 612.828 816.969 611.393 833.762 657.319" stroke="white" stroke-opacity="0.09" stroke-width="0.678614" stroke-miterlimit="10"/>
<path d="M88.7653 375.329C245.402 326.525 342.113 321.378 403.23 336.3C441.497 345.695 465.14 363.02 481.902 382.547C494.005 396.641 501.859 411.551 508.043 427.096C525.748 471.595 528.767 517.616 579.717 559.284C591.767 568.916 604.998 576.971 619.088 583.254C702.603 621.329 819.772 614.418 839.696 659.318" stroke="white" stroke-opacity="0.09" stroke-width="0.678614" stroke-miterlimit="10"/>
<path d="M87.2447 385.469C336.72 308.254 438.426 340.331 483.539 389.367C532.787 442.895 509.914 511.705 578.256 568.948C658.435 636.088 818.758 610.07 845.656 661.362" stroke="white" stroke-opacity="0.09" stroke-width="0.678614" stroke-miterlimit="10"/>
</svg>
