<svg width="765" height="837" viewBox="0 0 765 837" fill="none" xmlns="http://www.w3.org/2000/svg">
<path d="M558.816 577.81C600.934 512.336 550.658 404.442 488.247 351.99C416.32 291.554 345.649 319.356 304.815 257.219C267.537 200.533 307.373 148.388 277.769 109.267C250.561 73.315 171.866 57.8092 -43.1633 131.348" stroke="white" stroke-opacity="0.09" stroke-width="0.678614" stroke-miterlimit="10"/>
<path d="M-44.681 141.506C167.441 69.203 247.164 83.5755 275.992 118.604C297.329 144.6 286.245 177.035 289.661 212.792C291.112 230.934 297.046 248.43 306.929 263.71C339.273 313.794 389.43 307.794 446.174 335.56C460.668 342.602 474.284 351.323 486.741 361.544C550.211 413.275 603.824 515.44 564.808 579.88" stroke="white" stroke-opacity="0.09" stroke-width="0.678614" stroke-miterlimit="10"/>
<path d="M-46.1658 151.653C163.04 80.5956 243.753 93.819 274.122 127.874C296.443 152.91 286.924 184.691 291.205 219.525C293.191 237.52 299.26 254.823 308.948 270.115C340.485 319.873 388.218 316.666 444.637 345.135C458.996 352.345 472.57 361.023 485.141 371.03C549.516 422.24 606.629 518.465 570.715 581.872" stroke="white" stroke-opacity="0.09" stroke-width="0.678614" stroke-miterlimit="10"/>
<path d="M-47.6481 161.772C158.595 91.9738 240.32 104.084 272.295 137.171C295.604 161.284 287.626 192.355 292.794 226.302C295.298 244.127 301.489 261.233 310.972 276.53C341.743 325.996 386.97 325.495 443.106 354.721C457.358 362.077 470.913 370.713 483.603 380.521C548.967 431.092 609.486 521.488 576.673 583.862" stroke="white" stroke-opacity="0.09" stroke-width="0.678614" stroke-miterlimit="10"/>
<path d="M-49.1756 171.94C154.178 103.357 236.856 114.34 270.468 146.484C294.726 169.658 288.34 200.063 294.41 233.085C297.436 250.75 303.765 267.685 313.065 283.003C343.069 332.177 385.812 334.418 441.693 364.408C455.791 371.919 469.289 380.503 482.068 390.086C548.432 440.025 612.347 524.603 582.647 585.952" stroke="white" stroke-opacity="0.09" stroke-width="0.678614" stroke-miterlimit="10"/>
<path d="M-50.7238 182.054C149.752 114.733 234.266 123.645 268.652 155.788C293.221 178.703 289.116 207.702 295.999 239.861C299.555 257.347 306.022 274.11 315.13 289.452C344.367 338.334 384.606 343.299 440.153 374.003C454.128 381.648 467.596 390.185 480.472 399.562C547.871 448.83 615.157 527.619 588.549 587.945" stroke="white" stroke-opacity="0.09" stroke-width="0.678614" stroke-miterlimit="10"/>
<path d="M-52.1826 192.246C145.327 126.127 229.87 134.924 266.868 165.032C292.889 186.424 289.86 215.419 297.589 246.656C301.666 263.948 308.269 280.545 317.185 295.91C345.655 344.501 383.429 352.206 438.653 383.632C452.495 391.425 465.928 399.923 478.898 409.093C547.297 457.729 618.014 530.66 594.482 589.982" stroke="white" stroke-opacity="0.09" stroke-width="0.678614" stroke-miterlimit="10"/>
<path d="M-53.6914 202.396C140.881 137.487 226.415 145.153 264.999 174.398C291.984 194.793 290.701 223.063 299.196 253.432C303.791 270.517 310.538 286.947 319.275 302.329C346.96 350.63 382.25 361.096 437.187 393.222C449.959 400.71 463.407 408.921 477.368 418.574C546.803 466.558 620.845 533.732 600.432 592.001" stroke="white" stroke-opacity="0.09" stroke-width="0.678614" stroke-miterlimit="10"/>
<path d="M-55.2008 212.543C136.475 148.897 222.864 155.49 263.189 183.671C291.069 203.17 291.544 230.724 300.832 260.213C305.949 277.086 312.836 293.369 321.378 308.792C348.295 356.801 381.109 369.98 435.725 402.866C448.443 410.518 461.844 418.723 475.852 428.118C546.223 475.382 623.685 536.792 606.382 594.017" stroke="white" stroke-opacity="0.09" stroke-width="0.678614" stroke-miterlimit="10"/>
<path d="M-56.692 222.691C132.058 160.283 219.329 165.81 261.345 193.007C290.101 211.61 292.419 238.451 302.39 266.984C308.018 283.627 315.04 299.766 323.383 315.227C349.544 362.953 379.874 378.873 434.22 412.44C446.833 420.213 460.244 428.427 474.29 437.574C545.793 484.196 626.576 539.793 612.366 595.995" stroke="white" stroke-opacity="0.09" stroke-width="0.678614" stroke-miterlimit="10"/>
<path d="M-58.1997 232.838C127.633 171.657 215.779 176.148 259.499 202.283C289.123 220.001 293.261 246.074 303.961 273.76C310.11 290.158 317.28 306.155 325.428 321.657C350.812 369.082 378.666 387.734 432.665 422.09C445.208 430.048 458.597 438.226 472.663 447.126C545.226 493.047 629.343 542.877 618.255 598.063" stroke="white" stroke-opacity="0.09" stroke-width="0.678614" stroke-miterlimit="10"/>
<path d="M-59.7094 242.988C123.207 183.053 212.248 186.505 257.701 211.605C288.195 228.457 294.18 253.75 305.569 280.555C312.12 295.959 318.9 311.648 327.511 328.124C352.137 375.248 377.499 396.651 431.193 431.728C443.653 439.843 457.031 447.993 471.146 456.673C544.77 501.892 632.231 545.964 624.226 600.118" stroke="white" stroke-opacity="0.09" stroke-width="0.678614" stroke-miterlimit="10"/>
<path d="M-61.2199 253.136C118.754 194.477 208.627 196.82 255.864 220.91C287.235 236.884 295.115 261.404 307.166 287.339C314.276 302.645 321.225 318.198 329.574 334.572C353.406 381.434 376.309 405.53 429.7 441.347C442.069 449.629 455.445 457.76 469.568 466.166C544.26 510.654 635.058 548.997 630.146 602.127" stroke="white" stroke-opacity="0.09" stroke-width="0.678614" stroke-miterlimit="10"/>
<path d="M-62.7465 263.267C114.356 205.822 205.113 207.241 254.031 230.215C286.254 245.343 296.064 269.049 308.759 294.134C316.454 309.33 323.553 324.75 331.591 340.995C354.693 387.544 375.065 414.395 428.193 450.986C440.498 459.423 453.853 467.519 467.996 475.697C543.784 519.442 637.909 552.047 636.09 604.155" stroke="white" stroke-opacity="0.09" stroke-width="0.678614" stroke-miterlimit="10"/>
<path d="M-64.2157 273.431C109.941 217.207 201.51 217.621 252.214 239.519C285.308 253.799 297.046 276.672 310.357 300.9C318.647 315.976 325.899 331.3 333.705 347.468C356.02 393.708 373.937 423.308 426.711 460.595C439.541 469.462 452.816 477.666 466.486 485.176C543.306 528.213 640.772 555.144 642.042 606.172" stroke="white" stroke-opacity="0.09" stroke-width="0.678614" stroke-miterlimit="10"/>
<path d="M-65.7243 283.581C105.516 228.602 198.012 228.043 250.357 248.789C284.313 262.231 298.007 284.261 311.965 307.695C320.859 322.641 328.245 337.851 335.769 353.918C357.327 399.875 372.75 432.207 425.199 470.198C437.888 479.209 451.143 487.393 464.883 494.701C542.878 536.924 643.59 558.17 648.028 608.169" stroke="white" stroke-opacity="0.09" stroke-width="0.678614" stroke-miterlimit="10"/>
<path d="M-67.2341 293.729C101.089 239.977 194.453 238.532 248.57 258.118C283.35 270.725 299.044 291.879 313.562 314.461C323.068 329.267 330.56 344.393 337.822 360.357C358.604 406.013 371.561 441.086 423.727 479.833C436.284 488.974 449.53 497.13 463.346 504.228C542.379 545.694 646.429 561.23 653.934 610.236" stroke="white" stroke-opacity="0.09" stroke-width="0.678614" stroke-miterlimit="10"/>
<path d="M-68.7298 303.887C96.6322 251.413 190.843 248.924 246.737 267.424C282.41 279.22 300.073 299.453 315.153 321.238C325.329 335.919 332.898 350.935 339.889 366.806C359.921 412.151 370.367 449.977 422.23 489.463C434.66 498.727 447.898 506.856 461.784 513.75C541.918 554.426 649.281 564.282 659.879 612.265" stroke="white" stroke-opacity="0.09" stroke-width="0.678614" stroke-miterlimit="10"/>
<path d="M-70.2405 314.034C92.1985 262.712 187.271 259.384 244.883 276.766C281.411 287.753 301.06 307.046 316.698 328.081C327.447 342.606 335.191 357.562 341.9 373.313C361.147 418.386 369.126 458.933 420.701 499.121C433.005 508.507 446.237 516.609 460.191 523.298C541.436 563.175 652.118 567.445 665.784 614.33" stroke="white" stroke-opacity="0.09" stroke-width="0.678614" stroke-miterlimit="10"/>
<path d="M-71.7482 324.183C87.815 274.142 183.712 269.857 243.084 286.032C280.494 296.217 302.137 314.54 318.35 334.807C329.78 349.111 337.56 364.046 343.999 379.722C362.47 424.495 367.974 467.774 419.228 508.721C431.399 518.235 444.629 526.311 458.653 532.79C541.024 571.828 654.969 570.393 671.762 616.319" stroke="white" stroke-opacity="0.09" stroke-width="0.678614" stroke-miterlimit="10"/>
<path d="M-73.2347 334.329C83.4023 285.525 180.113 280.378 241.23 295.3C279.497 304.695 303.14 322.02 319.902 341.547C332.005 355.641 339.859 370.551 346.043 386.096C363.748 430.595 366.767 476.616 417.717 518.284C429.767 527.916 442.998 535.971 457.088 542.254C540.603 580.329 657.772 573.418 677.696 618.318" stroke="white" stroke-opacity="0.09" stroke-width="0.678614" stroke-miterlimit="10"/>
<path d="M-74.7553 344.469C174.72 267.254 276.426 299.331 321.539 348.367C370.787 401.895 347.914 470.705 416.256 527.948C496.435 595.088 656.758 569.07 683.656 620.362" stroke="white" stroke-opacity="0.09" stroke-width="0.678614" stroke-miterlimit="10"/>
</svg>
