<svg width="16" height="14" viewBox="0 0 16 14" fill="none" xmlns="http://www.w3.org/2000/svg">
<path id="&#226;&#128;&#156;" d="M5.91033 13.3846H0L0 6.1998C0 4.2684 0.394022 2.80053 1.18207 1.7962C2.04891 0.753247 3.50679 0.154512 5.55571 0V3.41858C4.84647 3.41858 4.25543 3.70829 3.78261 4.28771C3.5462 4.59674 3.42799 5.19547 3.42799 6.08392V7.18481H5.91033V13.3846ZM15.1304 13.3846H9.22011V6.1998C9.22011 4.2684 9.57473 2.85848 10.284 1.97003C11.2296 0.81119 12.7269 0.154512 14.7758 0V3.41858C13.5543 3.41858 12.8648 4.01732 12.7072 5.21479C12.6678 5.3693 12.6481 5.65901 12.6481 6.08392V7.18481H15.1304V13.3846Z" fill="#0B2C4D"/>
</svg>
