<svg width="64" height="65" viewBox="0 0 64 65" fill="none" xmlns="http://www.w3.org/2000/svg">
<g id="Link" clip-path="url(#clip0_86_2298)">
<path id="Vector" d="M42.1292 28.7405C42.4129 28.7405 42.6611 28.6695 42.8739 28.5277C43.0867 28.3858 43.1931 28.1731 43.1931 27.8894C43.4768 26.7546 43.6186 25.6198 43.6186 24.485C43.6186 21.3643 42.8384 18.4919 41.2781 15.8677C39.7178 13.2434 37.6255 11.1512 35.0013 9.59083C32.3771 8.03049 29.5046 7.25032 26.3839 7.25032C23.2633 7.25032 20.3908 8.03049 17.7666 9.59083C15.1424 11.1512 13.0501 13.2434 11.4898 15.8677C9.92944 18.4919 9.14927 21.3643 9.14927 24.485C9.14927 27.6057 9.92944 30.4781 11.4898 33.1023C13.0501 35.7265 15.1424 37.8188 17.7666 39.3791C20.3908 40.9395 23.2987 41.7197 26.4903 41.7197C29.6819 41.7197 32.6253 40.8686 35.3204 39.1664C38.0156 37.4642 40.1433 35.1946 41.7037 32.3576C41.7037 32.0739 41.6682 31.8257 41.5973 31.6129C41.5263 31.4001 41.3845 31.2228 41.1717 31.081C40.9589 30.9391 40.7462 30.9037 40.5334 30.9746C40.3206 31.0455 40.1433 31.2228 40.0015 31.5065C38.7248 34.0598 36.8453 36.0812 34.363 37.5706C31.8806 39.06 29.2564 39.8047 26.4903 39.8047C23.7243 39.8047 21.171 39.1309 18.8305 37.7833C16.49 36.4358 14.6105 34.5917 13.192 32.2512C11.7735 29.9107 11.0642 27.3574 11.0642 24.5914C11.0642 21.8253 11.7735 19.2366 13.192 16.8251C14.6105 14.4137 16.49 12.5342 18.8305 11.1866C21.171 9.83907 23.6888 9.16528 26.3839 9.16528C29.0791 9.16528 31.5969 9.83907 33.9374 11.1866C36.2779 12.5342 38.1574 14.4137 39.5759 16.8251C40.9944 19.2366 41.7037 21.7899 41.7037 24.485C41.7037 25.4779 41.5618 26.5418 41.2781 27.6766C41.2781 27.8184 41.349 27.9958 41.4909 28.2085C41.6327 28.4213 41.8455 28.5986 42.1292 28.7405ZM36.8099 21.0806C36.668 20.6551 36.3843 20.4423 35.9588 20.4423L30.0011 19.5912L27.235 14.0591C27.0932 13.6335 26.8095 13.4208 26.3839 13.4208C25.9584 13.4208 25.6747 13.6335 25.5328 14.0591L22.7668 19.5912L16.8091 20.4423C16.3836 20.4423 16.0999 20.6196 15.958 20.9742C15.8162 21.3288 15.8871 21.648 16.1708 21.9317L20.6391 26.1872L19.5752 32.3576C19.4333 32.7832 19.5397 33.1023 19.8943 33.3151C20.249 33.5279 20.5681 33.5633 20.8518 33.4215L26.3839 30.4426L31.9161 33.4215C32.1998 33.5633 32.5189 33.5279 32.8735 33.3151C33.2282 33.1023 33.3345 32.7832 33.1927 32.3576L32.1288 26.1872L36.5971 21.9317C36.8808 21.648 36.9517 21.3643 36.8099 21.0806ZM30.4266 25.3361C30.2848 25.4779 30.2139 25.7616 30.2139 26.1872L31.065 30.8682L26.8095 28.5277C26.5258 28.3858 26.2421 28.3858 25.9584 28.5277L21.7029 30.8682L22.554 26.1872C22.554 25.7616 22.4831 25.4779 22.3412 25.3361L18.9369 21.9317L23.6179 21.2934C23.9016 21.2934 24.1144 21.1515 24.2562 20.8678L26.3839 16.3996L28.5117 20.8678C28.6535 21.1515 28.8663 21.2934 29.15 21.2934L33.831 21.9317L30.4266 25.3361ZM52.5551 56.6138L43.4058 40.6558C45.5336 38.5281 47.1648 36.0812 48.2996 33.3151C49.4344 30.549 50.0018 27.6057 50.0018 24.485C50.0018 20.2295 48.938 16.2932 46.8102 12.676C44.6825 9.0589 41.81 6.18645 38.1929 4.05871C34.5757 1.93097 30.6749 0.867107 26.4903 0.867107C22.3058 0.867107 18.4404 1.86005 14.8942 3.84594C14.7523 3.98779 14.6459 4.1651 14.575 4.37787C14.5041 4.59064 14.5041 4.80342 14.575 5.01619C14.6459 5.22897 14.8232 5.37082 15.1069 5.44174C15.3906 5.51266 15.6743 5.54813 15.958 5.54813C19.2206 3.70409 22.7668 2.78207 26.5967 2.78207C30.4266 2.78207 33.9729 3.73955 37.2354 5.65451C40.4979 7.56948 43.1221 10.1937 45.108 13.5271C47.0939 16.8606 48.0869 20.5132 48.0869 24.485C48.0869 28.4568 47.0939 32.1094 45.108 35.4428C43.1221 38.7763 40.4979 41.4005 37.2354 43.3155C33.9729 45.2304 30.3557 46.1879 26.3839 46.1879C22.4122 46.1879 18.795 45.2304 15.5325 43.3155C12.27 41.4005 9.64574 38.7763 7.65985 35.4428C5.67397 32.1094 4.68102 28.4568 4.68102 24.485C4.68102 21.2225 5.35481 18.1372 6.70237 15.2293C8.04994 12.3214 9.92944 9.87453 12.3409 7.88864C12.6246 7.74679 12.7664 7.53402 12.7664 7.25032C12.7664 6.96662 12.6955 6.71838 12.5536 6.50561C12.4118 6.29284 12.199 6.18645 11.9153 6.18645C11.6316 6.18645 11.4189 6.25737 11.277 6.39922C8.58187 8.66881 6.4896 11.3639 5.00018 14.4846C3.51077 17.6053 2.76606 20.9388 2.76606 24.485C2.76606 27.6057 3.33346 30.549 4.46825 33.3151C5.60304 36.0812 7.23431 38.599 9.36204 40.8686L6.80876 45.3368C6.52506 45.6205 6.4896 45.9042 6.70237 46.1879C6.91515 46.4716 7.19884 46.6135 7.55347 46.6135C7.90809 46.6135 8.15633 46.4716 8.29817 46.1879L10.6387 42.1452C13.6175 44.6985 16.951 46.4716 20.6391 47.4645L12.5536 61.5076L10.6387 54.9116C10.4968 54.7698 10.3195 54.6279 10.1068 54.4861C9.89398 54.3442 9.71667 54.2733 9.57482 54.2733L2.76606 55.7627L6.17044 50.0178C6.31229 49.7341 6.34775 49.4859 6.27682 49.2731C6.2059 49.0604 6.06405 48.883 5.85128 48.7412C5.6385 48.5993 5.39027 48.5639 5.10657 48.6348C4.82287 48.7057 4.6101 48.8121 4.46825 48.954L0.212774 56.6138C-0.0709246 57.0394 -0.0709246 57.4295 0.212774 57.7841C0.496472 58.1387 0.78017 58.2451 1.06387 58.1032L9.14927 56.401L11.4898 64.0609C11.6316 64.4864 11.9153 64.6992 12.3409 64.6992C12.7664 64.6992 13.0501 64.5574 13.192 64.2737L22.554 47.8901C23.8307 48.0319 25.1073 48.1029 26.3839 48.1029C27.6606 48.1029 28.9372 48.0319 30.2139 47.8901L35.746 57.6777C36.0297 57.9614 36.2779 58.1032 36.4907 58.1032C36.7035 58.1032 36.9162 58.0678 37.129 57.9968C37.3418 57.9259 37.4836 57.7486 37.5546 57.4649C37.6255 57.1812 37.59 56.9684 37.4482 56.8266L32.1288 47.4645C35.8169 46.4716 39.1504 44.6985 42.1292 42.1452L50.0018 55.7627L43.1931 54.2733C43.0512 54.2733 42.8739 54.3088 42.6611 54.3797C42.4484 54.4506 42.271 54.6279 42.1292 54.9116L40.2142 61.5076L39.5759 60.4437C39.4341 60.3019 39.2568 60.1955 39.044 60.1246C38.8312 60.0537 38.6184 60.0891 38.4057 60.231C38.1929 60.3728 38.051 60.5501 37.9801 60.7629C37.9092 60.9757 37.9446 61.2239 38.0865 61.5076L39.5759 64.2737C39.7178 64.5574 40.0015 64.6638 40.427 64.5928C40.8526 64.5219 41.1363 64.3446 41.2781 64.0609L43.6186 56.1883L51.704 58.1032C51.9877 58.1032 52.2714 57.9259 52.5551 57.5713C52.8388 57.2167 52.8388 56.8975 52.5551 56.6138Z" fill="#E8F0F8"/>
</g>
<defs>
<clipPath id="clip0_86_2298">
<rect width="63.8321" height="63.8321" fill="white" transform="matrix(1 0 0 -1 0 64.6992)"/>
</clipPath>
</defs>
</svg>
