<svg id="Layer_1" data-name="Layer 1" xmlns="http://www.w3.org/2000/svg" viewBox="0 0 64 64"><defs><style>.cls-1{opacity:0;}.cls-2{fill:none;}.cls-3{fill:#e8f0f8;}</style></defs><rect class="cls-1" width="64" height="64"/><rect class="cls-2" width="64.08" height="64"/><path class="cls-3" d="M47.29,28a1.25,1.25,0,0,0,.75-.22.72.72,0,0,0,.32-.64,13.68,13.68,0,0,0,.43-3.41A16.64,16.64,0,0,0,46.44,15a17.82,17.82,0,0,0-6.3-6.29,17.09,17.09,0,0,0-17.3,0A17.77,17.77,0,0,0,16.53,15a17.06,17.06,0,0,0,0,17.28,17.77,17.77,0,0,0,6.31,6.29A16.75,16.75,0,0,0,31.59,41a16.28,16.28,0,0,0,8.87-2.56,18.53,18.53,0,0,0,6.41-6.83,2.35,2.35,0,0,0-.11-.74,1.06,1.06,0,0,0-.43-.54.71.71,0,0,0-.64-.1,1,1,0,0,0-.53.53A14.61,14.61,0,0,1,39.5,36.8,15.32,15.32,0,0,1,23.9,37a15.73,15.73,0,0,1-5.66-5.54,14.58,14.58,0,0,1-2.13-7.68A15.12,15.12,0,0,1,18.24,16a15.41,15.41,0,0,1,5.66-5.65,15.19,15.19,0,0,1,15.17,0A15.41,15.41,0,0,1,44.73,16a15,15,0,0,1,2.14,7.68,13.45,13.45,0,0,1-.43,3.2,1,1,0,0,0,.21.53A1.65,1.65,0,0,0,47.29,28ZM42,20.27a.83.83,0,0,0-.85-.64l-6-.86-2.78-5.54a.89.89,0,0,0-1.71,0l-2.77,5.54-6,.86a.82.82,0,0,0-.85.53.83.83,0,0,0,.21,1l4.49,4.27-1.07,6.18a.74.74,0,0,0,.32,1,1,1,0,0,0,1,.11l5.56-3,5.55,3a1,1,0,0,0,1-.11.73.73,0,0,0,.32-1l-1.07-6.18,4.49-4.27A.69.69,0,0,0,42,20.27Zm-6.41,4.26a1.28,1.28,0,0,0-.21.86l.86,4.69-4.28-2.35a.91.91,0,0,0-.85,0l-4.27,2.35.85-4.69a1.28,1.28,0,0,0-.21-.86L24,21.12l4.7-.64a.68.68,0,0,0,.64-.43l2.14-4.48,2.13,4.48a.68.68,0,0,0,.64.43l4.7.64ZM57.76,55.89l-9.19-16a22.13,22.13,0,0,0,4.92-7.36,23,23,0,0,0,1.71-8.85A22.88,22.88,0,0,0,52,11.84,24,24,0,0,0,43.34,3.2,22.83,22.83,0,0,0,31.59,0,23.46,23.46,0,0,0,20,3a1.35,1.35,0,0,0-.32.53,1,1,0,0,0,0,.64.69.69,0,0,0,.54.43,3.47,3.47,0,0,0,.85.1A21.37,21.37,0,0,1,31.7,1.92,20.77,20.77,0,0,1,42.38,4.8a22.12,22.12,0,0,1,7.9,7.89,21,21,0,0,1,3,11,21,21,0,0,1-3,11,22.12,22.12,0,0,1-7.9,7.89,21.16,21.16,0,0,1-10.89,2.88,21.17,21.17,0,0,1-10.9-2.88,22.12,22.12,0,0,1-7.9-7.89,21.12,21.12,0,0,1-3-11,21.85,21.85,0,0,1,2-9.28A20.57,20.57,0,0,1,17.39,7a.7.7,0,0,0,.43-.64,1.37,1.37,0,0,0-.22-.75A.72.72,0,0,0,17,5.33a.84.84,0,0,0-.64.22,24.07,24.07,0,0,0-6.3,8.1,22.89,22.89,0,0,0-2.24,10,23,23,0,0,0,1.71,8.85,24.49,24.49,0,0,0,4.91,7.58l-2.56,4.48a.59.59,0,0,0-.11.85,1,1,0,0,0,.85.43.77.77,0,0,0,.75-.43l2.35-4a25.5,25.5,0,0,0,10,5.33L17.6,60.8l-1.92-6.61a3,3,0,0,0-.53-.43,1.09,1.09,0,0,0-.54-.21L7.78,55l3.41-5.76a1,1,0,0,0,.11-.75,1,1,0,0,0-.43-.53.9.9,0,0,0-.74-.11,1.33,1.33,0,0,0-.64.32L5.21,55.89a.93.93,0,0,0,0,1.18c.29.35.57.46.86.32l8.11-1.71,2.35,7.68a1,1,0,0,0,1.71.21l9.4-16.42a35.31,35.31,0,0,0,7.69,0L40.88,57a1.23,1.23,0,0,0,.75.43,2,2,0,0,0,.64-.11.67.67,0,0,0,.43-.53.62.62,0,0,0-.11-.64l-5.34-9.39a25.43,25.43,0,0,0,10-5.33L55.2,55l-6.84-1.49a1.73,1.73,0,0,0-.53.1,1,1,0,0,0-.54.54L45.37,60.8l-.64-1.07a1.47,1.47,0,0,0-.53-.32.74.74,0,0,0-.65.11,1,1,0,0,0-.42.53,1,1,0,0,0,.1.75l1.5,2.77c.14.29.43.39.85.32a1.06,1.06,0,0,0,.86-.53l2.35-7.89,8.11,1.92a1.16,1.16,0,0,0,.86-.54A.65.65,0,0,0,57.76,55.89Z"/></svg>