<svg width="127" height="33" viewBox="0 0 127 33" fill="none" xmlns="http://www.w3.org/2000/svg">
<g id="Group 39781">
<g id="Icon">
<g id="Vector">
<path d="M20.0966 15.3342C20.063 11.6914 23.1559 9.91913 23.2973 9.83662C21.5457 7.34666 18.8308 7.00646 17.8767 6.97933C15.5965 6.74537 13.3847 8.30964 12.2231 8.30964C11.0384 8.30964 9.24966 7.00194 7.32185 7.04036C4.84108 7.07766 2.52029 8.47805 1.24745 10.6527C-1.37938 15.0867 0.57973 21.6026 3.09643 25.1866C4.35536 26.9419 5.82644 28.9018 7.75193 28.8328C9.63569 28.7571 10.3393 27.6619 12.6126 27.6619C14.865 27.6619 15.5258 28.8328 17.4895 28.7887C19.5112 28.7571 20.7841 27.0256 21.999 25.2544C23.4538 23.2426 24.0381 21.2612 24.0612 21.1595C24.0137 21.1437 20.1349 19.7004 20.0966 15.3342Z" fill="black"/>
<path d="M16.3871 4.62162C17.4003 3.38625 18.0935 1.70556 17.9011 0C16.4346 0.0632943 14.6007 0.988974 13.5446 2.19722C12.6103 3.26192 11.7756 5.00703 11.9913 6.64817C13.6385 6.76797 15.3299 5.83777 16.3871 4.62162Z" fill="black"/>
</g>
</g>
<g id="Download on the">
<path id="D" d="M42.0344 4.28496C42.0344 5.61527 41.6252 6.61668 40.808 7.28918C40.051 7.90969 38.9752 8.22052 37.5818 8.22052C36.8909 8.22052 36.2997 8.19113 35.8047 8.13236V0.863675C36.4504 0.761952 37.1459 0.709961 37.8971 0.709961C39.2244 0.709961 40.2249 0.991395 40.8995 1.55426C41.6554 2.1906 42.0344 3.10045 42.0344 4.28496ZM40.7535 4.31774C40.7535 3.45535 40.5193 2.79415 40.051 2.33301C39.5826 1.87299 38.8987 1.64242 37.998 1.64242C37.6154 1.64242 37.2897 1.66729 37.0196 1.71928V7.2451C37.1691 7.26771 37.4427 7.27788 37.8403 7.27788C38.77 7.27788 39.4876 7.02583 39.993 6.52174C40.4984 6.01765 40.7535 5.28298 40.7535 4.31774Z" fill="black"/>
<path id="o" d="M48.8249 5.44719C48.8249 6.26662 48.5849 6.938 48.105 7.46469C47.6019 8.00609 46.9353 8.27622 46.103 8.27622C45.3008 8.27622 44.662 8.01739 44.1856 7.49747C43.7103 6.97868 43.4727 6.32427 43.4727 5.53535C43.4727 4.71026 43.7173 4.03324 44.2088 3.50767C44.7003 2.9821 45.3611 2.71875 46.1934 2.71875C46.9956 2.71875 47.6401 2.97758 48.1282 3.49637C48.5919 4.00046 48.8249 4.65149 48.8249 5.44719ZM47.5648 5.48562C47.5648 4.99396 47.4558 4.57237 47.239 4.22086C46.984 3.79588 46.6211 3.5834 46.1493 3.5834C45.6613 3.5834 45.2903 3.79588 45.0353 4.22086C44.8174 4.57237 44.7096 5.00074 44.7096 5.50709C44.7096 5.99875 44.8185 6.42034 45.0353 6.77185C45.2985 7.19682 45.6648 7.40931 46.1377 7.40931C46.6014 7.40931 46.9654 7.19343 47.2274 6.76055C47.4523 6.40225 47.5648 5.97728 47.5648 5.48562Z" fill="black"/>
<path id="w" d="M57.9332 2.82666L56.2233 8.15469H55.1105L54.4022 5.84105C54.2225 5.26349 54.0764 4.68932 53.9628 4.11967H53.9408C53.8353 4.70515 53.6892 5.27819 53.5014 5.84105L52.7491 8.15469H51.6235L50.0156 2.82666H51.2641L51.882 5.35956C52.0315 5.9586 52.1544 6.52938 52.253 7.06964H52.275C52.3654 6.62432 52.5149 6.05693 52.7259 5.37087L53.5014 2.82779H54.4914L55.2345 5.31661C55.4142 5.92356 55.5602 6.5079 55.6727 7.07077H55.7063C55.7886 6.5226 55.9127 5.93826 56.0773 5.31661L56.7404 2.82779H57.9332V2.82666Z" fill="black"/>
<path id="n" d="M64.2314 8.15526H63.0165V5.10356C63.0165 4.16319 62.6502 3.693 61.9152 3.693C61.5547 3.693 61.2637 3.82185 61.0377 4.08068C60.8139 4.33951 60.7003 4.64468 60.7003 4.99393V8.15413H59.4855V4.34968C59.4855 3.88176 59.4704 3.37427 59.4414 2.82497H60.5091L60.5659 3.65797H60.5995C60.7409 3.39914 60.9519 3.18552 61.2289 3.01485C61.5582 2.81593 61.9268 2.71533 62.3302 2.71533C62.8403 2.71533 63.2646 2.87583 63.6019 3.19795C64.0215 3.59241 64.2314 4.18128 64.2314 4.96341V8.15526Z" fill="black"/>
<path id="l" d="M67.5809 8.15558H66.3672V0.382812H67.5809V8.15558Z" fill="black"/>
<path id="o_2" d="M74.735 5.44719C74.735 6.26662 74.4951 6.938 74.0151 7.46469C73.512 8.00609 72.8443 8.27622 72.0131 8.27622C71.2098 8.27622 70.571 8.01739 70.0957 7.49747C69.6205 6.97868 69.3828 6.32427 69.3828 5.53535C69.3828 4.71026 69.6274 4.03324 70.1189 3.50767C70.6104 2.9821 71.2712 2.71875 72.1024 2.71875C72.9057 2.71875 73.5491 2.97758 74.0383 3.49637C74.502 4.00046 74.735 4.65149 74.735 5.44719ZM73.4738 5.48562C73.4738 4.99396 73.3648 4.57237 73.148 4.22086C72.8941 3.79588 72.5301 3.5834 72.0595 3.5834C71.5703 3.5834 71.1993 3.79588 70.9455 4.22086C70.7275 4.57237 70.6197 5.00074 70.6197 5.50709C70.6197 5.99875 70.7287 6.42034 70.9455 6.77185C71.2086 7.19682 71.5749 7.40931 72.0479 7.40931C72.5116 7.40931 72.8744 7.19343 73.1364 6.76055C73.3625 6.40225 73.4738 5.97728 73.4738 5.48562Z" fill="black"/>
<path id="a" d="M80.6151 8.15528H79.5243L79.4339 7.54155H79.4003C79.027 8.03095 78.4949 8.27622 77.804 8.27622C77.2881 8.27622 76.8708 8.11459 76.5567 7.7936C76.2715 7.50199 76.1289 7.13918 76.1289 6.70855C76.1289 6.05753 76.4071 5.56134 76.967 5.21775C77.5258 4.87415 78.3118 4.70574 79.3238 4.71365V4.61419C79.3238 3.9123 78.9458 3.56192 78.1889 3.56192C77.6498 3.56192 77.1745 3.69416 76.7642 3.95638L76.5172 3.17876C77.025 2.87246 77.6521 2.71875 78.3917 2.71875C79.8199 2.71875 80.5363 3.45342 80.5363 4.92275V6.88487C80.5363 7.41722 80.563 7.84107 80.6151 8.15528ZM79.3539 6.32427V5.50257C78.0138 5.47997 77.3438 5.83826 77.3438 6.57631C77.3438 6.85436 77.4203 7.06232 77.5768 7.20134C77.7333 7.34037 77.9327 7.40931 78.1703 7.40931C78.4369 7.40931 78.6862 7.3268 78.9134 7.16292C79.1418 6.9979 79.282 6.7888 79.3342 6.53223C79.3469 6.47459 79.3539 6.40451 79.3539 6.32427Z" fill="black"/>
<path id="d" d="M87.5173 8.15558H86.4393L86.3824 7.29998H86.3488C86.0045 7.95101 85.418 8.27652 84.5937 8.27652C83.9353 8.27652 83.387 8.02448 82.9523 7.52038C82.5176 7.01629 82.3008 6.36187 82.3008 5.55826C82.3008 4.69587 82.5361 3.99737 83.0091 3.46389C83.467 2.96658 84.028 2.71792 84.6958 2.71792C85.4296 2.71792 85.9431 2.95867 86.2352 3.44129H86.2584V0.382812H87.4744V6.72016C87.4744 7.23895 87.4884 7.71704 87.5173 8.15558ZM86.2584 5.90864V5.02025C86.2584 4.86654 86.2468 4.74221 86.2248 4.64727C86.1564 4.36245 86.0092 4.12283 85.7854 3.92956C85.5594 3.73628 85.287 3.63908 84.9728 3.63908C84.5195 3.63908 84.1648 3.81427 83.904 4.16578C83.6455 4.51729 83.5145 4.966 83.5145 5.51418C83.5145 6.04087 83.6385 6.46811 83.8878 6.79702C84.1509 7.1474 84.5056 7.32259 84.9496 7.32259C85.3484 7.32259 85.6672 7.17678 85.9095 6.88405C86.1436 6.61391 86.2584 6.2884 86.2584 5.90864Z" fill="black"/>
<path id="o_3" d="M97.9069 5.44719C97.9069 6.26662 97.6669 6.938 97.187 7.46469C96.6839 8.00609 96.0185 8.27622 95.185 8.27622C94.384 8.27622 93.7452 8.01739 93.2676 7.49747C92.7923 6.97868 92.5547 6.32427 92.5547 5.53535C92.5547 4.71026 92.7993 4.03324 93.2908 3.50767C93.7823 2.9821 94.4431 2.71875 95.2766 2.71875C96.0776 2.71875 96.7233 2.97758 97.2102 3.49637C97.6739 4.00046 97.9069 4.65149 97.9069 5.44719ZM96.648 5.48562C96.648 4.99396 96.539 4.57237 96.3222 4.22086C96.066 3.79588 95.7043 3.5834 95.2314 3.5834C94.7445 3.5834 94.3735 3.79588 94.1173 4.22086C93.8994 4.57237 93.7916 5.00074 93.7916 5.50709C93.7916 5.99875 93.9006 6.42034 94.1173 6.77185C94.3805 7.19682 94.7468 7.40931 95.2198 7.40931C95.6835 7.40931 96.0486 7.19343 96.3106 6.76055C96.5343 6.40225 96.648 5.97728 96.648 5.48562Z" fill="black"/>
<path id="n_2" d="M104.441 8.15526H103.227V5.10356C103.227 4.16319 102.861 3.693 102.125 3.693C101.764 3.693 101.474 3.82185 101.249 4.08068C101.024 4.33951 100.911 4.64468 100.911 4.99393V8.15413H99.6952V4.34968C99.6952 3.88176 99.6813 3.37427 99.6523 2.82497H100.719L100.776 3.65797H100.809C100.952 3.39914 101.163 3.18552 101.439 3.01485C101.769 2.81593 102.137 2.71533 102.541 2.71533C103.05 2.71533 103.474 2.87583 103.812 3.19795C104.232 3.59241 104.441 4.18128 104.441 4.96341V8.15526Z" fill="black"/>
<path id="t" d="M112.617 3.71271H111.279V6.30099C111.279 6.9588 111.517 7.28771 111.988 7.28771C112.206 7.28771 112.387 7.26962 112.529 7.23232L112.56 8.13088C112.32 8.21904 112.005 8.26312 111.617 8.26312C111.137 8.26312 110.764 8.12071 110.493 7.83588C110.222 7.55106 110.088 7.07183 110.088 6.39933V3.71271H109.289V2.82546H110.088V1.84891L111.278 1.49854V2.82433H112.616V3.71271H112.617Z" fill="black"/>
<path id="h" d="M119.047 8.15558H117.831V5.1265C117.831 4.17143 117.464 3.69333 116.731 3.69333C116.167 3.69333 115.782 3.97025 115.571 4.52407C115.535 4.64049 115.515 4.7829 115.515 4.95018V8.15445H114.301V0.382812H115.515V3.59387H115.538C115.92 3.00953 116.469 2.71792 117.179 2.71792C117.682 2.71792 118.098 2.87842 118.429 3.20054C118.84 3.60178 119.047 4.19856 119.047 4.98748V8.15558Z" fill="black"/>
<path id="e" d="M125.683 5.23865C125.683 5.45114 125.666 5.62972 125.637 5.77552H121.994C122.01 6.30222 122.184 6.70346 122.521 6.98151C122.83 7.23016 123.227 7.35449 123.714 7.35449C124.253 7.35449 124.745 7.27085 125.188 7.10244L125.378 7.92527C124.86 8.14454 124.25 8.25417 123.544 8.25417C122.698 8.25417 122.031 8.01117 121.549 7.52516C121.064 7.03915 120.824 6.38699 120.824 5.56869C120.824 4.76507 121.048 4.09596 121.499 3.56248C121.97 2.99283 122.606 2.70801 123.409 2.70801C124.195 2.70801 124.792 2.99283 125.196 3.56248C125.521 4.01458 125.683 4.57406 125.683 5.23865ZM124.523 4.93235C124.533 4.58084 124.453 4.27793 124.288 4.0225C124.077 3.69359 123.756 3.52857 123.321 3.52857C122.925 3.52857 122.601 3.68907 122.354 4.01119C122.153 4.26776 122.033 4.57406 121.994 4.93235H124.523Z" fill="black"/>
</g>
<g id="App Store">
<path id="A" d="M47.36 28.5791H44.7273L43.2852 24.1609H38.2727L36.899 28.5791H34.3359L39.3021 13.5376H42.3694L47.36 28.5791ZM42.8505 22.3073L41.5464 18.3796C41.4084 17.9784 41.1499 17.0335 40.7685 15.5461H40.7222C40.5703 16.1858 40.3257 17.1307 39.9895 18.3796L38.7086 22.3073H42.8505Z" fill="black"/>
<path id="p" d="M60.1305 23.025C60.1305 24.8695 59.6193 26.3276 58.5968 27.3979C57.681 28.3507 56.5438 28.8266 55.1863 28.8266C53.7211 28.8266 52.6685 28.3134 52.0274 27.2871H51.981V33.0006H49.5095V21.3058C49.5095 20.1462 49.4782 18.956 49.418 17.7354H51.5915L51.7295 19.4545H51.7759C52.6001 18.1592 53.8509 17.5127 55.5295 17.5127C56.8417 17.5127 57.9372 18.0179 58.8136 19.0295C59.6923 20.0422 60.1305 21.3736 60.1305 23.025ZM57.6126 23.1131C57.6126 22.0575 57.3692 21.1872 56.88 20.5022C56.3456 19.7879 55.628 19.4307 54.7284 19.4307C54.1187 19.4307 53.5646 19.6297 53.0696 20.0219C52.5734 20.4175 52.2488 20.934 52.097 21.5737C52.0205 21.8721 51.9822 22.1162 51.9822 22.3084V24.1168C51.9822 24.9057 52.2303 25.5714 52.7264 26.1151C53.2226 26.6587 53.8671 26.93 54.66 26.93C55.5909 26.93 56.3154 26.5796 56.8336 25.8811C57.3529 25.1815 57.6126 24.2592 57.6126 23.1131Z" fill="black"/>
<path id="p_2" d="M72.9262 23.025C72.9262 24.8695 72.415 26.3276 71.3914 27.3979C70.4767 28.3507 69.3395 28.8266 67.982 28.8266C66.5168 28.8266 65.4642 28.3134 64.8243 27.2871H64.7779V33.0006H62.3064V21.3058C62.3064 20.1462 62.2751 18.956 62.2148 17.7354H64.3884L64.5264 19.4545H64.5727C65.3958 18.1592 66.6466 17.5127 68.3263 17.5127C69.6374 17.5127 70.7329 18.0179 71.6116 19.0295C72.4868 20.0422 72.9262 21.3736 72.9262 23.025ZM70.4083 23.1131C70.4083 22.0575 70.1637 21.1872 69.6745 20.5022C69.1401 19.7879 68.4249 19.4307 67.5242 19.4307C66.9132 19.4307 66.3603 19.6297 65.8641 20.0219C65.368 20.4175 65.0445 20.934 64.8927 21.5737C64.8173 21.8721 64.7779 22.1162 64.7779 22.3084V24.1168C64.7779 24.9057 65.026 25.5714 65.5198 26.1151C66.016 26.6576 66.6605 26.93 67.4558 26.93C68.3866 26.93 69.1112 26.5796 69.6293 25.8811C70.1487 25.1815 70.4083 24.2592 70.4083 23.1131Z" fill="black"/>
<path id="S" d="M87.2308 24.3621C87.2308 25.6415 86.7752 26.6825 85.8606 27.4861C84.8555 28.3643 83.4563 28.8029 81.6584 28.8029C79.9983 28.8029 78.6675 28.4909 77.6602 27.8659L78.2328 25.8574C79.3179 26.4971 80.5084 26.8181 81.8056 26.8181C82.7365 26.8181 83.461 26.6124 83.9815 26.2033C84.4997 25.7941 84.7582 25.2448 84.7582 24.5599C84.7582 23.9496 84.5449 23.4353 84.1171 23.0182C83.6917 22.6012 82.9811 22.2135 81.9887 21.8552C79.2877 20.873 77.9384 19.4342 77.9384 17.5421C77.9384 16.3056 78.4113 15.2918 79.3584 14.5029C80.3021 13.7128 81.561 13.3184 83.1352 13.3184C84.5391 13.3184 85.7053 13.5568 86.6361 14.0327L86.0183 15.9971C85.1488 15.5359 84.1658 15.3054 83.0657 15.3054C82.1963 15.3054 81.5169 15.5144 81.0301 15.9304C80.6185 16.3022 80.4122 16.7555 80.4122 17.2923C80.4122 17.8869 80.6475 18.3785 81.1205 18.7651C81.532 19.1222 82.2797 19.5088 83.3648 19.9258C84.6921 20.4469 85.667 21.0561 86.2942 21.7546C86.919 22.4508 87.2308 23.3223 87.2308 24.3621Z" fill="black"/>
<path id="t_2" d="M95.4035 19.5436H92.6793V24.8094C92.6793 26.1488 93.1592 26.8179 94.1214 26.8179C94.563 26.8179 94.9294 26.7806 95.2192 26.706L95.2876 28.5359C94.8007 28.7133 94.1596 28.8026 93.3655 28.8026C92.3895 28.8026 91.6267 28.5122 91.0761 27.9323C90.5277 27.3514 90.2518 26.3771 90.2518 25.0084V19.5413H88.6289V17.7329H90.2518V15.747L92.6793 15.0327V17.7329H95.4035V19.5436Z" fill="black"/>
<path id="o_4" d="M107.693 23.0679C107.693 24.735 107.203 26.1038 106.227 27.1741C105.204 28.2761 103.845 28.8254 102.151 28.8254C100.519 28.8254 99.2197 28.2976 98.2506 27.2419C97.2814 26.1863 96.7969 24.8537 96.7969 23.2476C96.7969 21.5669 97.2953 20.1903 98.2958 19.1199C99.2939 18.0484 100.641 17.5127 102.335 17.5127C103.967 17.5127 105.28 18.0405 106.271 19.0973C107.22 20.1225 107.693 21.446 107.693 23.0679ZM105.128 23.1459C105.128 22.1456 104.909 21.2878 104.465 20.5723C103.947 19.7065 103.206 19.2748 102.246 19.2748C101.253 19.2748 100.498 19.7077 99.9801 20.5723C99.5362 21.2889 99.3171 22.1603 99.3171 23.1911C99.3171 24.1914 99.5362 25.0492 99.9801 25.7636C100.515 26.6293 101.261 27.0611 102.224 27.0611C103.168 27.0611 103.909 26.6203 104.443 25.741C104.899 25.0119 105.128 24.145 105.128 23.1459Z" fill="black"/>
<path id="r" d="M115.725 19.8546C115.48 19.8105 115.22 19.7879 114.946 19.7879C114.077 19.7879 113.404 20.1078 112.931 20.7486C112.52 21.3137 112.313 22.0281 112.313 22.8905V28.5813H109.843L109.866 21.151C109.866 19.9009 109.835 18.7628 109.773 17.7365H111.926L112.017 19.8116H112.085C112.346 19.0984 112.757 18.5243 113.321 18.0936C113.871 17.706 114.466 17.5127 115.107 17.5127C115.335 17.5127 115.542 17.5285 115.725 17.5568V19.8546Z" fill="black"/>
<path id="e_2" d="M126.78 22.6455C126.78 23.0773 126.752 23.4412 126.69 23.7385H119.276C119.305 24.81 119.663 25.6294 120.351 26.1945C120.976 26.6997 121.784 26.9529 122.777 26.9529C123.874 26.9529 124.876 26.7822 125.777 26.4398L126.164 28.1126C125.111 28.5601 123.868 28.7828 122.435 28.7828C120.71 28.7828 119.356 28.2878 118.37 27.2988C117.387 26.3098 116.895 24.9818 116.895 23.3158C116.895 21.6803 117.352 20.3183 118.269 19.2321C119.229 18.0725 120.526 17.4927 122.159 17.4927C123.762 17.4927 124.976 18.0725 125.8 19.2321C126.452 20.1533 126.78 21.2926 126.78 22.6455ZM124.424 22.0205C124.44 21.3062 124.279 20.689 123.944 20.168C123.516 19.4977 122.859 19.1632 121.974 19.1632C121.166 19.1632 120.509 19.4898 120.007 20.1454C119.596 20.6664 119.351 21.2915 119.276 22.0194H124.424V22.0205Z" fill="black"/>
</g>
</g>
</svg>
