<svg width="64" height="65" viewBox="0 0 64 65" fill="none" xmlns="http://www.w3.org/2000/svg">
<g id="Link">
<path id="Vector" d="M29.5755 20.6557C30.7103 20.6557 31.6678 20.2656 32.448 19.4855C33.2282 18.7053 33.6182 17.6769 33.6182 16.4003C33.6182 15.1236 33.0508 13.6342 31.9161 11.932C31.3487 11.0809 30.7813 10.3717 30.2139 9.80427C30.072 9.66242 29.8592 9.5915 29.5755 9.5915C29.2918 9.5915 29.0791 9.66242 28.9372 9.80427C28.3698 10.3717 27.8024 11.0809 27.235 11.932C26.1002 13.6342 25.5328 15.1236 25.5328 16.4003C25.5328 17.6769 25.9229 18.7053 26.7031 19.4855C27.4833 20.2656 28.4408 20.6557 29.5755 20.6557ZM29.5755 11.7192C31.1359 13.5633 31.9161 15.1945 31.9161 16.613C31.9161 17.1804 31.6678 17.6769 31.1713 18.1024C30.6749 18.528 30.1429 18.7408 29.5755 18.7408C29.0082 18.7408 28.4762 18.528 27.9797 18.1024C27.4833 17.6769 27.235 17.1804 27.235 16.613C27.235 15.1945 28.0152 13.5633 29.5755 11.7192ZM17.4474 14.0597C18.4404 14.0597 19.3269 13.6697 20.1071 12.8895C20.8873 12.1093 21.2774 11.0809 21.2774 9.80427C21.2774 8.52763 20.7809 7.10913 19.788 5.54879C19.2206 4.6977 18.5822 3.98845 17.873 3.42106C17.7311 3.27921 17.5538 3.20828 17.3411 3.20828C17.1283 3.20828 16.951 3.27921 16.8091 3.42106C16.2417 3.98845 15.6743 4.6977 15.1069 5.54879C13.9721 7.10913 13.4047 8.52763 13.4047 9.80427C13.4047 11.0809 13.7948 12.1093 14.575 12.8895C15.3552 13.6697 16.3127 14.0597 17.4474 14.0597ZM17.4474 5.33602C18.8659 7.03821 19.5752 8.59855 19.5752 10.017C19.5752 10.7263 19.3624 11.2937 18.9369 11.7192C18.5113 12.1448 17.9794 12.3576 17.3411 12.3576C16.7027 12.3576 16.1708 12.1448 15.7453 11.7192C15.3197 11.2937 15.1069 10.7263 15.1069 10.017C15.1069 8.59855 15.8871 7.03821 17.4474 5.33602ZM41.7036 14.0597C42.8384 14.0597 43.7959 13.6697 44.5761 12.8895C45.3563 12.1093 45.7463 11.0809 45.7463 9.80427C45.7463 8.52763 45.179 7.10913 44.0442 5.54879C43.4768 4.6977 42.9094 3.98845 42.342 3.42106C42.2001 3.27921 42.0228 3.20828 41.81 3.20828C41.5973 3.20828 41.4199 3.27921 41.2781 3.42106C40.5689 3.98845 39.9305 4.6977 39.3631 5.54879C38.3702 7.10913 37.8737 8.52763 37.8737 9.80427C37.8737 11.0809 38.2638 12.1093 39.044 12.8895C39.8241 13.6697 40.7107 14.0597 41.7036 14.0597ZM41.7036 5.33602C43.264 7.03821 44.0442 8.59855 44.0442 10.017C44.0442 10.7263 43.8314 11.2937 43.4058 11.7192C42.9803 12.1448 42.4484 12.3576 41.81 12.3576C41.1717 12.3576 40.6398 12.1448 40.2142 11.7192C39.7887 11.2937 39.5759 10.7263 39.5759 10.017C39.5759 8.59855 40.2852 7.03821 41.7036 5.33602ZM49.5763 43.4225H46.5974C45.4627 43.4225 44.5406 43.8481 43.8314 44.6992L42.342 46.4013C41.7746 47.2524 41.7036 48.139 42.1292 49.061C42.5547 49.983 43.264 50.444 44.2569 50.444H48.7252C49.5763 50.444 50.3564 50.0894 51.0657 49.3802C51.7749 48.6709 52.1296 47.8908 52.1296 47.0397V45.763C52.1296 45.1956 51.8813 44.6637 51.3848 44.1672C50.8884 43.6708 50.2855 43.4225 49.5763 43.4225ZM50.2146 47.0397C50.2146 47.4652 50.0727 47.8198 49.789 48.1035C49.5053 48.3872 49.1507 48.5291 48.7252 48.5291H44.2569C43.9732 48.5291 43.7959 48.4227 43.725 48.2099C43.6541 47.9971 43.6895 47.8198 43.8314 47.678L45.3208 45.763C45.6045 45.3375 46.03 45.1247 46.5974 45.1247H49.5763C50.0018 45.1247 50.2146 45.3375 50.2146 45.763V47.0397ZM15.3197 44.6992C14.6105 43.8481 13.6884 43.4225 12.5536 43.4225H9.57482C8.86557 43.4225 8.26271 43.6708 7.76624 44.1672C7.26977 44.6637 7.02153 45.1956 7.02153 45.763V47.0397C7.02153 47.8908 7.37616 48.6709 8.0854 49.3802C8.79465 50.0894 9.57482 50.444 10.4259 50.444H14.8942C15.8871 50.444 16.5963 49.983 17.0219 49.061C17.4474 48.139 17.3765 47.2524 16.8091 46.4013L15.3197 44.6992ZM15.5325 48.3163C15.3906 48.4582 15.1779 48.5291 14.8942 48.5291H10.4259C10.0004 48.5291 9.64574 48.3872 9.36204 48.1035C9.07835 47.8198 8.9365 47.4652 8.9365 47.0397V45.763C8.9365 45.3375 9.14927 45.1247 9.57482 45.1247H12.5536C13.121 45.1247 13.5466 45.3375 13.8303 45.763L15.3197 47.678C15.4616 47.8198 15.5325 48.0326 15.5325 48.3163ZM56.8106 34.2732H54.8956C53.9027 34.2732 53.0516 34.6988 52.3423 35.5499L51.0657 37.2521L47.6613 26.1878C47.5195 25.4786 47.1294 24.9112 46.4911 24.4857C45.8527 24.0601 45.179 23.8473 44.4697 23.8473H14.6814C13.9721 23.8473 13.2984 24.0601 12.66 24.4857C12.0217 24.9112 11.6316 25.4786 11.4898 26.1878L8.0854 37.2521L6.80876 35.5499C6.09951 34.6988 5.24842 34.2732 4.25547 34.2732H2.34051C1.63127 34.2732 1.06387 34.5215 0.638321 35.018C0.212774 35.5144 0 36.0464 0 36.6138V37.8904C0 38.5996 0.212774 39.238 0.638321 39.8054C1.06387 40.3728 1.63127 40.6565 2.34051 40.6565L5.10657 41.2948C4.53917 41.8622 4.25547 42.5714 4.25547 43.4225V52.5718C4.25547 53.4229 4.53917 54.1676 5.10657 54.8059C5.67397 55.4442 6.31229 55.8343 7.02153 55.9762V60.0189C7.02153 60.7281 7.26977 61.2955 7.76624 61.7211C8.26271 62.1466 8.86557 62.3594 9.57482 62.3594H14.8942C15.4616 62.3594 15.9935 62.1466 16.49 61.7211C16.9864 61.2955 17.2347 60.7281 17.2347 60.0189V55.9762H41.9164V60.0189C41.9164 60.7281 42.1647 61.2955 42.6611 61.7211C43.1576 62.1466 43.6895 62.3594 44.2569 62.3594H49.5763C50.2855 62.3594 50.8884 62.1466 51.3848 61.7211C51.8813 61.2955 52.1296 60.7281 52.1296 60.0189V55.9762C52.8388 55.8343 53.4771 55.4442 54.0445 54.8059C54.6119 54.1676 54.8956 53.4229 54.8956 52.5718V43.4225C54.8956 42.5714 54.6119 41.8622 54.0445 41.2948L56.8106 40.6565C57.5198 40.6565 58.0872 40.3728 58.5128 39.8054C58.9383 39.238 59.1511 38.5996 59.1511 37.8904V36.6138C59.1511 36.0464 58.9383 35.5144 58.5128 35.018C58.0872 34.5215 57.5198 34.2732 56.8106 34.2732ZM13.192 26.6134C13.192 26.3297 13.3338 26.0815 13.6175 25.8687C13.9012 25.6559 14.2558 25.5495 14.6814 25.5495H44.4697C44.8953 25.5495 45.2499 25.6559 45.5336 25.8687C45.8173 26.0815 45.9591 26.3297 45.9591 26.6134L50.0018 39.8054H47.8741L44.4697 28.1028C44.3279 27.6773 44.0442 27.4645 43.6186 27.4645H15.5325C15.1069 27.4645 14.8232 27.6773 14.6814 28.1028L11.277 39.8054H9.14927L13.192 26.6134ZM45.9591 39.5926C40.8526 39.167 35.3914 38.9543 29.5755 38.9543C23.7597 38.9543 18.2985 39.167 13.192 39.5926L16.1708 29.3795H42.9803L45.9591 39.5926ZM1.70219 37.8904V36.6138C1.70219 36.1882 1.91496 35.9754 2.34051 35.9754H4.25547C4.82287 35.9754 5.24842 36.1882 5.53212 36.6138L7.65985 39.167L7.44708 39.8054L2.55328 38.9543C2.26959 38.9543 2.05681 38.8479 1.91496 38.6351C1.77311 38.4223 1.70219 38.1741 1.70219 37.8904ZM15.5325 60.0189C15.5325 60.4444 15.3197 60.6572 14.8942 60.6572H9.57482C9.14927 60.6572 8.9365 60.4444 8.9365 60.0189V55.9762H15.5325V60.0189ZM23.1923 48.7419H35.9588V50.6568H23.1923V48.7419ZM35.9588 47.0397H23.1923V45.763C23.1923 45.3375 23.4051 45.1247 23.8307 45.1247H35.3204C35.746 45.1247 35.9588 45.3375 35.9588 45.763V47.0397ZM23.1923 52.359H35.9588V54.274H23.1923V52.359ZM49.5763 60.6572H44.2569C43.8314 60.6572 43.6186 60.4444 43.6186 60.0189V55.9762H50.2146V60.0189C50.2146 60.4444 50.0018 60.6572 49.5763 60.6572ZM53.1934 52.5718C53.1934 52.9973 53.0161 53.3874 52.6615 53.742C52.3069 54.0967 51.9168 54.274 51.4912 54.274H37.8737V45.763C37.8737 45.1956 37.6255 44.6637 37.129 44.1672C36.6325 43.6708 36.0297 43.4225 35.3204 43.4225H23.8307C23.1214 43.4225 22.5186 43.6708 22.0221 44.1672C21.5256 44.6637 21.2774 45.1956 21.2774 45.763V54.274H7.65985C7.23431 54.274 6.84422 54.0967 6.4896 53.742C6.13498 53.3874 5.95766 52.9973 5.95766 52.5718V43.4225C5.95766 42.997 6.09951 42.6423 6.38321 42.3586C6.66691 42.0749 7.02153 41.9331 7.44708 41.9331C14.8232 41.082 22.1994 40.6565 29.5755 40.6565C36.9517 40.6565 44.3279 41.082 51.704 41.9331C52.1296 41.9331 52.4842 42.0749 52.7679 42.3586C53.0516 42.6423 53.1934 42.997 53.1934 43.4225V52.5718ZM57.4489 37.8904C57.4489 38.1741 57.378 38.4223 57.2361 38.6351C57.0943 38.8479 56.8815 38.9543 56.5978 38.9543L51.704 39.8054L51.4912 39.167L53.619 36.6138C53.9027 36.1882 54.3282 35.9754 54.8956 35.9754H56.8106C57.2361 35.9754 57.4489 36.1882 57.4489 36.6138V37.8904Z" fill="#E8F0F8"/>
</g>
</svg>
