<svg id="Layer_1" data-name="Layer 1" xmlns="http://www.w3.org/2000/svg" viewBox="0 0 64 64"><defs><style>.cls-1{opacity:0;}.cls-2{fill:none;}.cls-3{fill:#e8f0f8;}</style></defs><rect class="cls-1" width="64" height="64"/><rect class="cls-2" width="64.08" height="64"/><path class="cls-3" d="M32,18.88a4.22,4.22,0,0,0,3.11-1.27,4.53,4.53,0,0,0,1.26-3.34,9.08,9.08,0,0,0-1.84-4.83,14.91,14.91,0,0,0-1.84-2.3,1.15,1.15,0,0,0-1.38,0,14.91,14.91,0,0,0-1.84,2.3,9.08,9.08,0,0,0-1.84,4.83,4.53,4.53,0,0,0,1.26,3.34A4.22,4.22,0,0,0,32,18.88Zm0-9.67c1.69,2,2.53,3.76,2.53,5.29a2.11,2.11,0,0,1-.8,1.62,2.51,2.51,0,0,1-3.46,0,2.11,2.11,0,0,1-.8-1.62C29.47,13,30.31,11.2,32,9.21ZM18.88,11.74a4,4,0,0,0,2.88-1.27A4.5,4.5,0,0,0,23,7.14a8.84,8.84,0,0,0-1.61-4.61A9.83,9.83,0,0,0,19.34.23.82.82,0,0,0,18.76,0a.78.78,0,0,0-.57.23,14.34,14.34,0,0,0-1.84,2.3A8.11,8.11,0,0,0,14.5,7.14a4.51,4.51,0,0,0,1.27,3.33A4.2,4.2,0,0,0,18.88,11.74Zm0-9.44a8.26,8.26,0,0,1,2.3,5.07,2.5,2.5,0,0,1-.69,1.84,2.5,2.5,0,0,1-3.45,0,2.5,2.5,0,0,1-.69-1.84Q16.35,5.06,18.88,2.3Zm26.24,9.44a4.2,4.2,0,0,0,3.11-1.27A4.51,4.51,0,0,0,49.5,7.14a8.11,8.11,0,0,0-1.85-4.61A14.34,14.34,0,0,0,45.81.23.78.78,0,0,0,45.24,0a.82.82,0,0,0-.58.23,9.83,9.83,0,0,0-2.07,2.3A8.84,8.84,0,0,0,41,7.14a4.5,4.5,0,0,0,1.26,3.33A4,4,0,0,0,45.12,11.74Zm0-9.44q2.54,2.76,2.53,5.07A2.5,2.5,0,0,1,47,9.21a2.5,2.5,0,0,1-3.45,0,2.5,2.5,0,0,1-.69-1.84A8.26,8.26,0,0,1,45.12,2.3Zm8.52,41.21H50.42a3.73,3.73,0,0,0-3,1.38l-1.61,1.84a2.79,2.79,0,0,0-.23,2.88,2.37,2.37,0,0,0,2.31,1.5h4.83A3.55,3.55,0,0,0,55.25,50a3.51,3.51,0,0,0,1.15-2.53V46a2.42,2.42,0,0,0-.8-1.72A2.66,2.66,0,0,0,53.64,43.51Zm.69,3.92a1.57,1.57,0,0,1-.46,1.15,1.59,1.59,0,0,1-1.15.46H47.89a.54.54,0,0,1-.58-.35.51.51,0,0,1,.11-.57L49,46a1.53,1.53,0,0,1,1.38-.69h3.22a.61.61,0,0,1,.69.69ZM16.58,44.89a3.73,3.73,0,0,0-3-1.38H10.36a2.66,2.66,0,0,0-2,.81A2.42,2.42,0,0,0,7.6,46v1.39A3.51,3.51,0,0,0,8.75,50a3.55,3.55,0,0,0,2.53,1.15h4.83a2.37,2.37,0,0,0,2.31-1.5,2.79,2.79,0,0,0-.23-2.88Zm.23,3.92a1,1,0,0,1-.7.23H11.28a1.59,1.59,0,0,1-1.15-.46,1.57,1.57,0,0,1-.46-1.15V46a.61.61,0,0,1,.69-.69h3.22A1.53,1.53,0,0,1,15,46l1.62,2.08A.94.94,0,0,1,16.81,48.81Zm44.66-15.2H59.4A3.5,3.5,0,0,0,56.63,35l-1.38,1.84-3.68-12A2.86,2.86,0,0,0,50.3,23a3.88,3.88,0,0,0-2.18-.69H15.88A3.88,3.88,0,0,0,13.7,23a2.86,2.86,0,0,0-1.27,1.84l-3.68,12L7.37,35A3.5,3.5,0,0,0,4.6,33.61H2.53a2.29,2.29,0,0,0-1.84.81A2.59,2.59,0,0,0,0,36.14v1.39A3.39,3.39,0,0,0,.69,39.6a2.19,2.19,0,0,0,1.84.92l3,.69a3.1,3.1,0,0,0-.93,2.3v9.9a3.51,3.51,0,0,0,.93,2.42A3.69,3.69,0,0,0,7.6,57.09v4.38a2.31,2.31,0,0,0,.8,1.84,2.91,2.91,0,0,0,2,.69h5.75a2.61,2.61,0,0,0,1.73-.69,2.29,2.29,0,0,0,.81-1.84V57.09h26.7v4.38a2.29,2.29,0,0,0,.81,1.84,2.61,2.61,0,0,0,1.73.69h5.75a2.91,2.91,0,0,0,2-.69,2.31,2.31,0,0,0,.8-1.84V57.09a3.75,3.75,0,0,0,2.08-1.26,3.55,3.55,0,0,0,.92-2.42v-9.9a3.13,3.13,0,0,0-.92-2.3l3-.69a2.19,2.19,0,0,0,1.84-.92A3.39,3.39,0,0,0,64,37.53V36.14a2.59,2.59,0,0,0-.69-1.72A2.29,2.29,0,0,0,61.47,33.61Zm-47.2-8.29a1,1,0,0,1,.46-.8,1.87,1.87,0,0,1,1.15-.35H48.12a1.87,1.87,0,0,1,1.15.35,1,1,0,0,1,.46.8L54.1,39.6H51.8L48.12,26.94a.93.93,0,0,0-.93-.7H16.81a.93.93,0,0,0-.93.7L12.2,39.6H9.9Zm35.46,14q-8.29-.69-17.73-.69t-17.73.69l3.23-11h29ZM1.84,37.53V36.14a.61.61,0,0,1,.69-.69H4.6A1.56,1.56,0,0,1,6,36.14l2.3,2.77-.23.69-5.3-.92a.79.79,0,0,1-.69-.35A1.44,1.44,0,0,1,1.84,37.53Zm15,23.94a.61.61,0,0,1-.7.69H10.36a.61.61,0,0,1-.69-.69V57.09h7.14Zm8.28-12.2H38.91v2.07H25.09Zm13.82-1.84H25.09V46a.61.61,0,0,1,.69-.69H38.22a.61.61,0,0,1,.69.69ZM25.09,53.18H38.91v2.07H25.09Zm28.55,9H47.89a.61.61,0,0,1-.7-.69V57.09h7.14v4.38A.61.61,0,0,1,53.64,62.16Zm3.91-8.75a2,2,0,0,1-1.84,1.84H41V46a2.4,2.4,0,0,0-.81-1.72,2.64,2.64,0,0,0-2-.81H25.78a2.66,2.66,0,0,0-2,.81A2.4,2.4,0,0,0,23,46v9.21H8.29A1.79,1.79,0,0,1,7,54.68a1.79,1.79,0,0,1-.57-1.27v-9.9a1.55,1.55,0,0,1,.46-1.15,1.54,1.54,0,0,1,1.15-.46,208.34,208.34,0,0,1,47.88,0,1.54,1.54,0,0,1,1.15.46,1.55,1.55,0,0,1,.46,1.15Zm4.61-15.88a1.44,1.44,0,0,1-.23.8.79.79,0,0,1-.69.35l-5.3.92-.23-.69L58,36.14a1.56,1.56,0,0,1,1.39-.69h2.07a.61.61,0,0,1,.69.69Z"/></svg>