<svg width="12" height="13" viewBox="0 0 12 13" fill="none" xmlns="http://www.w3.org/2000/svg">
<path d="M5.78885 0.773561C8.91808 0.773561 11.4374 3.29286 11.4374 6.42209C11.4374 9.55133 8.91808 12.0706 5.78885 12.0706C2.65961 12.0706 0.140314 9.55133 0.140314 6.42209C0.140314 3.29286 2.65961 0.773561 5.78885 0.773561ZM4.25075 8.86183C4.48942 9.07399 4.83416 9.07399 5.04632 8.86183L9.34238 4.56577C9.58105 4.3271 9.58105 3.98235 9.34238 3.7702C9.13023 3.53153 8.75896 3.53153 8.54681 3.7702L4.64853 7.64196L3.03088 6.02431C2.79221 5.81216 2.44746 5.81216 2.23531 6.02431C1.99664 6.23646 1.99664 6.60772 2.23531 6.81988L4.25075 8.86183Z" fill="#747A7B"/>
</svg>
