<svg width="21" height="21" viewBox="0 0 21 21" fill="none" xmlns="http://www.w3.org/2000/svg">
<mask id="mask0_86_12118" style="mask-type:alpha" maskUnits="userSpaceOnUse" x="0" y="0" width="21" height="21">
<rect width="20.5" height="20.5" fill="#D9D9D9"/>
</mask>
<g mask="url(#mask0_86_12118)">
<path d="M1.70703 20.5007V17.084H18.7904V20.5007H1.70703ZM5.1237 13.6673H6.31953L12.982 7.02617L11.7648 5.80898L5.1237 12.4715V13.6673ZM3.41536 15.3757V11.7454L12.982 2.20013C13.1386 2.04353 13.3201 1.92253 13.5266 1.83711C13.733 1.75169 13.9501 1.70898 14.1779 1.70898C14.4056 1.70898 14.6263 1.75169 14.8398 1.83711C15.0534 1.92253 15.2456 2.05065 15.4164 2.22148L16.5909 3.41732C16.7617 3.57391 16.8863 3.75898 16.9646 3.97253C17.0429 4.18607 17.082 4.40673 17.082 4.63451C17.082 4.84805 17.0429 5.05803 16.9646 5.26445C16.8863 5.47088 16.7617 5.65951 16.5909 5.83034L7.04557 15.3757H3.41536Z" fill="#2D2D2D"/>
</g>
</svg>
