<svg width="19" height="15" viewBox="0 0 19 15" fill="none" xmlns="http://www.w3.org/2000/svg">
<path d="M17.8346 2.94946V11.2828C17.8346 11.8353 17.6151 12.3652 17.2244 12.7559C16.8337 13.1466 16.3038 13.3661 15.7513 13.3661H3.2513C2.69877 13.3661 2.16886 13.1466 1.77816 12.7559C1.38746 12.3652 1.16797 11.8353 1.16797 11.2828V2.94946" stroke="white" stroke-width="1.4" stroke-linecap="round" stroke-linejoin="round"/>
<path d="M17.8346 2.94954C17.8346 2.39701 17.6151 1.86711 17.2244 1.47641C16.8337 1.0857 16.3038 0.866211 15.7513 0.866211H3.2513C2.69877 0.866211 2.16886 1.0857 1.77816 1.47641C1.38746 1.86711 1.16797 2.39701 1.16797 2.94954L8.39714 7.46343C8.72824 7.67038 9.11084 7.7801 9.5013 7.7801C9.89176 7.7801 10.2744 7.67038 10.6055 7.46343L17.8346 2.94954Z" stroke="white" stroke-width="1.4" stroke-linecap="round" stroke-linejoin="round"/>
</svg>
