<svg id="Layer_1" data-name="Layer 1" xmlns="http://www.w3.org/2000/svg" xmlns:xlink="http://www.w3.org/1999/xlink" viewBox="0 0 64 64"><defs><style>.cls-1{fill:none;}.cls-2{opacity:0;}.cls-3{clip-path:url(#clip-path);}.cls-4{fill:#e8f0f8;}</style><clipPath id="clip-path"><rect class="cls-1" width="64" height="64"/></clipPath></defs><rect class="cls-2" width="64" height="64"/><rect class="cls-1" width="64.08" height="64"/><g class="cls-3"><path class="cls-4" d="M63.15,60.8H59.31V20.27a.83.83,0,0,0-.22-.64.87.87,0,0,0-.64-.22h-3.2a1.07,1.07,0,0,0-.53.22.72.72,0,0,0-.32.64,1,1,0,0,0,.32.74.83.83,0,0,0,.53.32h2.14V60.8H48.85V21.33H51.2a1.09,1.09,0,0,0,1.07-1.06.72.72,0,0,0-.32-.64,1.37,1.37,0,0,0-.75-.22H47.79a1.09,1.09,0,0,0-.54.22.72.72,0,0,0-.32.64v5.54h-9.6a1.09,1.09,0,0,0-1.06,1.07v6.19h-9.6a.87.87,0,0,0-.64.21.84.84,0,0,0-.22.64v6.19h-9.6a1.31,1.31,0,0,0-.74.21.71.71,0,0,0-.32.64v4.91H5.55a.7.7,0,0,0-.64.32,1.25,1.25,0,0,0-.22.75v5.54a.83.83,0,0,0,.22.64.87.87,0,0,0,.64.22,1.32,1.32,0,0,0,.74-.22.7.7,0,0,0,.32-.64V47.79h8.54v13H6.61V56.53a.72.72,0,0,0-.32-.64,1.31,1.31,0,0,0-.74-.21.87.87,0,0,0-.64.21.86.86,0,0,0-.22.64V60.8H.85a.88.88,0,0,0-.53.32,1,1,0,0,0-.32.75.73.73,0,0,0,.32.64,1,1,0,0,0,.53.21h62.3a1,1,0,0,0,.53-.21.73.73,0,0,0,.32-.64,1,1,0,0,0-.32-.75A.88.88,0,0,0,63.15,60.8Zm-46.08-19h8.74v19H17.07ZM27.73,41V34.77h8.54v26H27.73ZM38.19,60.8V27.73h8.74V60.8ZM6.4,41.81a2.82,2.82,0,0,0,1.71-.64L50.35,11.31a3.51,3.51,0,0,0,.53,1.92,2.47,2.47,0,0,0,1.81,1.06h.43a2.65,2.65,0,0,0,1.81-.64,2.87,2.87,0,0,0,1-1.7L57,5.55a2.62,2.62,0,0,0-.43-2,2.69,2.69,0,0,0-1.92-1.17L48.43,1.28a3,3,0,0,0-2.24.43,2.31,2.31,0,0,0-1.07,1.81,3.17,3.17,0,0,0,.43,2,3.23,3.23,0,0,0,1.6,1.28l-16,11.09a1.29,1.29,0,0,0-.32.64.92.92,0,0,0,.1.75,1.07,1.07,0,0,0,.64.42.5.5,0,0,0,.64-.32L49.92,7A.87.87,0,0,0,50.35,6a.85.85,0,0,0-.86-.64l-1.7-.42a.72.72,0,0,1-.64-.32,1.27,1.27,0,0,1-.22-.75.73.73,0,0,1,.32-.64.72.72,0,0,1,.75,0l6.4,1.07A.69.69,0,0,1,55,5.33L54,11.52a.75.75,0,0,1-.85.85h-.21a.7.7,0,0,1-.64-.32.66.66,0,0,1,0-.74l.21-1.92a.73.73,0,0,0-.32-1,1,1,0,0,0-1.17.1L7,39.68a.88.88,0,0,1-.64.21.71.71,0,0,1-.64-.32,1.31,1.31,0,0,1-.21-.74A.68.68,0,0,1,6,38.19L28.16,22.4a.69.69,0,0,0,.43-.64,1.3,1.3,0,0,0-.22-.75.63.63,0,0,0-.53-.32,1.82,1.82,0,0,0-.75.22L4.91,36.69a2.6,2.6,0,0,0-1.28,1.82,2.84,2.84,0,0,0,.53,2.24A2.55,2.55,0,0,0,6.4,41.81Z"/></g></svg>