<svg width="64" height="65" viewBox="0 0 64 65" fill="none" xmlns="http://www.w3.org/2000/svg">
<g id="Link" clip-path="url(#clip0_86_2279)">
<path id="Vector" d="M62.981 61.5089H59.1511V21.0819C59.1511 20.7982 59.0802 20.5854 58.9383 20.4435C58.7965 20.3017 58.5837 20.2308 58.3 20.2308H55.1084C54.9665 20.2308 54.7892 20.3017 54.5765 20.4435C54.3637 20.5854 54.2573 20.7982 54.2573 21.0819C54.2573 21.3656 54.3637 21.6138 54.5765 21.8266C54.7892 22.0393 54.9665 22.1457 55.1084 22.1457H57.2361V61.5089H48.7252V22.1457H51.0657C51.3494 22.1457 51.5976 22.0393 51.8104 21.8266C52.0232 21.6138 52.1296 21.3656 52.1296 21.0819C52.1296 20.7982 52.0232 20.5854 51.8104 20.4435C51.5976 20.3017 51.3494 20.2308 51.0657 20.2308H47.6613C47.5195 20.2308 47.3422 20.3017 47.1294 20.4435C46.9166 20.5854 46.8102 20.7982 46.8102 21.0819V26.614H37.2354C36.9517 26.614 36.7035 26.7204 36.4907 26.9331C36.2779 27.1459 36.1715 27.3941 36.1715 27.6778V33.8483H26.5967C26.313 33.8483 26.1002 33.9192 25.9584 34.0611C25.8165 34.2029 25.7456 34.4157 25.7456 34.6994V40.8698H16.1708C15.8871 40.8698 15.6389 40.9407 15.4261 41.0826C15.2133 41.2244 15.1069 41.4372 15.1069 41.7209V46.6147H5.53212C5.24842 46.6147 5.03564 46.7211 4.8938 46.9339C4.75195 47.1466 4.68102 47.3949 4.68102 47.6786V53.2107C4.68102 53.4944 4.75195 53.7072 4.8938 53.849C5.03564 53.9909 5.24842 54.0618 5.53212 54.0618C5.81581 54.0618 6.06405 53.9909 6.27682 53.849C6.4896 53.7072 6.59598 53.4944 6.59598 53.2107V48.5297H15.1069V61.5089H6.59598V57.2534C6.59598 56.9697 6.4896 56.7569 6.27682 56.6151C6.06405 56.4732 5.81581 56.4023 5.53212 56.4023C5.24842 56.4023 5.03564 56.4732 4.8938 56.6151C4.75195 56.7569 4.68102 56.9697 4.68102 57.2534V61.5089H0.851095C0.709246 61.5089 0.531934 61.6153 0.319161 61.828C0.106387 62.0408 0 62.289 0 62.5727C0 62.8564 0.106387 63.0692 0.319161 63.2111C0.531934 63.3529 0.709246 63.4238 0.851095 63.4238H62.981C63.1229 63.4238 63.3002 63.3529 63.513 63.2111C63.7257 63.0692 63.8321 62.8564 63.8321 62.5727C63.8321 62.289 63.7257 62.0408 63.513 61.828C63.3002 61.6153 63.1229 61.5089 62.981 61.5089ZM17.0219 42.572H25.7456V61.5089H17.0219V42.572ZM27.6606 41.7209V35.5505H36.1715V61.5089H27.6606V41.7209ZM38.0865 61.5089V34.6994V28.5289H46.8102V61.5089H38.0865ZM6.38321 42.572C6.95061 42.572 7.518 42.3592 8.0854 41.9337L50.2146 12.1454C50.2146 12.8546 50.3919 13.4929 50.7465 14.0603C51.1012 14.6277 51.704 14.9823 52.5551 15.1242H52.9807C53.6899 15.1242 54.2928 14.9114 54.7892 14.4859C55.2857 14.0603 55.6049 13.4929 55.7467 12.7837L56.8106 6.40047C56.9524 5.69123 56.8106 5.01744 56.385 4.37912C55.9595 3.7408 55.3212 3.35072 54.4701 3.20887L48.2996 2.145C47.4485 2.00315 46.7038 2.145 46.0655 2.57055C45.4272 2.99609 45.0726 3.59895 45.0016 4.37912C44.9307 5.15929 45.0726 5.83308 45.4272 6.40047C45.7818 6.96787 46.3137 7.39342 47.023 7.67712L31.065 18.7413C30.9231 18.8832 30.8167 19.096 30.7458 19.3797C30.6749 19.6634 30.7103 19.9116 30.8522 20.1244C30.994 20.3372 31.2068 20.479 31.4905 20.5499C31.7742 20.6208 31.987 20.5145 32.1288 20.2308L49.789 7.88989C50.2146 7.60619 50.3564 7.25157 50.2146 6.82602C50.0727 6.40047 49.789 6.1877 49.3635 6.1877L47.6613 5.76215C47.3776 5.76215 47.1648 5.65577 47.023 5.44299C46.8811 5.23022 46.8102 4.98198 46.8102 4.69828C46.8102 4.41459 46.9166 4.20181 47.1294 4.05996C47.3422 3.91811 47.5904 3.91811 47.8741 4.05996L54.2573 5.12383C54.541 5.12383 54.7538 5.23022 54.8956 5.44299C55.0375 5.65577 55.0375 5.904 54.8956 6.1877L53.8317 12.3581C53.8317 12.9255 53.548 13.2092 52.9807 13.2092H52.7679C52.4842 13.2092 52.2714 13.1028 52.1296 12.8901C51.9877 12.6773 51.9877 12.4291 52.1296 12.1454L52.3423 10.2304C52.4842 9.80485 52.3778 9.48569 52.0232 9.27292C51.6685 9.06015 51.2785 9.09561 50.8529 9.37931L7.02153 40.4443C6.87968 40.5861 6.66691 40.657 6.38321 40.657C6.09951 40.657 5.88674 40.5507 5.74489 40.3379C5.60304 40.1251 5.53212 39.8769 5.53212 39.5932C5.53212 39.3095 5.67397 39.0967 5.95766 38.9549L28.0861 23.2096C28.3698 23.0677 28.5117 22.855 28.5117 22.5713C28.5117 22.2876 28.4408 22.0393 28.2989 21.8266C28.1571 21.6138 27.9797 21.5074 27.767 21.5074C27.5542 21.5074 27.306 21.5783 27.0223 21.7202L4.8938 37.4654C4.18455 37.891 3.759 38.4938 3.61715 39.274C3.4753 40.0542 3.65262 40.7989 4.14909 41.5081C4.64556 42.2174 5.39027 42.572 6.38321 42.572Z" fill="#E8F0F8"/>
</g>
<defs>
<clipPath id="clip0_86_2279">
<rect width="63.8321" height="63.8321" fill="white" transform="matrix(1 0 0 -1 0 64.6992)"/>
</clipPath>
</defs>
</svg>
