<svg width="16" height="19" viewBox="0 0 16 19" fill="none" xmlns="http://www.w3.org/2000/svg">
<path d="M14.8621 8.65553C14.8621 14.0344 9.35296 17.3481 8.20807 17.9793C8.14464 18.0143 8.07339 18.0326 8.00096 18.0326C7.92852 18.0326 7.85727 18.0143 7.79385 17.9793C6.6481 17.3481 1.14062 14.0344 1.14062 8.65553C1.14062 4.36755 3.71341 1.36597 8.00139 1.36597C12.2894 1.36597 14.8621 4.36755 14.8621 8.65553Z" stroke="white" stroke-width="1.4" stroke-linecap="round" stroke-linejoin="round"/>
<path d="M4.57031 8.22677C4.57031 9.13656 4.93173 10.0091 5.57505 10.6524C6.21837 11.2957 7.0909 11.6571 8.00069 11.6571C8.91049 11.6571 9.78302 11.2957 10.4263 10.6524C11.0697 10.0091 11.4311 9.13656 11.4311 8.22677C11.4311 7.31697 11.0697 6.44444 10.4263 5.80112C9.78302 5.1578 8.91049 4.79639 8.00069 4.79639C7.0909 4.79639 6.21837 5.1578 5.57505 5.80112C4.93173 6.44444 4.57031 7.31697 4.57031 8.22677V8.22677Z" stroke="white" stroke-width="1.4" stroke-linecap="round" stroke-linejoin="round"/>
</svg>
