<svg width="219" height="230" viewBox="0 0 219 230" fill="none" xmlns="http://www.w3.org/2000/svg">
<g id="Group">
<path id="Vector" d="M60.9225 65.7604L55.4453 67.9941L73.88 113.318L79.3572 111.085L60.9225 65.7604Z" fill="#3F3D3D"/>
<path id="Vector_2" d="M54.2238 77.101C65.227 77.101 74.1469 68.1691 74.1469 57.1511C74.1469 46.1331 65.227 37.2012 54.2238 37.2012C43.2206 37.2012 34.3008 46.1331 34.3008 57.1511C34.3008 68.1691 43.2206 77.101 54.2238 77.101Z" fill="#B2B1B1"/>
<path id="Vector_3" d="M54.2209 70.0861C61.3544 70.0861 67.1372 64.2955 67.1372 57.1524C67.1372 50.0093 61.3544 44.2188 54.2209 44.2188C47.0875 44.2188 41.3047 50.0093 41.3047 57.1524C41.3047 64.2955 47.0875 70.0861 54.2209 70.0861Z" fill="#777676"/>
<path id="Vector_4" d="M57.5705 50.8658L55.0773 51.9003C55.6035 52.1843 56.0563 52.5874 56.3997 53.0774L58.172 52.3555L58.9572 54.2866L57.1206 55.036C57.2036 55.7662 57.0761 56.5049 56.7532 57.1648C56.115 58.4844 54.788 59.4637 53.6677 60.0522L55.1875 60.7005L55.7247 60.9304L57.3134 61.6017L57.8506 61.8316L59.4347 62.4753L59.972 62.7052L61.68 63.4316L62.2127 63.6569L62.4974 63.7765L59.7745 64.8891L58.9894 64.5535L58.4521 64.3282L56.868 63.6523L56.3308 63.4224L54.7421 62.7512L54.2049 62.5213L52.5198 61.804L51.9825 61.5787L50.2377 60.8385L49.7005 59.5097L49.8796 59.4361C51.6887 58.7373 53.6447 57.9005 54.563 56.7326C54.6892 56.5786 54.7971 56.4104 54.8844 56.2315C54.9315 56.127 54.9714 56.0195 55.0038 55.9096C55.006 55.8959 55.006 55.8819 55.0038 55.8682L48.8235 58.3878L48.0383 56.4981L54.3518 53.9234C53.6539 53.3762 52.4371 53.2383 51.0183 53.5647L47.4414 55.0222L46.6562 53.0912L56.79 48.9531L57.5705 50.8658Z" fill="white"/>
<path id="Vector_5" d="M125.609 67.002H91.3789V75.2642H125.609V67.002Z" fill="#399165"/>
<path id="Vector_6" d="M95.6797 55.215V78.2409C95.6797 78.2409 109.193 89.1377 122.008 80.7007V52.9299C122.008 52.9299 109.546 44.1435 95.6797 55.215Z" fill="#B77F76" stroke="#020202" stroke-width="0.459781" stroke-miterlimit="10"/>
<path id="Vector_7" d="M66.9551 81.9349C69.7101 80.2153 77.7822 77.5762 86.3318 75.9577C95.515 74.2198 102.692 71.3921 108.831 71.9714C118.143 72.8542 124.686 77.6727 130.205 76.2014C143.378 72.6933 150.734 76.8129 150.734 76.8129L150.872 114.189L160.216 191.965C160.216 191.965 53.0609 187.34 50.7559 185.827C48.4509 184.314 60.8115 134.226 59.7784 109.177C59.1218 93.5214 57.9556 87.5488 66.9551 81.9349Z" fill="#76B899"/>
<path id="Vector_8" d="M113.428 71.8926H103.23V197.96H113.428V71.8926Z" fill="#3AA06A" stroke="#020202" stroke-width="0.459781" stroke-miterlimit="10"/>
<path id="Vector_9" d="M123.398 96.8686V109.834L133.041 114.014L141.682 109.834V96.8686C141.682 96.8686 138.858 94.487 132.54 94.3398C126.222 94.1927 123.398 96.8686 123.398 96.8686Z" fill="#3AA06A" stroke="#020202" stroke-width="0.459781" stroke-miterlimit="10"/>
<path id="Vector_10" d="M121.184 102.674H88.2943C76.5101 102.674 66.957 112.24 66.957 124.04V207.863C66.957 219.663 76.5101 229.229 88.2943 229.229H121.184C132.968 229.229 142.521 219.663 142.521 207.863V124.04C142.521 112.24 132.968 102.674 121.184 102.674Z" fill="#3C464D" stroke="black" stroke-width="0.459781" stroke-miterlimit="10"/>
<path id="Vector_11" d="M96.2692 113.338H83.5458C80.8325 113.338 78.6328 115.54 78.6328 118.258V118.262C78.6328 120.979 80.8325 123.182 83.5458 123.182H96.2692C98.9826 123.182 101.182 120.979 101.182 118.262V118.258C101.182 115.54 98.9826 113.338 96.2692 113.338Z" fill="#343535"/>
<path id="Vector_12" d="M85.6507 121.01C87.2636 121.01 88.571 119.635 88.571 117.939C88.571 116.242 87.2636 114.867 85.6507 114.867C84.0379 114.867 82.7305 116.242 82.7305 117.939C82.7305 119.635 84.0379 121.01 85.6507 121.01Z" fill="#434444" stroke="black" stroke-width="1.83913" stroke-miterlimit="10"/>
<path id="Vector_13" d="M94.299 121.451C96.1426 121.451 97.6372 119.879 97.6372 117.939C97.6372 115.998 96.1426 114.426 94.299 114.426C92.4555 114.426 90.9609 115.998 90.9609 117.939C90.9609 119.879 92.4555 121.451 94.299 121.451Z" fill="#212121" stroke="black" stroke-width="1.83913" stroke-miterlimit="10"/>
<path id="Vector_14" d="M94.2985 118.998C94.8539 118.998 95.3041 118.524 95.3041 117.94C95.3041 117.356 94.8539 116.883 94.2985 116.883C93.7432 116.883 93.293 117.356 93.293 117.94C93.293 118.524 93.7432 118.998 94.2985 118.998Z" fill="#434444"/>
<path id="Vector_15" d="M110.572 174.456C115.494 173.702 119.255 172.157 118.12 169.168C115.287 161.669 101.219 163.366 101.219 163.366L77.6912 163.283C79.987 157.807 80.7538 152.294 79.335 146.92C77.9575 141.655 71.6532 133.903 64.2928 134.809C60.2476 135.306 60.8812 138.634 62.2679 141.526C64.4776 145.989 64.8486 151.142 63.301 155.876C62.2174 159.062 60.4634 162.106 57.6396 163.403C55.4345 164.349 53.1575 165.118 50.8302 165.702C43.4836 167.21 37.9231 164.741 33.5244 161.628C20.9112 152.722 13.9778 133.168 53.2178 118.749L58.4615 114.712L60.7573 94.6562C60.7573 94.6562 20.0204 95.116 4.73947 125.866C-5.03609 145.554 6.94804 163.026 18.6934 178.87C25.2778 187.744 33.9927 196.553 44.7141 199.813L68.0717 206.912C69.4431 207.332 70.8328 207.689 72.2409 207.983L87.7652 211.243C87.7652 211.243 106.04 216.255 106.384 208.245C106.678 201.413 100.415 201.509 98.3076 201.123C97.9311 201.054 97.1321 200.935 96.7556 200.875L75.253 197.463L75.3586 196.843L95.6169 197.923C95.6169 197.923 114.443 200.08 113.556 192.107C113.143 188.364 110.879 186.865 108.611 186.323C113.933 185.757 119.209 184.258 120.141 180.599C121.422 175.619 115.489 174.534 110.572 174.456ZM79.2799 174.24L88.5779 174.736L79.1789 174.704L79.2799 174.24ZM77.2091 186.194L77.3514 185.376L93.8721 186.268L77.2091 186.194Z" fill="#B77F76" stroke="#020202" stroke-width="0.459781" stroke-miterlimit="10"/>
<path id="Vector_16" d="M88.5781 174.737L110.577 174.457" stroke="black" stroke-width="0.459781" stroke-miterlimit="10"/>
<path id="Vector_17" d="M93.7109 186.268L108.758 186.355" stroke="black" stroke-width="0.459781" stroke-miterlimit="10"/>
<g id="Vector_18">
<path d="M184.114 133.65C182.81 132.36 181.408 131.031 179.908 129.664L149.181 106.316L152.551 83.1387C152.551 83.1387 210.217 95.6079 218.358 151.154C221.453 172.304 201.718 195.578 184.197 202.434C174.43 206.295 163.878 207.748 153.433 206.668L131.09 204.291C129.777 204.153 128.474 203.952 127.182 203.689L112.948 200.778C112.948 200.778 95.6931 198.429 98.7144 191.008C101.295 184.677 106.474 187.137 108.357 187.583C108.701 187.661 109.413 187.854 109.734 187.941L129.019 192.976L129.184 192.369L111.934 185.698C111.934 185.698 95.4038 180.534 99.4307 173.619C101.322 170.368 103.825 169.858 105.932 170.221C101.745 167.692 97.9843 164.331 98.719 160.649C99.7246 155.637 105.101 156.892 109.215 158.681C105.441 156.134 102.948 153.315 105.133 151.012C110.588 145.237 121.59 152.133 121.59 152.133L141.164 160.943C141.513 155.09 143.157 149.784 146.564 145.43C149.897 141.163 158.323 136.487 164.067 140.096C167.226 142.078 165.32 144.869 162.97 146.993C159.244 150.289 156.83 154.818 156.169 159.752C155.944 161.591 158.419 165.867 160.605 169.201C162.175 171.636 164.362 173.609 166.944 174.92C169.526 176.23 172.409 176.83 175.298 176.658C176.381 176.584 177.456 176.419 178.512 176.166C192.067 172.971 203.766 153.738 184.073 133.664M135.31 170.313L127.389 167.246L135.195 170.764L135.31 170.313ZM132.096 181.992L132.316 181.192L118.206 175.743L132.096 181.992Z" fill="#B77F76"/>
<path d="M184.114 133.65C182.81 132.36 181.408 131.031 179.908 129.664L149.181 106.316L152.551 83.1387C152.551 83.1387 210.217 95.6079 218.358 151.154C221.453 172.304 201.718 195.578 184.197 202.434C174.43 206.295 163.878 207.748 153.433 206.668L131.09 204.291C129.777 204.153 128.474 203.952 127.182 203.689L112.948 200.778C112.948 200.778 95.6931 198.429 98.7144 191.008C101.295 184.677 106.474 187.137 108.357 187.583C108.701 187.661 109.413 187.854 109.734 187.941L129.019 192.976L129.184 192.369L111.934 185.697C111.934 185.697 95.4038 180.534 99.4307 173.619C101.322 170.368 103.825 169.858 105.932 170.221C101.745 167.692 97.9843 164.331 98.719 160.649C99.7246 155.637 105.101 156.892 109.215 158.681C105.441 156.134 102.948 153.315 105.133 151.012C110.588 145.237 121.59 152.133 121.59 152.133L141.164 160.943C141.513 155.09 143.157 149.784 146.564 145.43C149.897 141.163 158.323 136.487 164.067 140.096C167.226 142.078 165.32 144.869 162.97 146.993C159.244 150.289 156.83 154.818 156.169 159.752C155.944 161.591 158.419 165.867 160.605 169.201C162.175 171.636 164.362 173.609 166.944 174.92C169.526 176.23 172.409 176.83 175.298 176.658C176.381 176.584 177.456 176.419 178.512 176.166C192.067 172.971 203.766 153.738 184.073 133.664M135.31 170.313L127.389 167.246L135.195 170.764L135.31 170.313ZM132.096 181.992L132.316 181.192L118.206 175.743L132.096 181.992Z" stroke="#020202" stroke-width="0.459781" stroke-miterlimit="10"/>
</g>
<path id="Vector_19" d="M127.379 167.246L109.219 158.666" stroke="#020202" stroke-width="0.459781" stroke-miterlimit="10"/>
<path id="Vector_20" d="M118.352 175.799L105.812 170.189" stroke="#020202" stroke-width="0.459781" stroke-miterlimit="10"/>
<path id="Vector_21" d="M159.075 119.883C159.429 120.276 159.87 120.581 160.362 120.776C160.854 120.97 161.384 121.048 161.911 121.004C162.438 120.959 162.948 120.793 163.401 120.519C163.853 120.245 164.237 119.87 164.52 119.423C169.218 111.993 179.462 95.8958 183.025 90.4566C183.189 90.2072 183.295 89.9232 183.333 89.6266C183.371 89.33 183.34 89.0286 183.244 88.7457C183.147 88.4627 182.987 88.2058 182.775 87.9947C182.564 87.7835 182.307 87.6238 182.024 87.5278L148.252 75.9551L141.93 101.004L159.075 119.883Z" fill="#76B899"/>
<path id="Vector_22" d="M34.3919 98.5502L39.7365 121.861C39.9143 122.638 40.2696 123.363 40.7747 123.979C41.2798 124.595 41.9207 125.085 42.6471 125.411C43.3735 125.737 44.1655 125.889 44.9608 125.857C45.7561 125.824 46.5329 125.607 47.2301 125.222L60.5687 117.866L66.9557 81.9199C66.9557 81.9199 53.2451 92.7386 38.8458 92.9547C38.1622 92.9639 37.4893 93.125 36.8754 93.4262C36.2616 93.7275 35.7221 94.1614 35.2961 94.6967C34.87 95.232 34.5679 95.8553 34.4115 96.5217C34.2552 97.1881 34.2485 97.8809 34.3919 98.5502Z" fill="#76B899"/>
<path id="Vector_23" d="M88.334 68.3801L86.332 76.578C86.332 76.578 93.9495 81.1436 97.9718 86.2886C98.3391 86.7484 99.2575 86.5782 99.3126 86.0357C99.7166 82.2517 101.742 73.594 108.33 71.9342L91.8879 66.9456C90.3864 66.4122 88.6462 67.1157 88.334 68.3801Z" fill="#399165"/>
<path id="Vector_24" d="M129.458 69.0616L131.336 76.3445C131.351 76.42 131.34 76.4983 131.306 76.5674C131.272 76.6364 131.217 76.6922 131.148 76.7262C129.71 77.5676 122.46 81.9631 118.75 86.7494C118.484 87.0896 117.795 86.9793 117.758 86.5885C117.446 83.0895 115.922 73.6456 108.621 71.8984L124.692 67.2317C126.707 66.5512 129.045 67.4478 129.458 69.0616Z" fill="#399165"/>
<path id="Vector_25" d="M108.33 79.3851C109.276 79.3851 110.043 78.6172 110.043 77.6701C110.043 76.7229 109.276 75.9551 108.33 75.9551C107.384 75.9551 106.617 76.7229 106.617 77.6701C106.617 78.6172 107.384 79.3851 108.33 79.3851Z" fill="#3C464D" stroke="black" stroke-width="0.459781" stroke-miterlimit="10"/>
<path id="Vector_26" d="M108.213 97.8558C109.159 97.8558 109.925 97.0879 109.925 96.1408C109.925 95.1936 109.159 94.4258 108.213 94.4258C107.267 94.4258 106.5 95.1936 106.5 96.1408C106.5 97.0879 107.267 97.8558 108.213 97.8558Z" fill="#3C464D" stroke="black" stroke-width="0.459781" stroke-miterlimit="10"/>
<path id="Vector_27" d="M86.1394 28.1346C86.1394 28.1346 82.6819 22.5436 80.7029 26.2955C78.7239 30.0473 82.0161 34.4842 83.4212 36.7509C84.8262 39.0176 88.5087 42.8706 88.3755 38.944C88.2424 35.0175 86.1394 28.1346 86.1394 28.1346Z" fill="#B77F76" stroke="#020202" stroke-width="0.459781" stroke-miterlimit="10"/>
<path id="Vector_28" d="M127.646 28.7381C127.646 28.7381 131.103 23.1426 133.082 26.899C135.061 30.6554 131.769 35.0831 130.364 37.3498C128.959 39.6165 125.277 43.4695 125.41 39.543C125.543 35.6164 127.646 28.7381 127.646 28.7381Z" fill="#B77F76" stroke="#020202" stroke-width="0.459781" stroke-miterlimit="10"/>
<path id="Vector_29" d="M90.7158 15.0548C90.7158 15.0548 84.3886 20.8434 84.4299 31.331C84.4299 35.3541 85.3941 40.0669 87.9976 45.4141C97.392 64.6928 106.534 62.0398 114.445 58.4581C122.357 54.8764 130.516 41.837 129.772 31.446C129.028 21.0549 129.524 16.8985 122.724 11.8225C115.924 6.74652 99.6144 4.8936 90.7158 15.0548Z" fill="#B77F76" stroke="#020202" stroke-width="0.459781" stroke-miterlimit="10"/>
<path id="Vector_30" d="M99.1202 56.8429C99.1202 56.8429 95.9061 46.4518 103.198 44.9529C110.489 43.4541 116.297 44.2587 117.657 47.0312C119.016 49.8036 119.264 55.1187 119.264 55.1187L120.995 48.9255C120.995 48.9255 121.399 40.6172 109.704 40.8241C98.009 41.031 96.5214 47.845 96.5214 47.845C96.5214 47.845 95.6581 52.36 99.1202 56.8429Z" fill="black" stroke="black" stroke-width="0.459781" stroke-miterlimit="10"/>
<g id="Vector_31">
<path d="M105.438 39.4883C105.438 39.4883 107.192 42.647 109.57 42.3297C111.948 42.0125 112.839 39.4883 112.839 39.4883" fill="#B77F76"/>
<path d="M105.438 39.4883C105.438 39.4883 107.192 42.647 109.57 42.3297C111.948 42.0125 112.839 39.4883 112.839 39.4883" stroke="#020202" stroke-width="0.459781" stroke-miterlimit="10"/>
</g>
<path id="Vector_32" d="M113.069 27.0744C113.054 27.0817 113.037 27.0855 113.021 27.0855C113.004 27.0855 112.987 27.0817 112.972 27.0744C112.745 27.0493 112.531 26.9527 112.362 26.7985C112.196 26.6284 112.118 26.3387 112.362 25.9295C112.384 25.8904 112.414 25.8561 112.449 25.8284C113.239 25.495 114.054 25.2259 114.887 25.0237C115.25 24.9364 115.617 24.8582 115.989 24.7939C116.473 24.7035 116.962 24.6451 117.454 24.6191C117.454 24.6191 117.61 24.6191 117.876 24.6191C118.232 24.644 118.586 24.6994 118.932 24.7847C119.791 25.0062 120.609 25.3615 121.357 25.8376C121.747 26.0581 122.113 26.3185 122.449 26.6146C122.633 26.7893 122.651 26.8813 122.555 26.9043C121.996 26.8468 121.45 26.7041 120.934 26.4813C120.357 26.2966 119.77 26.1431 119.176 26.0215C118.762 25.9447 118.342 25.9139 117.922 25.9295C117.732 25.9365 117.542 25.9534 117.353 25.9801C116.999 26.0077 116.636 26.0629 116.265 26.1272C115.893 26.1916 115.594 26.256 115.264 26.3387C114.514 26.5248 113.78 26.7708 113.069 27.0744Z" fill="#202020"/>
<path id="Vector_33" d="M104.434 27.2553C104.452 27.2639 104.472 27.2683 104.492 27.2683C104.511 27.2683 104.531 27.2639 104.549 27.2553C104.815 27.2252 105.061 27.1033 105.247 26.9105C105.431 26.6852 105.518 26.3311 105.247 25.761C105.22 25.7133 105.186 25.67 105.146 25.6323C104.229 25.1801 103.275 24.8064 102.295 24.515C101.872 24.3909 101.44 24.2851 101.009 24.1885C100.448 24.0603 99.8787 23.9712 99.3054 23.9219C99.3054 23.9219 99.1217 23.9219 98.8141 23.9219C98.4018 23.9506 97.993 24.0168 97.5927 24.1196C96.5931 24.3934 95.6496 24.8417 94.8056 25.4438C94.3491 25.7338 93.9257 26.073 93.5429 26.4553C93.3363 26.6806 93.3133 26.8001 93.4281 26.8369C93.6531 26.9105 94.4153 26.6346 95.3015 26.3127C95.9635 26.0742 96.6398 25.8777 97.3264 25.7242C97.8041 25.6313 98.2918 25.6004 98.7773 25.6323C99.1676 25.6598 99.4431 25.7104 99.4431 25.7104C99.8677 25.7609 100.289 25.8346 100.706 25.9311C101.101 26.0139 101.491 26.115 101.872 26.23C102.754 26.4983 103.611 26.8413 104.434 27.2553Z" fill="#202020"/>
<path id="Vector_34" d="M117.101 33.4162C117.966 33.4162 118.667 32.5352 118.667 31.4483C118.667 30.3615 117.966 29.4805 117.101 29.4805C116.236 29.4805 115.535 30.3615 115.535 31.4483C115.535 32.5352 116.236 33.4162 117.101 33.4162Z" fill="black"/>
<path id="Vector_35" d="M101.055 32.9617C101.965 32.9617 102.703 32.0333 102.703 30.8881C102.703 29.7428 101.965 28.8145 101.055 28.8145C100.144 28.8145 99.4062 29.7428 99.4062 30.8881C99.4062 32.0333 100.144 32.9617 101.055 32.9617Z" fill="black"/>
<g id="Vector_36">
<path d="M129.816 29.1408C129.816 29.1408 131.841 27.7338 131.166 30.7454C130.491 33.757 130.744 33.4029 130.744 33.4029" fill="#B77F76"/>
<path d="M129.816 29.1408C129.816 29.1408 131.841 27.7338 131.166 30.7454C130.491 33.757 130.744 33.4029 130.744 33.4029" stroke="#020202" stroke-width="0.459781" stroke-miterlimit="10"/>
</g>
<path id="Vector_37" d="M127.047 7.71151C122.846 4.95283 85.1122 -5.87962 91.3752 8.28164C91.5675 8.86698 91.8698 9.41009 92.2659 9.88168C89.8645 9.56903 86.6963 12.7369 86.1223 13.3898L85.8652 13.6795C81.898 18.0244 82.8761 28.3925 83.4179 31.119C83.626 32.3327 84.0673 33.4944 84.7173 34.5398C84.6865 34.5986 84.6663 34.6624 84.6576 34.7283C83.8495 40.2456 88.2988 49.1562 89.2492 55.3403C90.6267 64.3474 111.477 76.4074 120.385 64.7796C129.293 53.1517 130.606 37.018 129.435 33.9696C129.408 33.9662 129.38 33.9662 129.352 33.9696C129.587 33.3903 129.862 32.5903 130.197 31.4592C132.805 22.6958 131.253 10.4794 127.047 7.71151ZM120.996 48.9171C119.444 51.216 110.366 63.4232 100.356 54.8943C90.9068 46.8343 87.183 33.1006 87.0407 31.473C86.9213 29.9741 86.981 28.0614 86.9488 27.1465C86.869 24.6248 87.7505 22.1672 89.4145 20.2727C93.221 15.8634 94.851 13.6473 94.548 12.0335C96.5499 13.445 99.7778 14.9301 104.953 15.8359C117.226 17.9922 122.254 11.7576 126.125 15.8359C129.995 19.9141 128.462 28.5902 128.462 28.5902C128.462 28.5902 127.396 36.7789 126.979 39.2341C126.377 42.8526 125.486 42.2181 120.996 48.9171Z" fill="black" stroke="black" stroke-width="0.459781" stroke-miterlimit="10"/>
<path id="Vector_38" d="M103.516 47.6484C103.516 47.6484 108.461 53.3497 113.888 47.6484" stroke="black" stroke-width="1.37934" stroke-miterlimit="10" stroke-linecap="round"/>
<path id="Vector_39" d="M95.677 66.9992L91.8889 66.944C91.2493 66.6615 90.5251 66.6393 89.8694 66.8822C89.2138 67.1251 88.6783 67.6139 88.3763 68.2452L86.4938 75.9236L81.1078 77.0776C68.9721 79.6064 63.5173 84.333 63.5173 84.333C52.4974 92.3561 41.9367 92.7745 38.1394 93.0688C34.3421 93.3631 34.3008 97.4137 34.3008 97.4137L39.7373 121.874C39.7373 121.874 40.7658 125.552 44.1865 125.879C44.1865 125.879 45.3758 126.26 48.2364 124.683L59.6695 118.384C59.6695 118.384 58.3747 132.936 57.7089 137.612C57.0431 142.288 53.3101 165.006 53.3101 165.006" stroke="#020202" stroke-width="0.459781" stroke-miterlimit="10"/>
<path id="Vector_40" d="M122.008 67.002L126.76 67.0525C126.76 67.0525 129.019 67.3468 129.589 69.5629L131.173 75.9585C131.173 75.9585 142.087 72.878 150.595 76.7631L181.295 87.3059C181.295 87.3059 184.771 88.0507 182.617 91.1037C180.464 94.1566 165.261 118.258 165.261 118.258C165.261 118.258 162.258 123.914 158.373 119.15L150.862 110.874C150.819 112.943 150.937 115.012 151.215 117.063L153.97 140.011" stroke="#020202" stroke-width="0.459781" stroke-miterlimit="10"/>
<path id="Vector_41" d="M86.4961 75.9251V76.486C86.4961 76.486 93.8748 81.2356 96.4921 84.5736L97.9752 86.2886C97.9752 86.2886 98.8705 87.0932 99.3526 85.7414C99.8348 84.3897 100.234 74.2469 108.334 71.948C108.334 71.948 92.8417 67.1984 91.7719 66.918" stroke="#020202" stroke-width="0.459781" stroke-miterlimit="10"/>
<path id="Vector_42" d="M125.916 67.0742L108.629 71.9157C110.512 72.3009 112.206 73.3218 113.427 74.8077C115.466 77.2952 117.266 81.2447 117.527 84.6792L117.766 86.6057C117.766 86.6057 118.134 87.4793 118.951 86.5184C119.768 85.5574 125.544 79.2952 130.678 77.0193C130.678 77.0193 131.486 76.4584 131.137 75.7825" stroke="#020202" stroke-width="0.459781" stroke-miterlimit="10"/>
<path id="Vector_43" d="M84.1206 28.4973C84.1206 28.4973 80.934 27.5777 82.2197 31.3479C83.5053 35.1181 83.4456 33.8905 83.4456 33.8905" stroke="#020202" stroke-width="0.459781" stroke-miterlimit="10"/>
<path id="Vector_44" d="M151.019 60.2937L177.658 54.1795C179.676 53.7164 181.795 54.0749 183.548 55.1761C185.302 56.2774 186.548 58.0313 187.01 60.0519L187.613 62.6871L145.753 72.2949L145.15 69.6597C144.688 67.6391 145.046 65.5173 146.146 63.761C147.245 62.0047 148.997 60.7579 151.015 60.2947L151.019 60.2937Z" fill="#777676"/>
<path id="Vector_45" d="M168.949 27.5557L175.293 31.0422C176.023 31.446 176.564 32.1224 176.797 32.9239C177.031 33.7254 176.939 34.587 176.541 35.3207L169.792 47.6343C169.27 48.5868 168.391 49.2926 167.349 49.5964C166.308 49.9003 165.188 49.7773 164.237 49.2545L159.527 46.6663C158.576 46.1435 157.871 45.2638 157.568 44.2207C157.265 43.1775 157.387 42.0564 157.909 41.1039L164.659 28.7903C165.064 28.0573 165.744 27.5156 166.549 27.2841C167.353 27.0526 168.217 27.1503 168.949 27.5557Z" fill="#777676"/>
<path id="Vector_46" d="M194.899 52.7105L164.227 35.8535L163.177 37.7681L193.849 54.625L194.899 52.7105Z" fill="#777676"/>
</g>
</svg>
