<svg width="226" height="215" viewBox="0 0 226 215" fill="none" xmlns="http://www.w3.org/2000/svg">
<g id="Group">
<path id="Vector" d="M36.7378 52.377C36.7378 52.377 63.0014 59.4673 71.1018 55.2334L72.3648 64.8357L34.8906 62.4939L36.7378 52.377Z" fill="#7EA5DC" stroke="#020202" stroke-width="0.405164" stroke-miterlimit="10"/>
<path id="Vector_2" d="M40.1797 47.0279V75.9404L69.899 76.3253C69.899 76.3253 65.1844 52.5989 64.7319 42.6359C64.2793 32.673 40.1797 33.4711 40.1797 47.0279Z" fill="#D7A39C" stroke="black" stroke-width="0.405164" stroke-miterlimit="10"/>
<path id="Vector_3" d="M58.0866 7.93554C56.9552 7.93554 40.4294 6.8578 35.3157 11.3511C26.9232 18.721 27.6678 31.1555 36.9284 41.3859C37.4385 41.9491 39.5531 45.2552 40.0879 45.7697C42.0544 47.6457 42.2807 47.6011 44.8313 49.9551C48.9453 53.7515 52.6479 57.5722 58.0866 57.5722C61.5629 57.5722 64.1053 57.9328 66.4132 57.1427C69.7044 56.0244 72.5019 52.5806 76.8298 42.4677C78.064 39.5586 78.4507 36.1998 78.4507 32.7437C78.4507 19.0451 69.3342 7.93554 58.0866 7.93554Z" fill="#D7A39C"/>
<path id="Vector_4" d="M51.3814 26.0212C49.4695 27.5688 47.9922 29.5731 47.0905 31.8428C46.1888 34.1126 45.8928 36.572 46.2307 38.9865C46.2307 39.1526 46.1978 42.2278 44.7291 39.9832C43.3509 37.8682 43.3139 30.0242 37.1717 32.8685C36.5779 33.1401 36.0999 33.6088 35.8216 34.1925C35.5433 34.7762 35.4824 35.4377 35.6496 36.0612C36.1391 37.9087 37.7683 40.9231 40.4012 45.5461C40.4876 45.696 40.4588 46.2267 40.1214 46.1822C37.2993 45.8216 30.1204 37.7062 32.5353 31.6976C36.4888 21.8723 66.0559 11.6622 51.3979 26.0253L51.3814 26.0212Z" fill="black"/>
<path id="Vector_5" d="M53.0234 21.4264C53.0234 21.4264 72.968 25.7657 76.8845 23.8574C80.801 21.9491 62.6542 10.094 53.0234 21.4264Z" fill="black"/>
<path id="Vector_6" d="M31.4275 34.5136C34.4102 32.2568 57.1316 20.6165 57.1316 20.6165C57.1316 20.6165 73.7644 17.3225 76.9322 23.327C80.0999 29.3316 78.1334 2.00326 54.8854 3.03642C31.8883 4.06149 22.7594 20.6611 30.8392 34.4042C30.8694 34.4507 30.909 34.4907 30.9555 34.5216C31.0019 34.5525 31.0543 34.5737 31.1094 34.5839C31.1645 34.5942 31.2211 34.5932 31.2759 34.5811C31.3306 34.569 31.3822 34.5461 31.4275 34.5136Z" fill="#3A629C" stroke="black" stroke-width="0.405164" stroke-miterlimit="10"/>
<path id="Vector_7" d="M57.1289 20.6161L68.8825 3.85857C69.717 2.66866 70.8782 1.7373 72.2303 1.17336C73.5825 0.609419 75.0697 0.436209 76.5181 0.673977C86.1324 2.24601 104.061 7.67521 77.4972 25.1216C77.4972 25.1216 74.9959 17.3181 57.1289 20.6161Z" fill="#4A78AF" stroke="black" stroke-width="0.405164" stroke-miterlimit="10"/>
<path id="Vector_8" d="M72.383 33.4589C72.383 33.4589 72.383 33.4589 72.383 33.4995C72.3797 33.6604 72.428 33.8183 72.521 33.9507C72.6141 34.0831 72.7472 34.1832 72.9013 34.2369C72.9013 34.2369 72.9425 34.2369 72.9507 34.2369C72.9589 34.2369 73.1893 34.0667 73.5431 33.8641C73.974 33.6163 74.4254 33.4049 74.8925 33.232C75.1291 33.1385 75.3725 33.0626 75.6207 33.0052C75.8209 32.9645 76.0251 32.9455 76.2295 32.9484C76.3766 32.9483 76.5236 32.9564 76.6697 32.9727L76.8425 32.997H77.2539C77.4925 32.997 77.7969 33.0295 78.0767 33.0376C78.9571 33.1064 78.7267 32.7945 78.2536 32.519C78.0735 32.4047 77.8801 32.3122 77.6776 32.2434C77.4583 32.1563 77.2345 32.0806 77.0071 32.0166L76.8014 31.9922C76.6143 31.9717 76.426 31.9636 76.2378 31.9679C75.9608 31.9726 75.6851 32.0052 75.415 32.0652C75.1241 32.1359 74.8383 32.2252 74.5593 32.3326C74.0439 32.525 73.5458 32.7595 73.07 33.0335C72.6504 33.2685 72.3994 33.4508 72.383 33.4589Z" fill="#202020"/>
<path id="Vector_9" d="M65.8439 33.8369C65.8572 33.8484 65.8731 33.8566 65.8903 33.8609C65.9075 33.8651 65.9254 33.8652 65.9427 33.8612C66.1824 33.8701 66.4188 33.8034 66.6174 33.6708C66.7439 33.5604 66.8292 33.4114 66.8598 33.2477C66.8904 33.0839 66.8644 32.9148 66.786 32.7673C66.7662 32.7262 66.7428 32.6869 66.7161 32.6498C65.9626 32.1817 65.1714 31.7752 64.3506 31.4343C63.9885 31.2844 63.6265 31.1507 63.2563 31.0291C62.7745 30.8635 62.2826 30.7282 61.7834 30.624C61.7834 30.624 61.6189 30.5997 61.3391 30.5754C60.9681 30.5452 60.5953 30.5452 60.2243 30.5754C59.2988 30.674 58.3949 30.9161 57.5461 31.2925C57.1 31.4645 56.6728 31.6803 56.2707 31.9367C56.0486 32.0907 56.0116 32.1839 56.1103 32.2244C56.2995 32.3095 57.0154 32.1839 57.8505 32.0339C58.4766 31.9242 59.1084 31.8485 59.7429 31.8071C60.1815 31.7926 60.6203 31.8266 61.0511 31.9083C61.2458 31.9444 61.4381 31.9917 61.6271 32.0502C61.9973 32.138 62.3626 32.2448 62.7214 32.3702C63.0547 32.4837 63.3879 32.6093 63.7129 32.743C64.4515 33.0515 65.1641 33.4173 65.8439 33.8369Z" fill="#202020"/>
<path id="Vector_10" d="M63.5641 36.2066C63.6476 35.1648 63.0762 34.2707 62.288 34.2094C61.4997 34.1482 60.7931 34.9431 60.7097 35.9848C60.6262 37.0266 61.1976 37.9207 61.9858 37.982C62.7741 38.0432 63.4807 37.2483 63.5641 36.2066Z" fill="black"/>
<path id="Vector_11" d="M75.9079 37.2027C75.9913 36.1609 75.42 35.2668 74.6317 35.2055C73.8435 35.1443 73.1368 35.9392 73.0534 36.9809C72.97 38.0227 73.5413 38.9168 74.3296 38.9781C75.1178 39.0393 75.8244 38.2444 75.9079 37.2027Z" fill="black"/>
<path id="Vector_12" d="M71.2949 42.0977C71.2949 42.0977 73.0433 47.6241 69.1474 46.4329C66.897 45.7441 66.8477 44.5611 66.8477 44.5611" stroke="#202020" stroke-width="0.405164" stroke-miterlimit="10" stroke-linecap="round"/>
<path id="Vector_13" d="M48.4297 51.5751C53.7779 59.2246 66.7122 57.0732 66.7122 57.0732C68.8131 56.0273 70.5736 54.4213 71.793 52.4381C73.7363 49.2821 75.4307 45.9838 76.8614 42.5724C78.1202 39.404 78.7744 34.6352 78.5316 30.9442C78.2889 27.2531 77.4168 24.8667 77.0917 24.3359" stroke="#020202" stroke-width="0.405164" stroke-miterlimit="10" stroke-linecap="round"/>
<path id="Vector_14" d="M41.0101 34.7028C41.0101 34.7028 36.6369 32.4541 37.7806 36.3721C38.0297 37.1993 38.4344 37.9731 38.9736 38.6531C39.4303 39.2366 40.1626 40.1239 41.3021 41.3961" stroke="#020202" stroke-width="0.405164" stroke-miterlimit="10" stroke-linecap="round"/>
<path id="Vector_15" d="M37.3984 40.7773C37.3984 40.7773 40.5415 46.4983 42.0226 45.6393C43.0223 45.0518 43.1251 42.5398 43.1251 42.5398" stroke="#020202" stroke-width="0.405164" stroke-miterlimit="10" stroke-linecap="round"/>
<path id="Vector_16" d="M62.4219 48.8027C62.4219 48.8027 64.701 53.3244 70.6498 50.0182" stroke="black" stroke-width="1.21549" stroke-miterlimit="10" stroke-linecap="round"/>
<path id="Vector_17" d="M83.8826 92.0098C84.525 92.0124 85.1594 92.1498 85.7437 92.4126C86.3279 92.6755 86.8487 93.0578 87.2714 93.5342C87.694 94.0106 88.0088 94.5701 88.1948 95.1756C88.3809 95.7811 88.4339 96.4187 88.3504 97.046C87.3497 103.988 85.7603 110.835 83.5988 117.515C79.818 129.236 84.0102 139.937 85.7998 143.68C86.2641 144.66 87.0767 145.438 88.0841 145.868C89.0914 146.298 90.2237 146.35 91.2672 146.014L91.3618 145.982C96.1752 144.325 91.9625 162.281 84.4792 157.379C77.1974 152.61 62.7944 104.902 78.9006 92.9133C79.6869 92.327 80.6461 92.0097 81.6323 92.0098H83.8826Z" fill="#D7A39C" stroke="black" stroke-width="0.405164" stroke-miterlimit="10"/>
<path id="Vector_18" d="M73.2344 88.3348C73.2344 88.3348 70.0584 72.6873 78.3974 72.9385C89.5051 73.2505 89.5051 91.2682 89.2871 96.3165C89.2781 96.4856 89.2353 96.6513 89.1611 96.8041C89.0869 96.9568 88.9828 97.0936 88.8547 97.2066C88.7266 97.3196 88.5771 97.4065 88.4148 97.4623C88.2525 97.5182 88.0805 97.5418 87.9089 97.532L72.642 96.7217L73.2344 88.3348Z" fill="#7EA5DC" stroke="#020202" stroke-width="0.405164" stroke-miterlimit="10"/>
<path id="Vector_19" d="M40.4969 102.463C40.4969 102.463 1.79672 145.815 1.45526 107.106C1.1138 68.3968 41.838 63.8711 41.838 63.8711C41.838 63.8711 58.5984 69.1666 64.5965 65.9293C70.5947 62.6921 87.0136 69.4056 85.6313 93.0753C83.8828 122.993 70.2286 116.008 87.0136 156.467C87.0136 156.467 25.0901 182.58 23.7942 135.982C23.7942 135.986 37.7981 109.039 40.4969 102.463Z" fill="#7EA5DC" stroke="#020202" stroke-width="0.405164" stroke-miterlimit="10"/>
<path id="Vector_20" d="M122.309 182.131L122.407 158.688C122.407 158.688 150.247 161.22 160.963 146.594C162.832 143.841 164.404 140.904 165.653 137.83C168.665 129.411 180.32 128.28 184.903 135.978C190.975 146.172 195.912 160.288 172.832 168.015L122.309 182.131Z" fill="#B77F76" stroke="#020202" stroke-width="0.405164" stroke-miterlimit="10"/>
<path id="Vector_21" d="M109.748 155.03L106.93 149.357L119.021 150.301C119.021 150.301 120.321 149.572 122.168 153.656C124.015 157.74 109.748 155.03 109.748 155.03Z" fill="#B77F76" stroke="#020202" stroke-width="0.405164" stroke-miterlimit="10"/>
<path id="Vector_22" d="M108.378 151.613C108.378 151.613 133.947 150.803 133.992 156.673C134.037 162.544 125.423 160.66 125.423 160.66C125.423 160.66 133.766 162.877 132.762 167.378C131.758 171.879 122.934 168.881 122.934 168.881C122.934 168.881 132.206 171.373 130.536 175.254C128.866 179.136 122.156 177.163 119.84 176.397C119.84 176.397 133.26 180.043 127.085 184.682C120.909 189.322 97.8753 181.441 97.8753 181.441C97.8753 181.441 79.0005 179.756 80.4856 170.097C81.9707 160.437 87.7221 149.073 108.378 151.613Z" fill="#D7A39C" stroke="black" stroke-width="0.405164" stroke-miterlimit="10"/>
<path id="Vector_23" d="M125.426 160.656L112.652 159.189" stroke="#020202" stroke-width="0.405164" stroke-miterlimit="10"/>
<path id="Vector_24" d="M122.936 168.89L111.125 166.184" stroke="#020202" stroke-width="0.405164" stroke-miterlimit="10"/>
<path id="Vector_25" d="M119.825 176.405L109.285 173.35" stroke="#020202" stroke-width="0.405164" stroke-miterlimit="10"/>
<path id="Vector_26" d="M114.285 179.887C114.285 179.887 108.254 192.414 114.972 191.385C121.69 190.356 119.341 180.721 119.341 180.721C119.341 180.721 118.037 175.47 114.285 179.887Z" fill="#B77F76" stroke="#020202" stroke-width="0.405164" stroke-miterlimit="10"/>
<path id="Vector_27" d="M105.794 176.77C105.794 176.77 99.331 190.858 106.79 189.82C114.248 188.783 111.438 177.815 111.438 177.815C111.438 177.815 109.883 171.839 105.794 176.77Z" fill="#B77F76" stroke="#020202" stroke-width="0.405164" stroke-miterlimit="10"/>
<path id="Vector_28" d="M96.4333 175.364C96.4333 175.364 89.0281 190.76 97.2931 189.521C105.558 188.281 102.641 176.397 102.641 176.397C102.641 176.397 101.037 169.919 96.4333 175.364Z" fill="#B77F76" stroke="#020202" stroke-width="0.405164" stroke-miterlimit="10"/>
<path id="Vector_29" d="M92.8649 176.581C92.8649 176.581 95.2428 188.444 88.2491 187.212C81.7325 186.069 87.8377 175.912 87.8377 175.912C87.8377 175.912 90.882 171.313 92.8649 176.581Z" fill="#B77F76" stroke="#020202" stroke-width="0.405164" stroke-miterlimit="10"/>
<g id="Vector_30">
<path d="M120.206 150.65C115.874 145.553 105.733 144.398 105.733 144.398C105.733 144.398 99.0647 145.144 97.8675 147.907C96.6704 150.67 93.7535 158.34 99.0811 160.467C104.409 162.594 108.877 152.976 108.017 151.602" fill="#B77F76"/>
<path d="M120.206 150.65C115.874 145.553 105.733 144.398 105.733 144.398C105.733 144.398 99.0647 145.144 97.8675 147.907C96.6704 150.67 93.7535 158.34 99.0811 160.467C104.409 162.594 108.877 152.976 108.017 151.602" stroke="#020202" stroke-width="0.405164" stroke-miterlimit="10"/>
</g>
<path id="Vector_31" d="M85.6289 158.125C85.6289 158.125 90.8413 145.285 90.7673 141.237C90.6315 134.038 100.345 131.445 100.916 140.216C101.24 145.447 99.4963 150.599 96.0496 154.592L85.6289 158.125Z" fill="#D7A39C"/>
<path id="Vector_32" d="M87.3796 153.559C87.3796 153.559 39.0692 174.405 41.5458 126.539C44.0224 78.6727 -14.3754 117.159 13.6984 153.207C41.7063 189.169 58.7998 168.891 80.9494 173.72C87.7498 175.203 94.5955 160.779 87.3796 153.559Z" fill="#D7A39C"/>
<g id="Vector_33">
<path d="M167.681 114.394C167.681 114.394 156.902 125.176 158.391 149.927C159.881 174.679 168.084 168.253 162.991 199.357C157.898 230.462 221.948 195.071 223.1 185.087C224.252 175.104 203.382 118.264 195.87 111.51C191.151 107.272 175.806 105.315 168.421 114.512" fill="#76B899"/>
<path d="M167.681 114.394C167.681 114.394 156.902 125.176 158.391 149.927C159.881 174.679 168.084 168.253 162.991 199.357C157.898 230.462 221.948 195.071 223.1 185.087C224.252 175.104 203.382 118.264 195.87 111.51C191.151 107.272 175.806 105.315 168.421 114.512" stroke="#020202" stroke-width="0.405164" stroke-miterlimit="10"/>
</g>
<path id="Vector_34" d="M183.391 136.874V147.753L190.331 151.266L196.527 147.753V136.874C196.527 136.874 194.498 134.873 189.944 134.747C185.39 134.622 183.391 136.874 183.391 136.874Z" fill="#3AA06A" stroke="#020202" stroke-width="0.405164" stroke-miterlimit="10"/>
<path id="Vector_35" d="M171.391 112.625C171.428 112.451 173.823 110.036 175.155 108.8C176.488 107.565 178.122 112.852 178.122 112.852C177.815 113.333 177.391 113.731 176.888 114.009C176.385 114.288 175.819 114.437 175.242 114.444C173.144 114.55 170.873 115.157 171.391 112.625Z" fill="#3AA06A" stroke="#020202" stroke-width="0.405164" stroke-miterlimit="10"/>
<path id="Vector_36" d="M202.453 75.4219C202.453 75.4219 199.051 90.3927 199.984 98.7309C200.918 107.069 201.708 110.943 201.708 110.943L175.173 115.509L172.441 94.9224L202.453 75.4219Z" fill="#B77F76"/>
<path id="Vector_37" d="M168.818 58.9552C169.944 55.0551 168.78 51.3121 166.219 50.5949C163.657 49.8778 160.668 52.4581 159.542 56.3582C158.417 60.2583 159.58 64.0013 162.142 64.7184C164.703 65.4356 167.692 62.8553 168.818 58.9552Z" fill="black"/>
<path id="Vector_38" d="M201.963 78.0318C197.577 93.2255 188.506 98.8167 175.749 99.4042C167.43 99.8094 162.296 93.0958 160.585 84.2146C159.655 79.3891 157.269 72.7404 158.565 65.6743C161.613 49.0181 175.148 40.7892 187.515 44.2533C199.881 47.7175 206.348 62.8341 201.963 78.0318Z" fill="#B77F76"/>
<path id="Vector_39" d="M167.23 67.4772C167.23 67.4772 167.23 67.4772 167.267 67.5177C167.35 67.7235 167.369 67.9491 167.321 68.1656C167.274 68.3821 167.161 68.5797 166.999 68.7332C166.999 68.7332 166.958 68.7737 166.942 68.7737C166.925 68.7737 166.563 68.6886 166.02 68.6197C165.361 68.5402 164.696 68.5186 164.033 68.5549C163.694 68.5682 163.355 68.6047 163.021 68.6643C162.751 68.7205 162.487 68.8047 162.235 68.9155C162.051 68.995 161.872 69.0871 161.7 69.191C161.573 69.2639 161.503 69.3126 161.503 69.3126C161.503 69.3126 161.297 69.4017 161.009 69.5435C160.721 69.6853 160.359 69.8757 160.038 70.0297C158.989 70.601 159.117 70.0783 159.553 69.4665C159.72 69.2277 159.912 69.0064 160.125 68.8061C160.348 68.5746 160.586 68.3568 160.837 68.1538L161.079 68.0079C161.299 67.8803 161.527 67.7666 161.762 67.6676C162.101 67.5272 162.454 67.4213 162.815 67.3516C163.209 67.2804 163.608 67.2371 164.008 67.2219C164.74 67.1873 165.474 67.2131 166.201 67.2989C166.802 67.3799 167.205 67.4731 167.23 67.4772Z" fill="#202020"/>
<path id="Vector_40" d="M176.201 68.3033C176.172 68.3033 176.16 68.3236 176.106 68.3033C175.882 68.2677 175.678 68.1576 175.526 67.9913C175.374 67.809 175.308 67.5173 175.555 67.0757C175.578 67.0384 175.607 67.0055 175.641 66.9784C176.424 66.6598 177.234 66.4077 178.06 66.2248C178.418 66.1438 178.784 66.079 179.146 66.0263C179.623 65.9498 180.104 65.9051 180.586 65.8926C180.586 65.8926 180.739 65.8926 180.998 65.925C181.345 65.9667 181.688 66.0385 182.022 66.1397C182.855 66.4083 183.637 66.8123 184.334 67.335C184.711 67.5888 185.061 67.8793 185.379 68.202C185.548 68.3965 185.564 68.4897 185.47 68.514C185.276 68.5626 184.647 68.3074 183.906 68.0075C183.354 67.7853 182.79 67.5946 182.215 67.4363C181.811 67.3394 181.397 67.2905 180.981 67.2904C180.794 67.2918 180.607 67.304 180.422 67.3269C180.065 67.3441 179.709 67.3806 179.356 67.4363C179.023 67.4889 178.694 67.5497 178.369 67.6226C177.628 67.7899 176.903 68.0176 176.201 68.3033Z" fill="#202020"/>
<path id="Vector_41" d="M165.392 74.834C166.339 74.6983 166.956 73.5724 166.771 72.319C166.586 71.0657 165.668 70.1597 164.722 70.2954C163.775 70.431 163.158 71.557 163.343 72.8103C163.528 74.0637 164.446 74.9697 165.392 74.834Z" fill="black"/>
<path id="Vector_42" d="M179.331 76.0264C180.278 75.8945 180.9 74.7711 180.72 73.5173C180.54 72.2634 179.626 71.3539 178.679 71.4858C177.733 71.6177 177.111 72.7411 177.291 73.9949C177.471 75.2487 178.384 76.1583 179.331 76.0264Z" fill="black"/>
<path id="Vector_43" d="M196.816 67.7117C196.816 67.7117 201.177 64.2152 199.696 71.3055C199.696 71.3055 199.079 73.4448 197.545 74.4537" stroke="black" stroke-width="0.405164" stroke-miterlimit="10" stroke-linecap="round"/>
<path id="Vector_44" d="M205.027 55.2976C203.92 53.053 202.344 50.9462 200.152 50.0062C199.833 49.1129 199.345 48.2878 198.712 47.5752C192.611 40.2822 171.559 39.9703 165.282 40.7846C164.656 40.8657 164.047 40.9508 163.48 41.0318C158.35 41.757 156.897 47.012 160.867 50.4924C169.149 57.7083 180.738 56.7319 183.165 56.4321C183.334 56.4321 183.506 56.3997 183.679 56.3916C188.616 61.8167 188.941 60.508 191.084 62.7324C192.927 64.6366 192.319 73.9392 192.294 76.1311C192.257 81.5239 185.127 88.4724 185.127 88.4724C185.127 88.4724 179.779 93.1804 174.316 93.0022C169.35 92.8401 163.122 95.9842 160.283 80.1423C157.444 64.3004 158.313 80.2192 158.313 80.2192C158.313 80.2192 162.426 105.514 173.353 105.027C184.28 104.541 192.084 100.875 194.051 90.8062C196.132 80.1625 196.63 82.9744 194.256 71.6379C193.17 67.959 196.359 65.0864 196.359 65.0864C196.359 65.0864 203.69 59.7666 201.888 77.849C201.888 77.849 204.858 79.6885 206.787 67.4606C207.473 63.3243 206.858 59.0806 205.027 55.2976Z" fill="black"/>
<path id="Vector_45" d="M167.564 93.1168C167.564 93.1168 164.684 85.5645 168.292 84.7096C171.9 83.8547 173.176 83.2227 178.166 84.2437C182.732 85.1796 182.21 92.4806 182.21 92.4806C182.21 92.4806 184.6 92.4806 184.991 91.2652C185.382 90.0497 182.971 82.5622 179.421 81.0793C175.87 79.5964 165.585 82.1287 165.269 85.5604C164.952 88.9922 166.527 94.1135 166.527 94.1135L167.564 93.1168Z" fill="black"/>
<g id="Vector_46">
<path d="M170.03 77.918C170.03 77.918 169.417 81.925 171.647 82.2289C173.877 82.5328 174.679 80.8838 174.679 80.8838" fill="#B77F76"/>
<path d="M170.03 77.918C170.03 77.918 169.417 81.925 171.647 82.2289C173.877 82.5328 174.679 80.8838 174.679 80.8838" stroke="#020202" stroke-width="0.810328" stroke-miterlimit="10" stroke-linecap="round"/>
</g>
<path id="Vector_47" d="M202.291 69.4062C202.291 69.4062 201.386 75.4837 198.078 77.9998" stroke="black" stroke-width="0.405164" stroke-miterlimit="10" stroke-linecap="round"/>
<path id="Vector_48" d="M202.297 76.7871C202.297 76.7871 198.92 90.5627 199.998 98.9739C201.075 107.385 201.688 111.194 201.688 111.194L175.104 115.399L173.047 100.514" stroke="black" stroke-width="0.405164" stroke-miterlimit="10" stroke-linecap="round"/>
<path id="Vector_49" d="M158.429 73.7053C158.429 73.7053 157.606 67.0525 159.531 61.7043C159.531 61.7043 161.263 57.0368 162.374 55.246C162.938 54.3384 163.843 52.58 165.093 52.0371" stroke="black" stroke-width="0.405164" stroke-miterlimit="10" stroke-linecap="round"/>
<path id="Vector_50" d="M168.797 86.6326C168.797 86.6326 174.092 91.0448 177.333 85.332" stroke="#202020" stroke-width="1.21549" stroke-miterlimit="10" stroke-linecap="round"/>
<path id="Vector_51" d="M175.378 114.063C175.378 114.063 169.083 142.307 174.901 168.76C180.718 195.213 170.071 211.148 170.071 211.148C170.071 211.148 169.882 218.036 177.768 211.448C185.654 204.86 178.743 157.561 178.743 157.561C178.743 157.561 178.146 128.236 181.833 113.398L175.378 114.063Z" fill="#3AA06A" stroke="#020202" stroke-width="0.405164" stroke-miterlimit="10"/>
<path id="Vector_52" d="M222.369 189.023C228.54 169.056 219.9 149.45 219.9 149.45L197.516 147.133C197.516 147.133 213.972 192.134 188.56 202.235C149.111 217.923 176.988 214.722 195.912 211.659C202.026 210.69 207.743 208.057 212.418 204.057C217.093 200.057 220.54 194.85 222.369 189.023Z" fill="#B77F76" stroke="#020202" stroke-width="0.405164" stroke-miterlimit="10"/>
<g id="Vector_53">
<path d="M196.815 112.029C196.815 112.029 209.873 109.408 217.488 119.691C219.416 122.329 220.348 125.548 220.121 128.791C219.894 132.263 220.433 138.207 225.111 144.645C225.111 144.645 229.636 148.251 209.638 150.8C189.64 153.348 193.067 144.645 193.067 144.645C193.067 144.645 199.3 133.086 198.415 127.418" fill="#76B899"/>
<path d="M196.815 112.029C196.815 112.029 209.873 109.408 217.488 119.691C219.416 122.329 220.348 125.548 220.121 128.791C219.894 132.263 220.433 138.207 225.111 144.645C225.111 144.645 229.636 148.251 209.638 150.8C189.64 153.348 193.067 144.645 193.067 144.645C193.067 144.645 199.3 133.086 198.415 127.418" stroke="#020202" stroke-width="0.405164" stroke-miterlimit="10"/>
</g>
<path id="Vector_54" d="M176.816 114.132C175.014 115.048 170.344 117.778 168.292 122.02C168.292 122.02 168.958 116.664 167.547 114.488L174.129 109.857C174.129 109.857 169.192 114.926 176.725 113.941C176.882 113.925 176.939 114.067 176.816 114.132Z" fill="#399165" stroke="#020202" stroke-width="0.405164" stroke-miterlimit="10"/>
<path id="Vector_55" d="M41.5938 118.832L41.5156 132.721C41.5156 132.721 41.4827 145.686 49.2746 152.574C49.2746 152.574 57.1734 160.531 72.7242 157.545C72.7242 157.545 85.1443 154.709 87.3823 153.546C87.3823 153.546 90.9121 144.228 90.7928 140.464C90.6735 136.7 94.8697 134.504 96.4824 134.654C96.4824 134.654 99.9258 134.654 100.74 138.9C100.74 138.981 100.769 139.066 100.786 139.155C101.51 143.665 99.823 148.563 98.7904 150.467C98.7904 150.467 97.116 153.68 96.322 154.28C95.528 154.879 96.3467 157.594 96.3467 157.594" stroke="#020202" stroke-width="0.405164" stroke-miterlimit="10"/>
<path id="Vector_56" d="M6.99406 125.125C6.99406 125.125 4.82599 134.877 7.75925 142.519C7.75925 142.519 14.5185 159.831 31.357 170.013C31.357 170.013 40.2596 176.763 56.551 174.685C72.8423 172.606 75.8496 172.529 80.9962 173.745" stroke="#020202" stroke-width="0.405164" stroke-miterlimit="10" stroke-linecap="round"/>
<path id="Vector_57" d="M178.82 113.937C180.338 114.521 185.686 116.863 188.011 121.741C188.017 121.758 188.029 121.772 188.044 121.782C188.059 121.792 188.077 121.798 188.095 121.798C188.113 121.798 188.131 121.792 188.146 121.782C188.161 121.772 188.173 121.758 188.179 121.741C188.442 120.266 190.557 113.852 207.301 113.759C207.315 113.76 207.328 113.757 207.341 113.751C207.353 113.746 207.364 113.737 207.373 113.726C207.381 113.716 207.387 113.703 207.389 113.69C207.392 113.676 207.391 113.663 207.387 113.65C207.087 112.617 204.693 104.606 202.862 102.71C200.928 100.684 187.998 113.176 178.853 113.796C178.839 113.801 178.828 113.809 178.818 113.82C178.809 113.831 178.802 113.844 178.799 113.858C178.796 113.872 178.796 113.886 178.8 113.9C178.803 113.914 178.81 113.927 178.82 113.937Z" fill="#3AA06A" stroke="#020202" stroke-width="0.405164" stroke-miterlimit="10"/>
<path id="Vector_58" d="M3.22551 124.363C3.51392 124.979 4.01033 125.477 4.63002 125.773C5.24971 126.068 5.95431 126.143 6.62365 125.984C13.7449 124.331 35.5984 119.611 41.5924 122.568C48.7919 126.118 46.2906 99.8225 46.2906 99.8225C46.2906 99.8225 42.4399 79.386 21.7425 85.2366C2.18056 90.7671 -2.69038 111.451 3.22551 124.363Z" fill="#7EA5DC"/>
<path id="Vector_59" d="M56.4023 65.9297H61.0141V84.6321C61.0141 85.1865 60.7905 85.7183 60.3923 86.1104C59.9942 86.5024 59.4543 86.7227 58.8913 86.7227C58.2367 86.7227 57.6088 86.4666 57.1459 86.0107C56.683 85.5548 56.4229 84.9365 56.4229 84.2917V65.9297H56.4023Z" fill="#6086BB" stroke="#020202" stroke-width="0.405164" stroke-miterlimit="10"/>
<path id="Vector_60" d="M59.7064 66.1642C60.4304 66.7435 62.9975 69.0854 64.096 73.9636C64.096 74.0446 64.17 74.0324 64.1741 73.9636C64.3017 72.4847 65.3137 66.075 73.3113 65.9818C73.336 65.9818 73.3606 65.9251 73.3524 65.8684C73.2043 64.8393 72.0606 56.8292 71.1843 54.929C70.2587 52.9234 64.0877 65.3984 59.7187 66.0183C59.6735 66.0021 59.6652 66.1277 59.7064 66.1642Z" fill="#6086BB" stroke="#020202" stroke-width="0.405164" stroke-miterlimit="10"/>
<path id="Vector_61" d="M59.4339 66.1676C57.9076 66.8807 52.5265 69.7533 50.1857 75.7335C50.1814 75.7524 50.1707 75.7693 50.1554 75.7814C50.14 75.7935 50.121 75.8001 50.1013 75.8001C50.0817 75.8001 50.0626 75.7935 50.0473 75.7814C50.0319 75.7693 50.0213 75.7524 50.017 75.7335C49.7496 73.9265 47.6268 66.0541 30.7677 65.9407C30.7522 65.9385 30.7373 65.933 30.7242 65.9245C30.7111 65.9161 30.7 65.9049 30.6918 65.8917C30.6835 65.8786 30.6783 65.8638 30.6765 65.8485C30.6747 65.8331 30.6763 65.8176 30.6813 65.8029C30.9858 64.5388 33.3965 54.7136 35.2437 52.3717C37.1896 49.9083 50.1939 65.2033 59.3969 65.9771C59.4163 65.9829 59.4337 65.9938 59.4473 66.0086C59.4609 66.0235 59.4701 66.0417 59.4739 66.0613C59.4777 66.0809 59.476 66.1012 59.4689 66.1199C59.4619 66.1387 59.4498 66.1552 59.4339 66.1676Z" fill="#6086BB" stroke="#020202" stroke-width="0.405164" stroke-miterlimit="10"/>
<path id="Vector_62" d="M1.44759 106.425C1.44759 106.425 -0.362535 116.765 3.26599 124.252C3.57544 124.897 4.09842 125.418 4.74892 125.731C5.39941 126.044 6.13869 126.13 6.84515 125.974C13.0902 124.58 30.6198 120.897 37.9262 121.74C37.9262 121.74 40.4727 121.995 41.5959 122.587C42.719 123.178 41.7069 122.64 41.7069 122.64C41.7069 122.64 44.5085 124.596 45.5247 120.099C46.5408 115.602 48.5567 97.3087 42.2747 90.9922" stroke="black" stroke-width="0.405164" stroke-miterlimit="10"/>
<path id="Vector_63" d="M58.8237 71.8083C59.4168 71.8083 59.8975 71.3349 59.8975 70.7508C59.8975 70.1668 59.4168 69.6934 58.8237 69.6934C58.2307 69.6934 57.75 70.1668 57.75 70.7508C57.75 71.3349 58.2307 71.8083 58.8237 71.8083Z" fill="#3C464D" stroke="black" stroke-width="0.405164" stroke-miterlimit="10"/>
<path id="Vector_64" d="M58.8237 79.9372C59.4168 79.9372 59.8975 79.4638 59.8975 78.8797C59.8975 78.2957 59.4168 77.8223 58.8237 77.8223C58.2307 77.8223 57.75 78.2957 57.75 78.8797C57.75 79.4638 58.2307 79.9372 58.8237 79.9372Z" fill="#3C464D" stroke="black" stroke-width="0.405164" stroke-miterlimit="10"/>
<path id="Vector_65" d="M177.957 117.523C178.55 117.523 179.03 117.05 179.03 116.466C179.03 115.882 178.55 115.408 177.957 115.408C177.364 115.408 176.883 115.882 176.883 116.466C176.883 117.05 177.364 117.523 177.957 117.523Z" fill="#3C464D" stroke="black" stroke-width="0.405164" stroke-miterlimit="10"/>
<path id="Vector_66" d="M176.359 128.603C176.952 128.603 177.433 128.13 177.433 127.546C177.433 126.962 176.952 126.488 176.359 126.488C175.766 126.488 175.285 126.962 175.285 127.546C175.285 128.13 175.766 128.603 176.359 128.603Z" fill="#3C464D" stroke="black" stroke-width="0.405164" stroke-miterlimit="10"/>
<path id="Vector_67" d="M175.285 139.685C175.878 139.685 176.358 139.212 176.358 138.628C176.358 138.044 175.878 137.57 175.285 137.57C174.692 137.57 174.211 138.044 174.211 138.628C174.211 139.212 174.692 139.685 175.285 139.685Z" fill="#3C464D" stroke="black" stroke-width="0.405164" stroke-miterlimit="10"/>
<path id="Vector_68" d="M175.285 150.763C175.878 150.763 176.358 150.29 176.358 149.706C176.358 149.122 175.878 148.648 175.285 148.648C174.692 148.648 174.211 149.122 174.211 149.706C174.211 150.29 174.692 150.763 175.285 150.763Z" fill="#3C464D" stroke="black" stroke-width="0.405164" stroke-miterlimit="10"/>
<path id="Vector_69" d="M176.359 160.98C176.952 160.98 177.433 160.507 177.433 159.923C177.433 159.339 176.952 158.865 176.359 158.865C175.766 158.865 175.285 159.339 175.285 159.923C175.285 160.507 175.766 160.98 176.359 160.98Z" fill="#3C464D" stroke="black" stroke-width="0.405164" stroke-miterlimit="10"/>
<path id="Vector_70" d="M177.863 171.718C178.456 171.718 178.937 171.245 178.937 170.661C178.937 170.077 178.456 169.604 177.863 169.604C177.27 169.604 176.789 170.077 176.789 170.661C176.789 171.245 177.27 171.718 177.863 171.718Z" fill="#3C464D" stroke="black" stroke-width="0.405164" stroke-miterlimit="10"/>
<path id="Vector_71" d="M178.765 184.25C179.358 184.25 179.839 183.776 179.839 183.192C179.839 182.608 179.358 182.135 178.765 182.135C178.172 182.135 177.691 182.608 177.691 183.192C177.691 183.776 178.172 184.25 178.765 184.25Z" fill="#3C464D" stroke="black" stroke-width="0.405164" stroke-miterlimit="10"/>
<path id="Vector_72" d="M177.863 198.357C178.456 198.357 178.937 197.884 178.937 197.3C178.937 196.716 178.456 196.242 177.863 196.242C177.27 196.242 176.789 196.716 176.789 197.3C176.789 197.884 177.27 198.357 177.863 198.357Z" fill="#3C464D" stroke="black" stroke-width="0.405164" stroke-miterlimit="10"/>
<path id="Vector_73" d="M72.0352 84.6272L73.0225 93.3423L79.1112 95.5221L82.9166 92.8521C83.5419 92.4145 83.6942 91.6366 83.6078 90.883L83.0195 84.1248C82.9923 83.8858 82.9021 83.6579 82.7577 83.4638C82.6134 83.2697 82.4199 83.1163 82.1967 83.0187C80.6518 82.3741 78.9639 82.134 77.2969 82.3219C73.5121 82.6379 72.0352 84.6272 72.0352 84.6272Z" fill="#6086BB" stroke="#020202" stroke-width="0.405164" stroke-miterlimit="10"/>
</g>
</svg>
