<svg width="228" height="216" viewBox="0 0 228 216" fill="none" xmlns="http://www.w3.org/2000/svg">
<g id="Group">
<path id="Vector" d="M136.387 81.5622C139.706 82.537 144.633 84.534 146.636 85.2683C153.043 87.6217 159.898 96.3266 174.383 101.729C183.342 105.074 202.586 107.445 208.058 111.928C225.078 125.924 212.259 178.132 211.603 178.132C210.947 178.132 168.622 169.238 170.492 144.76C173.235 108.841 146.8 108.497 137.973 106.895C135.394 106.431 132.501 100.922 128.074 96.6272C140.131 108.321 103.159 71.8309 136.387 81.5622Z" fill="#B77F76" stroke="#020202" stroke-width="0.429447" stroke-miterlimit="10"/>
<g id="Vector_2">
<path d="M208.956 140.264C208.956 140.264 227.841 164.669 223.725 176.814C219.608 188.959 191.379 184.183 194.356 173.378C197.334 162.573 211.814 167.151 211.814 167.151" fill="#B77F76"/>
<path d="M208.956 140.264C208.956 140.264 227.841 164.669 223.725 176.814C219.608 188.959 191.379 184.183 194.356 173.378C197.334 162.573 211.814 167.151 211.814 167.151" stroke="#020202" stroke-width="0.429447" stroke-miterlimit="10"/>
</g>
<g id="Vector_3">
<path d="M203.6 128.201C203.6 128.201 226.911 149.695 225.161 162.437C223.411 175.178 190.923 174.461 191.734 163.188C192.545 151.915 208.044 155.664 208.044 155.664" fill="#B77F76"/>
<path d="M203.6 128.201C203.6 128.201 226.911 149.695 225.161 162.437C223.411 175.178 190.923 174.461 191.734 163.188C192.545 151.915 208.044 155.664 208.044 155.664" stroke="#020202" stroke-width="0.429447" stroke-miterlimit="10"/>
</g>
<g id="Vector_4">
<path d="M197.735 108.287C197.735 108.287 228.752 131.791 227.475 147.367C226.199 162.943 188.39 164.545 188.602 150.837C188.815 137.129 208.697 141.14 208.697 141.14" fill="#B77F76"/>
<path d="M197.735 108.287C197.735 108.287 228.752 131.791 227.475 147.367C226.199 162.943 188.39 164.545 188.602 150.837C188.815 137.129 208.697 141.14 208.697 141.14" stroke="#020202" stroke-width="0.429447" stroke-miterlimit="10"/>
</g>
<g id="Vector_5">
<path d="M193.304 104.959C193.304 104.959 222.136 115.021 226.093 131.306C230.05 147.59 186.343 156.798 181.956 142.75C177.569 128.703 203.787 130.868 203.787 130.868" fill="#B77F76"/>
<path d="M193.304 104.959C193.304 104.959 222.136 115.021 226.093 131.306C230.05 147.59 186.343 156.798 181.956 142.75C177.569 128.703 203.787 130.868 203.787 130.868" stroke="#020202" stroke-width="0.429447" stroke-miterlimit="10"/>
</g>
<g id="Vector_6">
<path d="M208.108 114.063C208.108 114.063 235.137 80.3768 208.108 73.351C181.079 66.3253 204.975 102.888 190.149 107.037C175.323 111.185 171.375 106.238 171.375 106.238" fill="#B77F76"/>
<path d="M208.108 114.063C208.108 114.063 235.137 80.3768 208.108 73.351C181.079 66.3253 204.975 102.888 190.149 107.037C175.323 111.185 171.375 106.238 171.375 106.238" stroke="#020202" stroke-width="0.429447" stroke-miterlimit="10"/>
</g>
<path id="Vector_7" d="M133.094 105.933C136.47 113.509 151.513 88.893 149.559 83.6023C147.605 78.3115 121.937 70.2894 121.937 70.2894C121.937 70.2894 105.294 66.5017 99.9589 69.3403L67.0766 71.0581C61.4701 71.1069 55.8816 71.6821 50.3895 72.7759V112.684C54.0761 108.059 54.342 104.297 54.3774 104.095C54.3375 104.847 52.0954 146.748 53.0481 152.941C54.0008 159.133 43.043 185.742 43.043 185.742L138.597 188.16C138.597 188.16 118.113 150.665 121.046 136.841C123.979 123.017 121.046 97.2673 121.046 97.2673C121.046 97.2673 129.713 98.358 133.094 105.933Z" fill="#76B899"/>
<path id="Vector_8" d="M71.2773 49.0438V69.683C71.2773 69.683 83.7949 79.4486 95.6478 71.8861V46.9782C95.6478 46.9782 84.1183 39.1193 71.2773 49.0438Z" fill="#B77F76" stroke="#020202" stroke-width="0.429447" stroke-miterlimit="10"/>
<path id="Vector_9" d="M62.4496 24.7731C62.4496 24.7731 59.246 19.7614 57.4116 23.1283C55.5772 26.4951 58.6301 30.4675 59.9328 32.4988C61.2355 34.5301 64.6385 37.9828 64.5189 34.4657C64.3992 30.9485 62.4496 24.7731 62.4496 24.7731Z" fill="#B77F76" stroke="#020202" stroke-width="0.429447" stroke-miterlimit="10"/>
<path id="Vector_10" d="M100.885 25.3102C100.885 25.3102 104.088 20.2985 105.918 23.6654C107.748 27.0322 104.687 30.9875 103.402 33.0359C102.117 35.0844 98.6959 38.5199 98.8156 35.0028C98.9352 31.4856 100.885 25.3102 100.885 25.3102Z" fill="#B77F76" stroke="#020202" stroke-width="0.429447" stroke-miterlimit="10"/>
<path id="Vector_11" d="M66.6863 13.048C66.6863 13.048 60.8241 18.2357 60.8595 27.6492C60.8595 31.2566 61.7458 35.4823 64.1651 40.2707C72.8631 57.5516 81.3351 55.1725 88.6595 51.9645C95.9839 48.7565 103.534 37.0627 102.839 27.7523C102.143 18.4419 102.613 14.7143 96.3163 10.145C90.0198 5.57565 74.9235 3.93087 66.6863 13.048Z" fill="#B77F76" stroke="#020202" stroke-width="0.429447" stroke-miterlimit="10"/>
<path id="Vector_12" d="M62.4919 30.222C62.1285 29.7582 61.1625 30.1189 61.0739 30.6815C60.3295 35.6244 64.4459 43.6121 65.3144 49.1477C66.5728 57.2213 85.8963 68.0434 94.1468 57.6078C102.397 47.1723 103.642 32.7257 102.539 29.9987C102.539 29.9987 101.174 29.6165 100.284 34.7226C99.7121 37.9778 98.8835 37.4109 94.7228 43.4103C93.2872 45.4845 84.8816 56.4139 75.612 48.7569C66.3424 41.0999 66.0367 33.1336 62.4919 30.222Z" fill="black" stroke="black" stroke-width="0.429447" stroke-miterlimit="10"/>
<path id="Vector_13" d="M74.4668 50.501C74.4668 50.501 71.4892 41.1905 78.242 39.8464C84.9948 38.5022 90.3741 39.2237 91.6325 41.7102C92.8909 44.1967 93.1213 48.9507 93.1213 48.9507L94.7208 43.3979C94.7208 43.3979 95.1019 35.9513 84.2682 36.1403C73.4344 36.3292 72.0608 42.4317 72.0608 42.4317C72.0608 42.4317 71.2632 46.4685 74.4668 50.501Z" fill="black" stroke="black" stroke-width="0.429447" stroke-miterlimit="10"/>
<g id="Vector_14">
<path d="M80.3164 34.9375C80.3164 34.9375 81.9426 37.7676 84.1537 37.4841C86.3647 37.2007 87.1844 34.9375 87.1844 34.9375" fill="#B77F76"/>
<path d="M80.3164 34.9375C80.3164 34.9375 81.9426 37.7676 84.1537 37.4841C86.3647 37.2007 87.1844 34.9375 87.1844 34.9375" stroke="#020202" stroke-width="0.429447" stroke-miterlimit="10"/>
</g>
<path id="Vector_15" d="M87.4039 23.8023C87.3894 23.8091 87.3735 23.8127 87.3574 23.8127C87.3412 23.8127 87.3253 23.8091 87.3108 23.8023C87.1009 23.7816 86.9036 23.6957 86.7481 23.5575C86.5974 23.4029 86.5221 23.1581 86.7481 22.7759C86.7706 22.7439 86.7974 22.715 86.8278 22.69C87.5583 22.3898 88.3126 22.1471 89.0832 21.9643C89.4244 21.887 89.7611 21.8182 90.1068 21.7624C90.5548 21.6818 91.0077 21.6287 91.4627 21.6035C91.4627 21.6035 91.6089 21.6035 91.857 21.6035C92.1857 21.6273 92.5118 21.6776 92.8318 21.7538C93.6279 21.9505 94.3863 22.2694 95.0783 22.6986C95.4439 22.8981 95.787 23.1341 96.1019 23.4029C96.2703 23.5618 96.2924 23.6434 96.1994 23.6649C95.6818 23.6108 95.1755 23.482 94.6973 23.2827C94.1643 23.1089 93.6213 22.9655 93.0711 22.8532C92.6885 22.7837 92.2992 22.7549 91.9102 22.7673C91.7337 22.7739 91.5576 22.7897 91.3829 22.8146C91.055 22.8403 90.7182 22.8876 90.377 22.9477C90.0359 23.0078 89.7567 23.0636 89.451 23.1366C88.751 23.3038 88.0663 23.5264 87.4039 23.8023Z" fill="#202020"/>
<path id="Vector_16" d="M79.4027 23.9822C79.4193 23.9902 79.4375 23.9943 79.456 23.9943C79.4744 23.9943 79.4926 23.9902 79.5091 23.9822C79.7563 23.9586 79.9862 23.8487 80.156 23.673C80.3288 23.4755 80.4086 23.1577 80.156 22.6466C80.1293 22.6037 80.0965 22.5647 80.0586 22.5307C79.2047 22.1216 78.315 21.7867 77.4 21.5301C77.0056 21.4184 76.6068 21.3196 76.208 21.238C75.6889 21.1212 75.1617 21.0408 74.6306 20.9976C74.483 20.9904 74.3351 20.9904 74.1875 20.9976C73.8045 21.0211 73.4246 21.08 73.0531 21.1736C72.1293 21.4199 71.2578 21.8226 70.4788 22.3632C70.0533 22.6196 69.6593 22.9222 69.3046 23.265C69.114 23.4712 69.0963 23.5742 69.1982 23.6086C69.4109 23.6773 70.1154 23.4282 70.9307 23.1405C71.5454 22.9279 72.1728 22.7515 72.8095 22.6123C73.2473 22.531 73.6937 22.5021 74.1388 22.5264C74.3453 22.5401 74.5508 22.5645 74.7546 22.5994C75.1496 22.6437 75.5416 22.7097 75.9289 22.7969C76.2922 22.8742 76.6511 22.9644 77.0056 23.0632C77.8303 23.3026 78.6322 23.6101 79.4027 23.9822Z" fill="#202020"/>
<g id="Vector_17">
<path d="M102.914 25.674C102.914 25.674 104.788 24.4158 104.164 27.1127C103.539 29.8096 103.774 29.4961 103.774 29.4961" fill="#B77F76"/>
<path d="M102.914 25.674C102.914 25.674 104.788 24.4158 104.164 27.1127C103.539 29.8096 103.774 29.4961 103.774 29.4961" stroke="#020202" stroke-width="0.429447" stroke-miterlimit="10"/>
</g>
<path id="Vector_18" d="M67.2955 6.976C67.2955 6.976 68.5184 11.803 79.8839 13.7355C91.2494 15.668 95.9064 10.0809 99.4954 13.7355C103.085 17.3901 101.658 25.1674 101.658 25.1674C101.658 25.1674 100.577 36.4318 103.248 27.744C105.663 19.8895 104.223 8.93857 100.333 6.45637C96.4425 3.97417 61.4997 -5.71415 67.2955 6.976Z" fill="black" stroke="black" stroke-width="0.429447" stroke-miterlimit="10"/>
<path id="Vector_19" d="M62.1949 11.8113L62.4342 11.5579C63.0501 10.8751 66.9272 7.13888 69.1427 8.82231C71.3582 10.5057 70.379 12.2579 65.496 17.7119C63.9557 19.4108 63.1399 21.6139 63.2141 23.8744C63.2451 24.6904 63.1919 26.4082 63.2982 27.7394C63.7413 33.3223 60.8435 31.8965 59.9307 27.4302C59.43 25.0039 58.5216 15.7106 62.1949 11.8113Z" fill="black" stroke="black" stroke-width="0.429447" stroke-miterlimit="10"/>
<path id="Vector_20" d="M60.5792 25.0975C60.5792 25.0975 57.6238 24.2773 58.8068 27.6527C59.9899 31.0282 59.9456 29.9288 59.9456 29.9288" stroke="#020202" stroke-width="0.429447" stroke-miterlimit="10"/>
<path id="Vector_21" d="M102.938 90.3919L103.279 99.6851L110.142 102.451L116.062 99.2471L115.721 89.9538C115.721 89.9538 113.683 88.3134 109.265 88.3563C104.847 88.3992 102.938 90.3919 102.938 90.3919Z" fill="#3AA06A" stroke="#020202" stroke-width="0.429447" stroke-miterlimit="10"/>
<path id="Vector_22" d="M101.383 66.1504H71.1641V79.343H101.383V66.1504Z" fill="#76B899"/>
<g id="Vector_23">
<path d="M29.8786 161.298C29.8786 161.298 4.26748 139.568 39.4229 120.006C55.4941 111.061 27.2156 82.9149 7.48882 117.193C-2.98159 135.385 -3.92099 188.971 26.2895 204.942" fill="#B77F76"/>
<path d="M29.8786 161.298C29.8786 161.298 4.26748 139.568 39.4229 120.006C55.4941 111.061 27.2156 82.9149 7.48882 117.193C-2.98159 135.385 -3.92099 188.971 26.2895 204.942" stroke="#020202" stroke-width="0.429447" stroke-miterlimit="10"/>
</g>
<path id="Vector_24" d="M8.67252 112.083L29.6532 128.677C29.941 128.906 30.2765 129.071 30.6367 129.162C30.9968 129.252 31.373 129.266 31.7391 129.202C32.1052 129.138 32.4527 128.997 32.7573 128.79C33.062 128.583 33.3166 128.315 33.5037 128.003C34.7045 125.963 37.3277 122.936 43.0481 119.186C45.8433 117.403 48.3265 115.198 50.4035 112.655V72.7461C43.3848 74.2148 36.2554 76.9461 33.681 82.0221C29.1614 90.9375 12.8553 101.377 8.09647 107.591C7.5778 108.268 7.34823 109.113 7.45551 109.949C7.56279 110.786 7.9987 111.55 8.67252 112.083Z" fill="#76B899"/>
<path id="Vector_25" d="M50.1099 167.461C50.1099 167.461 52.8749 157.751 53.0211 155.127C53.1673 152.503 52.7995 145.937 52.7995 145.937L53.1895 129.875L54.3415 104.186C54.3415 104.186 53.2338 110.542 49.0243 114.261C44.8149 117.98 46.2727 116.799 42.5684 119.513C38.8641 122.227 36.0593 124.366 34.3667 126.74C32.674 129.115 32.1068 129.944 29.6698 128.677C27.2327 127.41 10.8115 113.398 9.22082 112.504C7.6301 111.611 6.33624 108.897 8.9904 106.539C11.6446 104.182 15.3267 99.8056 18.774 97.7142C21.7915 95.8804 29.5679 87.4504 31.451 85.389C31.726 85.0908 31.9722 84.7688 32.1866 84.4271L34.5527 80.7038C35.2392 79.621 36.1325 78.675 37.1848 77.9167C40.3062 75.6858 43.891 74.1398 47.6906 73.386C55.3473 71.9001 63.8548 70.4958 68.72 71.1271C73.5853 71.7584 102.812 67.8075 107.925 68.2842C113.039 68.7609 121.413 69.4694 128.751 72.5786C136.089 75.6878 141.246 76.74 146.067 80.24C150.888 83.74 149.856 83.7571 149.266 87.678C148.677 91.5988 140.679 104.645 137.892 106.007C137.892 106.007 136.474 107.162 135.836 107.226C135.198 107.291 134.467 107.901 133.333 106.368C132.198 104.834 133.009 104.379 129.788 101.39C126.567 98.4013 121.723 97.2117 121.059 97.2503C121.059 97.2503 123.15 116.979 122.162 124.765C122.162 124.765 122.074 133.543 121.165 136.287C120.257 139.031 121.077 145.348 121.537 146.452C121.998 147.556 124.125 157.042 125.645 159.439" stroke="black" stroke-width="0.429447" stroke-miterlimit="10"/>
<path id="Vector_26" d="M80.4922 62.4043C80.4922 62.4043 89.5092 64.2681 90.6835 62.9883C90.8784 62.7822 97.1217 112.804 96.1158 139C95.582 154.972 96.0006 170.959 97.3698 186.884L87.6216 186.188C87.6216 186.188 91.1177 117.434 80.4922 62.4043Z" fill="#3AA06A" stroke="#020202" stroke-width="0.429447" stroke-miterlimit="10"/>
<path id="Vector_27" d="M68.175 57.7232C67.625 57.2776 66.9374 57.0222 66.2209 56.9975C64.4087 56.9588 61.4887 57.6932 62.4014 63.0742C63.2345 68.0128 62.5654 70.8557 61.9583 72.2514C61.9189 72.356 61.9081 72.4687 61.927 72.5785C61.9459 72.6883 61.9938 72.7915 62.0661 72.878C62.1384 72.9645 62.2326 73.0314 62.3396 73.0721C62.4465 73.1128 62.5624 73.126 62.6762 73.1103C65.7335 72.6809 73.439 72.1054 78.9202 75.9189C79.0653 76.0221 79.2354 76.0873 79.4141 76.1081C79.5928 76.129 79.774 76.1047 79.9402 76.0378C80.1064 75.9709 80.252 75.8635 80.3628 75.726C80.4737 75.5886 80.546 75.4258 80.5729 75.2533C81.047 72.2085 82.5447 66.1533 87.1352 63.4306C87.1574 63.4435 73.0137 61.5324 68.175 57.7232Z" fill="#399165" stroke="#020202" stroke-width="0.429447" stroke-miterlimit="10"/>
<path id="Vector_28" d="M87.3359 63.496C87.3359 63.496 92.0594 69.2377 94.0799 76.3794C94.1001 76.5026 94.1649 76.6148 94.2628 76.6959C94.3606 76.7769 94.4851 76.8214 94.6139 76.8214C94.7426 76.8214 94.8671 76.7769 94.9649 76.6959C95.0628 76.6148 95.1276 76.5026 95.1478 76.3794C95.901 74.0604 97.8064 70.8739 102.565 70.3671C102.565 70.3671 105.295 69.2849 103.7 63.6248C103.485 62.8148 103.403 61.9773 103.456 61.1426C103.527 59.8543 102.836 58.6776 101.763 58.3126C100.691 57.9475 99.0647 58.0807 96.7473 59.777C91.6074 63.5046 87.3359 63.496 87.3359 63.496Z" fill="#399165" stroke="#020202" stroke-width="0.429447" stroke-miterlimit="10"/>
<path id="Vector_29" d="M51.8057 213.715C51.8057 213.715 149.903 223.378 147.577 200.188C147.577 200.188 146.66 195.236 136.863 195.52C136.863 195.52 150.723 196.065 153.164 190.495C155.606 184.925 153.909 179.849 140.669 178.642C140.669 178.642 145.543 176.989 147.041 175.207C148.663 172.931 148.162 169.791 145.623 168.525C142.65 167.043 138.356 166.592 138.356 166.592C138.356 166.592 141.741 165.398 143.385 162.603C146.221 157.784 131.346 151.291 116.454 160.52C113.443 162.378 110.223 163.896 106.856 165.046C91.5959 170.281 60.0207 176.392 48.5001 167.88C12.2857 141.1 -12.5278 204.362 51.8057 213.715Z" fill="#B77F76" stroke="#020202" stroke-width="0.429447" stroke-miterlimit="10"/>
<path id="Vector_30" d="M138.363 166.572C138.363 166.572 133.369 164.906 119.496 172.266C118.692 172.694 117.862 173.073 117.01 173.4C113.31 174.822 103.42 178.253 97.0703 177.085" stroke="black" stroke-width="0.429447" stroke-miterlimit="10"/>
<path id="Vector_31" d="M140.671 178.63C140.671 178.63 129.053 176.676 120.993 182.1C112.933 187.524 99.4492 187.627 99.4492 187.627" stroke="black" stroke-width="0.429447" stroke-miterlimit="10"/>
<path id="Vector_32" d="M134.629 172.416L42.9297 167.973L42.509 176.128L134.208 180.572L134.629 172.416Z" fill="#3C464D"/>
<path id="Vector_33" d="M138.862 175.156C137.511 166.808 122.069 168.534 119.809 165.537C118.519 163.819 116.468 160.602 114.935 158.18C114.329 157.209 113.487 156.397 112.483 155.813C111.479 155.229 110.344 154.892 109.175 154.831L86.5765 153.684C77.2449 153.212 70.9484 164.789 70.9484 164.789C70.9484 164.789 70.9484 165.842 56.8934 164.132C34.0561 161.358 35.9525 174.066 35.9525 174.066L45.5944 174.667C46.0552 173.222 47.0051 171.97 48.2906 171.112C49.5761 170.255 51.1222 169.843 52.6793 169.942C54.2363 170.041 55.7134 170.647 56.872 171.66C58.0306 172.673 58.803 174.035 59.0646 175.526L115.338 179.051C115.628 177.416 116.532 175.943 117.876 174.915C119.22 173.887 120.909 173.377 122.618 173.484C124.326 173.59 125.934 174.306 127.131 175.492C128.328 176.679 129.029 178.252 129.101 179.91L139.292 180.55C139.292 180.55 139.602 179.721 138.862 175.156ZM91.0917 165.305L76.3631 164.545H76.0131C76.0131 164.545 80.3377 156.639 84.5826 156.737C88.8275 156.836 91.8272 157.107 91.8272 157.107L91.0917 165.305ZM115.905 166.563L101.168 165.833L101.314 157.596C101.314 157.596 104.327 157.635 108.563 157.966C112.799 158.296 116.246 166.597 116.246 166.597L115.905 166.563Z" fill="#3C464D"/>
<path id="Vector_34" d="M45.3087 176.289C45.3404 175.705 45.4522 175.127 45.641 174.572L35.9549 174.082L35.8619 175.8C35.8493 176.034 35.8845 176.269 35.9654 176.49C36.0464 176.711 36.1715 176.914 36.3336 177.089C36.4957 177.263 36.6917 177.405 36.9103 177.505C37.1289 177.606 37.3659 177.664 37.6076 177.676L45.4505 178.072C45.32 177.487 45.2724 176.887 45.3087 176.289Z" fill="#020202"/>
<path id="Vector_35" d="M115.434 181.593C115.152 180.438 115.19 179.232 115.545 178.097L59.0186 175.232C59.2721 176.392 59.2065 177.596 58.8281 178.724L115.434 181.593Z" fill="#020202"/>
<path id="Vector_36" d="M129 178.781C129.232 179.946 129.14 181.149 128.734 182.268L138.483 182.762C138.623 182.77 138.764 182.75 138.897 182.705C139.031 182.66 139.153 182.589 139.258 182.498C139.363 182.406 139.448 182.296 139.509 182.173C139.57 182.049 139.605 181.915 139.612 181.779L139.719 179.795C139.726 179.673 139.684 179.553 139.601 179.46C139.518 179.368 139.401 179.311 139.276 179.301L129 178.781Z" fill="#020202"/>
<path id="Vector_37" d="M52.3229 182.93C55.9056 182.93 58.8099 180.115 58.8099 176.643C58.8099 173.17 55.9056 170.355 52.3229 170.355C48.7403 170.355 45.8359 173.17 45.8359 176.643C45.8359 180.115 48.7403 182.93 52.3229 182.93Z" fill="#020202"/>
<path id="Vector_38" d="M52.3244 179.713C54.0741 179.713 55.4926 178.339 55.4926 176.643C55.4926 174.947 54.0741 173.572 52.3244 173.572C50.5747 173.572 49.1562 174.947 49.1562 176.643C49.1562 178.339 50.5747 179.713 52.3244 179.713Z" fill="#6B6868"/>
<path id="Vector_39" d="M122.174 186.473C125.757 186.473 128.661 183.658 128.661 180.186C128.661 176.713 125.757 173.898 122.174 173.898C118.592 173.898 115.688 176.713 115.688 180.186C115.688 183.658 118.592 186.473 122.174 186.473Z" fill="#020202"/>
<path id="Vector_40" d="M122.176 183.256C123.926 183.256 125.344 181.882 125.344 180.186C125.344 178.49 123.926 177.115 122.176 177.115C120.426 177.115 119.008 178.49 119.008 180.186C119.008 181.882 120.426 183.256 122.176 183.256Z" fill="#6B6868"/>
<path id="Vector_41" d="M94.4189 152.719L99.9058 152.997C100.565 153.03 101.184 153.316 101.626 153.791C102.068 154.267 102.297 154.893 102.263 155.533L100.855 181.65L90.1335 181.108L91.5283 155.226C91.5472 154.876 91.637 154.533 91.7925 154.217C91.948 153.901 92.1662 153.618 92.4347 153.383C92.7032 153.149 93.0167 152.968 93.3573 152.851C93.6979 152.734 94.0589 152.683 94.4198 152.702L94.4189 152.719Z" fill="#5ABCE3"/>
<path id="Vector_42" d="M106.353 146.752C106.353 146.752 102.298 152.764 95.4258 151.089C95.4258 151.089 117.505 159.391 106.353 146.752Z" fill="#40869B"/>
<path id="Vector_43" d="M95.4258 151.09C95.4258 151.09 103.433 140.783 109.224 150.892C109.224 150.892 102.086 134.865 98.235 142.234L95.4258 151.09Z" fill="#5ABCE3"/>
<path id="Vector_44" d="M85.4653 145.326C85.4653 145.326 88.2037 151.472 94.797 151.003C94.797 151.003 73.1294 155.234 85.4653 145.326Z" fill="#40869B"/>
<path id="Vector_45" d="M94.7955 151.004C94.7955 151.004 89.1283 140.306 82.1406 148.689C82.1406 148.689 91.3438 135.058 93.6612 142.428L94.7955 151.004Z" fill="#5ABCE3"/>
<path id="Vector_46" d="M94.158 149.41C93.2364 149.517 92.6515 150.29 92.9217 151.046C93.147 151.724 93.5268 152.345 94.0331 152.861C94.5393 153.378 95.159 153.778 95.8462 154.031C97.8978 154.778 99.8341 152.978 100.942 151.686C101.474 151.05 101.137 150.157 100.255 149.891C98.2804 149.316 96.2026 149.152 94.158 149.41Z" fill="#5ABCE3"/>
<path id="Vector_47" d="M136.863 195.508C136.863 195.508 119.316 199.399 101.57 199.613" stroke="black" stroke-width="0.429447" stroke-miterlimit="10"/>
<g id="Vector_48">
<path d="M33.625 194.008C33.625 194.008 65.6654 179.733 68.6298 171.484C71.5941 163.234 95.6987 161.344 87.4881 180.287C79.2775 199.23 60.561 200.858 60.561 200.858" fill="#B77F76"/>
<path d="M33.625 194.008C33.625 194.008 65.6654 179.733 68.6298 171.484C71.5941 163.234 95.6987 161.344 87.4881 180.287C79.2775 199.23 60.561 200.858 60.561 200.858" stroke="#020202" stroke-width="0.429447" stroke-miterlimit="10"/>
</g>
<path id="Vector_49" d="M87.3342 75.9924C88.0365 75.9924 88.6059 75.4406 88.6059 74.7599C88.6059 74.0792 88.0365 73.5273 87.3342 73.5273C86.6319 73.5273 86.0625 74.0792 86.0625 74.7599C86.0625 75.4406 86.6319 75.9924 87.3342 75.9924Z" fill="#3C464D" stroke="black" stroke-width="0.429447" stroke-miterlimit="10"/>
<path id="Vector_50" d="M89.1428 90.8849C89.8451 90.8849 90.4145 90.3331 90.4145 89.6524C90.4145 88.9717 89.8451 88.4199 89.1428 88.4199C88.4404 88.4199 87.8711 88.9717 87.8711 89.6524C87.8711 90.3331 88.4404 90.8849 89.1428 90.8849Z" fill="#3C464D" stroke="black" stroke-width="0.429447" stroke-miterlimit="10"/>
<path id="Vector_51" d="M90.678 104.774C91.3803 104.774 91.9497 104.222 91.9497 103.541C91.9497 102.86 91.3803 102.309 90.678 102.309C89.9757 102.309 89.4062 102.86 89.4062 103.541C89.4062 104.222 89.9757 104.774 90.678 104.774Z" fill="#3C464D" stroke="black" stroke-width="0.429447" stroke-miterlimit="10"/>
<path id="Vector_52" d="M91.3654 119.672C92.0678 119.672 92.6371 119.12 92.6371 118.44C92.6371 117.759 92.0678 117.207 91.3654 117.207C90.6631 117.207 90.0938 117.759 90.0938 118.44C90.0938 119.12 90.6631 119.672 91.3654 119.672Z" fill="#3C464D" stroke="black" stroke-width="0.429447" stroke-miterlimit="10"/>
<path id="Vector_53" d="M91.8342 134.483C92.5365 134.483 93.1059 133.931 93.1059 133.25C93.1059 132.569 92.5365 132.018 91.8342 132.018C91.1319 132.018 90.5625 132.569 90.5625 133.25C90.5625 133.931 91.1319 134.483 91.8342 134.483Z" fill="#3C464D" stroke="black" stroke-width="0.429447" stroke-miterlimit="10"/>
<path id="Vector_54" d="M89.2695 41.293C89.2695 41.293 88.2061 47.477 83.7707 46.7469C79.2245 45.9954 77.7223 42.504 78.3826 41.293H89.2695Z" fill="black"/>
<g id="Clip path group">
<mask id="mask0_86_1908" style="mask-type:luminance" maskUnits="userSpaceOnUse" x="78" y="41" width="12" height="6">
<g id="clip-path-4">
<path id="Vector_55" d="M89.2656 41.293C89.2656 41.293 88.2022 47.477 83.7667 46.7469C79.2206 45.9954 77.7184 42.504 78.3787 41.293H89.2656Z" fill="white"/>
</g>
</mask>
<g mask="url(#mask0_86_1908)">
<g id="Group_2">
<path id="Vector_56" d="M89.9911 41.2754V43.0318H77.6641L77.8059 41.2754H89.9911Z" fill="white"/>
</g>
</g>
</g>
<path id="Vector_57" d="M89.2695 41.293C89.2695 41.293 88.2061 47.477 83.7707 46.7469C79.2245 45.9954 77.7223 42.504 78.3826 41.293H89.2695Z" stroke="black" stroke-width="0.429447" stroke-miterlimit="10"/>
<path id="Vector_58" d="M88.7578 28.9719C88.7578 28.9719 91.3721 26.4467 93.1489 28.9719" stroke="black" stroke-width="1.28834" stroke-miterlimit="10" stroke-linecap="round"/>
<path id="Vector_59" d="M73.0938 28.9719C73.0938 28.9719 76.0227 26.4467 78.0078 28.9719" stroke="black" stroke-width="1.28834" stroke-miterlimit="10" stroke-linecap="round"/>
</g>
</svg>
