<svg width="145" height="35" viewBox="0 0 145 35" fill="none" xmlns="http://www.w3.org/2000/svg">
<g id="Group 39782">
<g id="Icon">
<path id="Vector" d="M0.579054 1.81712C0.212267 2.19148 0 2.77432 0 3.52912V30.4524C0 31.2072 0.212267 31.79 0.579054 32.1644L0.669581 32.2466L16.1433 17.1658V16.8097L0.669581 1.72886L0.579054 1.81712Z" fill="url(#paint0_linear_1660_6422)"/>
<path id="Vector_2" d="M21.2967 22.1953L16.1445 17.1658V16.8097L21.303 11.7803L21.4185 11.8457L27.5274 15.2347C29.2708 16.1965 29.2708 17.7791 27.5274 18.747L21.4185 22.1299L21.2967 22.1953Z" fill="url(#paint1_linear_1660_6422)"/>
<path id="Vector_3" d="M21.4163 22.1299L16.1424 16.9878L0.578125 32.1645C1.15718 32.758 2.10146 32.8295 3.17529 32.236L21.4163 22.1299Z" fill="url(#paint2_linear_1660_6422)"/>
<path id="Vector_4" d="M21.4163 11.8467L3.17529 1.74057C2.10146 1.15316 1.15718 1.22468 0.578125 1.81818L16.1424 16.9888L21.4163 11.8467Z" fill="url(#paint3_linear_1660_6422)"/>
</g>
<g id="GET IT ON">
<path id="G" d="M46.7566 5.11336C46.7566 6.12991 46.4444 6.94406 45.8295 7.55125C45.1224 8.27105 44.2016 8.63323 43.0731 8.63323C41.9946 8.63323 41.0737 8.26496 40.3183 7.53907C39.5613 6.80253 39.1836 5.8986 39.1836 4.81662C39.1836 3.73463 39.5613 2.8307 40.3183 2.10025C41.0737 1.36827 41.9946 1 43.0731 1C43.61 1 44.122 1.10805 44.6105 1.30892C45.0974 1.51132 45.4939 1.78524 45.7811 2.12307L45.1287 2.76526C44.6277 2.18851 43.9456 1.90394 43.0731 1.90394C42.2865 1.90394 41.6044 2.17177 41.0253 2.712C40.4525 3.25375 40.1653 3.95529 40.1653 4.81662C40.1653 5.67794 40.4525 6.38557 41.0253 6.92732C41.6044 7.46146 42.2865 7.73538 43.0731 7.73538C43.9081 7.73538 44.6105 7.46146 45.1646 6.92123C45.5298 6.56362 45.7374 6.07056 45.792 5.44054H43.0731V4.56096H46.7004C46.7441 4.75118 46.7566 4.93531 46.7566 5.11336Z" fill="black" stroke="black" stroke-width="0.0499455" stroke-miterlimit="10"/>
<path id="E" d="M52.5124 2.06088H49.1052V4.37398H52.1768V5.25356H49.1052V7.56666H52.5124V8.46299H48.1406V1.16455H52.5124V2.06088Z" fill="black" stroke="black" stroke-width="0.0499455" stroke-miterlimit="10"/>
<path id="T" d="M56.574 8.46299H55.6094V2.06088H53.5195V1.16455H58.6655V2.06088H56.574V8.46299Z" fill="black" stroke="black" stroke-width="0.0499455" stroke-miterlimit="10"/>
<path id="I" d="M62.3867 8.46299V1.16455H63.3497V8.46299H62.3867Z" fill="black" stroke="black" stroke-width="0.0499455" stroke-miterlimit="10"/>
<path id="T_2" d="M67.617 8.46299H66.6602V2.06088H64.5625V1.16455H69.7147V2.06088H67.617V8.46299Z" fill="black" stroke="black" stroke-width="0.0499455" stroke-miterlimit="10"/>
<path id="O" d="M79.4608 7.5269C78.7225 8.26496 77.8079 8.63323 76.7169 8.63323C75.6196 8.63323 74.705 8.26496 73.9668 7.5269C73.2301 6.79036 72.8633 5.88643 72.8633 4.81662C72.8633 3.74681 73.2301 2.84287 73.9668 2.10633C74.705 1.36827 75.6196 1 76.7169 1C77.8016 1 78.7163 1.36827 79.4545 2.11242C80.1975 2.85505 80.5643 3.75289 80.5643 4.81662C80.5643 5.88643 80.1975 6.79036 79.4608 7.5269ZM74.6801 6.91515C75.2357 7.46146 75.9115 7.73538 76.7169 7.73538C77.516 7.73538 78.1981 7.46146 78.7475 6.91515C79.3016 6.36883 79.5825 5.66729 79.5825 4.81662C79.5825 3.96594 79.3016 3.2644 78.7475 2.71809C78.1981 2.17177 77.516 1.89785 76.7169 1.89785C75.9115 1.89785 75.2357 2.17177 74.6801 2.71809C74.126 3.2644 73.845 3.96594 73.845 4.81662C73.845 5.66729 74.126 6.36883 74.6801 6.91515Z" fill="black" stroke="black" stroke-width="0.0499455" stroke-miterlimit="10"/>
<path id="N" d="M81.918 8.46299V1.16455H83.0886L86.7283 6.84078H86.7705L86.7283 5.4377V1.16455H87.6914V8.46299H86.6862L82.8747 2.50676H82.8326L82.8747 3.91592V8.46299H81.918Z" fill="black" stroke="black" stroke-width="0.0499455" stroke-miterlimit="10"/>
</g>
<g id="Google Play">
<path id="Google Play_2" d="M72.6248 19.1203C69.6921 19.1203 67.2962 21.2964 67.2962 24.2989C67.2962 27.277 69.6921 29.476 72.6248 29.476C75.5638 29.476 77.9596 27.277 77.9596 24.2989C77.9596 21.2964 75.5638 19.1203 72.6248 19.1203ZM72.6248 27.4368C71.0156 27.4368 69.6312 26.1418 69.6312 24.2989C69.6312 22.4317 71.0156 21.1595 72.6248 21.1595C74.234 21.1595 75.6246 22.4317 75.6246 24.2989C75.6246 26.1418 74.234 27.4368 72.6248 27.4368ZM60.9984 19.1203C58.0594 19.1203 55.6699 21.2964 55.6699 24.2989C55.6699 27.277 58.0594 29.476 60.9984 29.476C63.9358 29.476 66.327 27.277 66.327 24.2989C66.327 21.2964 63.9358 19.1203 60.9984 19.1203ZM60.9984 27.4368C59.3877 27.4368 57.9986 26.1418 57.9986 24.2989C57.9986 22.4317 59.3877 21.1595 60.9984 21.1595C62.6076 21.1595 63.992 22.4317 63.992 24.2989C63.992 26.1418 62.6076 27.4368 60.9984 27.4368ZM47.1635 20.7075V22.908H52.5529C52.3953 24.1376 51.9739 25.0415 51.3277 25.6715C50.5411 26.4324 49.3159 27.277 47.1635 27.277C43.8468 27.277 41.2497 24.6672 41.2497 21.4334C41.2497 18.1996 43.8468 15.5898 47.1635 15.5898C48.9569 15.5898 50.2617 16.273 51.2247 17.1587L52.8152 15.608C51.4682 14.3541 49.6764 13.3908 47.1635 13.3908C42.6154 13.3908 38.793 16.9989 38.793 21.4334C38.793 25.8678 42.6154 29.476 47.1635 29.476C49.6218 29.476 51.4682 28.6907 52.9197 27.2177C54.4072 25.7674 54.8707 23.7282 54.8707 22.0817C54.8707 21.5703 54.827 21.1001 54.749 20.7075H47.1635ZM103.736 22.4134C103.298 21.2553 101.944 19.1203 99.188 19.1203C96.4566 19.1203 94.1825 21.2188 94.1825 24.2989C94.1825 27.1994 96.4332 29.476 99.4502 29.476C101.89 29.476 103.298 28.0257 103.877 27.1811L102.066 26.0048C101.462 26.8661 100.64 27.4368 99.4502 27.4368C98.2687 27.4368 97.4212 26.9087 96.878 25.8678L103.981 23.0023L103.736 22.4134ZM96.4941 24.1376C96.4332 22.141 98.0845 21.1184 99.2676 21.1184C100.195 21.1184 100.981 21.5703 101.244 22.2171L96.4941 24.1376ZM90.7207 29.161H93.0556V13.9432H90.7207V29.161ZM86.8967 20.2738H86.8187C86.2942 19.6681 85.2938 19.1203 84.0264 19.1203C81.3668 19.1203 78.9351 21.3969 78.9351 24.3156C78.9351 27.2177 81.3668 29.476 84.0264 29.476C85.2938 29.476 86.2942 28.9236 86.8187 28.2996H86.8967V29.0423C86.8967 31.0221 85.812 32.0858 84.0623 32.0858C82.6357 32.0858 81.7508 31.0814 81.3855 30.2369L79.3549 31.0632C79.9402 32.4358 81.4901 34.125 84.0623 34.125C86.7999 34.125 89.1099 32.5545 89.1099 28.7333V19.4353H86.8967V20.2738ZM84.2262 27.4368C82.617 27.4368 81.27 26.1235 81.27 24.3156C81.27 22.491 82.617 21.1595 84.2262 21.1595C85.812 21.1595 87.0622 22.491 87.0622 24.3156C87.0622 26.1235 85.812 27.4368 84.2262 27.4368ZM114.668 13.9432H109.083V29.161H111.412V23.395H114.668C117.254 23.395 119.791 21.5703 119.791 18.6683C119.791 15.7678 117.248 13.9432 114.668 13.9432ZM114.729 21.2782H111.412V16.06H114.729C116.468 16.06 117.46 17.4676 117.46 18.6683C117.46 19.8462 116.468 21.2782 114.729 21.2782ZM129.124 19.0914C127.442 19.0914 125.692 19.8157 124.972 21.4212L127.039 22.2658C127.484 21.4212 128.302 21.1473 129.166 21.1473C130.374 21.1473 131.599 21.8549 131.618 23.1043V23.2641C131.197 23.0267 130.295 22.6752 129.185 22.6752C126.959 22.6752 124.691 23.8697 124.691 26.0992C124.691 28.1383 126.514 29.4516 128.564 29.4516C130.131 29.4516 130.995 28.7623 131.539 27.9603H131.618V29.1366H133.867V23.2991C133.867 20.601 131.801 19.0914 129.124 19.0914ZM128.843 27.4307C128.081 27.4307 127.02 27.0624 127.02 26.1418C127.02 24.9639 128.344 24.5119 129.489 24.5119C130.515 24.5119 130.995 24.7326 131.618 25.0233C131.436 26.4324 130.192 27.4307 128.843 27.4307ZM142.062 19.4246L139.385 26.0215H139.305L136.538 19.4246H134.027L138.184 28.6436L135.812 33.7735H138.245L144.652 19.4246H142.062ZM121.07 29.161H123.405V13.9432H121.07V29.161Z" fill="black"/>
</g>
</g>
<defs>
<linearGradient id="paint0_linear_1660_6422" x1="14.7694" y1="30.7328" x2="-5.65527" y2="9.78437" gradientUnits="userSpaceOnUse">
<stop stop-color="#00A0FF"/>
<stop offset="0.0066" stop-color="#00A1FF"/>
<stop offset="0.2601" stop-color="#00BEFF"/>
<stop offset="0.5122" stop-color="#00D2FF"/>
<stop offset="0.7604" stop-color="#00DFFF"/>
<stop offset="1" stop-color="#00E3FF"/>
</linearGradient>
<linearGradient id="paint1_linear_1660_6422" x1="29.7976" y1="16.9861" x2="-0.415524" y2="16.9861" gradientUnits="userSpaceOnUse">
<stop stop-color="#FFE000"/>
<stop offset="0.4087" stop-color="#FFBD00"/>
<stop offset="0.7754" stop-color="#FFA500"/>
<stop offset="1" stop-color="#FF9C00"/>
</linearGradient>
<linearGradient id="paint2_linear_1660_6422" x1="18.5485" y1="14.1925" x2="-9.14905" y2="-14.2153" gradientUnits="userSpaceOnUse">
<stop stop-color="#FF3A44"/>
<stop offset="1" stop-color="#C31162"/>
</linearGradient>
<linearGradient id="paint3_linear_1660_6422" x1="-3.33972" y1="41.1227" x2="9.02848" y2="28.4375" gradientUnits="userSpaceOnUse">
<stop stop-color="#32A071"/>
<stop offset="0.0685" stop-color="#2DA771"/>
<stop offset="0.4762" stop-color="#15CF74"/>
<stop offset="0.8009" stop-color="#06E775"/>
<stop offset="1" stop-color="#00F076"/>
</linearGradient>
</defs>
</svg>
