<svg width="169" height="169" viewBox="0 0 169 169" fill="none" xmlns="http://www.w3.org/2000/svg">
<circle cx="84.1754" cy="84.4567" r="84.1754" fill="#23A26D" fill-opacity="0.12"/>
<path d="M82.6714 44.3741C60.5854 44.3741 42.5879 62.3716 42.5879 84.4576C42.5879 106.544 60.5854 124.541 82.6714 124.541C104.757 124.541 122.755 106.544 122.755 84.4576C122.755 62.3716 104.757 44.3741 82.6714 44.3741ZM101.831 75.2384L79.104 97.9658C78.5428 98.5269 77.7812 98.8476 76.9796 98.8476C76.1779 98.8476 75.4163 98.5269 74.8551 97.9658L63.5115 86.6221C62.3491 85.4597 62.3491 83.5357 63.5115 82.3733C64.6739 81.2108 66.5979 81.2108 67.7603 82.3733L76.9796 91.5925L97.5825 70.9896C98.7449 69.8271 100.669 69.8271 101.831 70.9896C102.994 72.152 102.994 74.0359 101.831 75.2384Z" fill="#23A26D"/>
</svg>
