<svg width="149" height="28" viewBox="0 0 149 28" fill="none" xmlns="http://www.w3.org/2000/svg">
<path opacity="0.99" fill-rule="evenodd" clip-rule="evenodd" d="M26.9034 0.00719903C33.5033 -0.160362 37.724 2.59816 40.4721 8.17429C42.4235 13.2233 41.7628 17.8942 38.4901 22.1871C37.6216 23.1319 36.668 23.9959 35.6411 24.7684C35.6411 24.0035 35.6332 23.2659 35.6411 22.5559C39.7815 18.6185 40.8138 13.9878 38.738 8.66405C36.8464 4.82477 33.7702 2.55046 29.5092 1.84114C25.4624 1.41708 22.0143 2.62586 19.1649 5.46747C18.4475 6.24043 17.843 7.10949 17.369 8.0492C20.7547 8.13137 24.2661 8.08244 27.6523 8.1646C26.9737 9.06334 26.2057 10.1647 25.4801 11.0265C24.9898 11.0265 24.4601 11.0265 23.9344 10.9984V18.9107C22.7953 18.9176 21.7087 18.8714 20.5278 18.8677C20.4989 16.2505 20.4459 13.6544 20.5896 11.0611C18.5666 10.9996 16.5432 10.9791 14.5195 10.9998C15.674 5.69473 18.8536 2.19103 24.0582 0.488648C25.0201 0.275389 25.8494 0.109213 26.9034 0.00719903Z" fill="#F8B015"/>
<path opacity="0.91" fill-rule="evenodd" clip-rule="evenodd" d="M21.6367 4.55514C22.7766 3.49713 24.1276 2.82161 25.6896 2.52859C28.8111 1.87091 31.6357 2.50568 34.1632 4.43292C33.4404 4.24324 32.7403 3.97555 32.0753 3.63457C28.4662 2.496 24.9867 2.80285 21.6367 4.55514Z" fill="#F0AA16"/>
<path opacity="0.98" fill-rule="evenodd" clip-rule="evenodd" d="M29.1635 7.97831C32.1588 7.95787 35.1539 7.97862 38.1487 8.04056C37.4807 8.96964 36.7831 9.87688 36.056 10.7623C35.4426 10.824 34.8258 10.8446 34.2097 10.8241C34.2507 15.7324 34.2097 20.6399 34.0868 25.5467C28.8108 27.9697 23.8465 27.4543 19.1939 24.0003C15.6051 20.8463 13.964 16.8668 14.2706 12.0616H15.9935C15.7433 18.0941 18.3691 22.2799 23.8709 24.619C26.141 25.3802 28.4385 25.4834 30.7634 24.9284V10.8241C29.5318 10.8445 28.2678 10.8524 27.0306 10.8524C27.7534 9.9303 28.5442 8.95431 29.1635 7.97831Z" fill="#FBB315"/>
<path fill-rule="evenodd" clip-rule="evenodd" d="M0 8.55609C4.48114 8.51501 8.94134 8.55656 13.3806 8.68074C13.0961 9.65749 12.8889 10.6553 12.761 11.6648C9.49865 11.6853 6.23619 11.6644 2.97357 11.6022C1.95726 10.6025 0.96607 9.58718 0 8.55609Z" fill="#FCB314"/>
<path fill-rule="evenodd" clip-rule="evenodd" d="M42.5459 8.27215C46.9652 8.22872 51.3841 8.27215 55.8025 8.40244C54.8429 9.48788 53.8609 10.5532 52.8565 11.5985C49.6247 11.6638 46.3923 11.6857 43.1593 11.6642C43.099 10.5599 42.8491 9.47669 42.4219 8.46807C42.4542 8.4463 42.4819 8.41765 42.5032 8.38392C42.5245 8.3502 42.5391 8.31214 42.5459 8.27215Z" fill="#F0AB16"/>
<path fill-rule="evenodd" clip-rule="evenodd" d="M3.98438 12.6675C6.8632 12.5428 9.76365 12.5013 12.6857 12.5431C12.6481 13.5411 12.6896 14.5405 12.8099 15.532C10.8244 15.6771 8.83172 15.6979 6.8436 15.5942C5.95437 14.558 4.99931 13.5804 3.98438 12.6675Z" fill="#FBB315"/>
<path opacity="0.99" fill-rule="evenodd" clip-rule="evenodd" d="M43.1129 12.5431C46.0146 12.5013 48.9149 12.5428 51.8138 12.6676C50.8213 13.5921 49.8682 14.5685 48.9547 15.597C46.9662 15.6796 44.9774 15.6796 42.9883 15.597C43.1108 14.5839 43.1525 13.5627 43.1129 12.5431Z" fill="#F8B115"/>
<path opacity="0.96" fill-rule="evenodd" clip-rule="evenodd" d="M7.96875 16.5117H12.8147C13.0403 17.4724 13.3234 18.4205 13.6626 19.3513C12.6922 19.3707 11.723 19.3518 10.755 19.2946C9.76399 18.4235 8.83336 17.494 7.96875 16.5117Z" fill="#FAB215"/>
<path opacity="0.96" fill-rule="evenodd" clip-rule="evenodd" d="M42.9807 16.5256C44.5983 16.4883 46.2136 16.5261 47.8267 16.639C46.9199 17.5413 45.9912 18.4267 45.0405 19.2951C44.0722 19.3517 43.1029 19.3705 42.1328 19.3515C42.4888 18.4301 42.7722 17.4856 42.9807 16.5256Z" fill="#FBB314"/>
<path d="M25.9062 11.1023L28.1079 7.9707H28.7532L26.6155 11.1023H25.9062Z" fill="#FBB216"/>
<path opacity="0.92" fill-rule="evenodd" clip-rule="evenodd" d="M125.369 16.06C126.057 16.0032 126.749 16.0611 127.418 16.2312C126.803 18.3377 125.38 19.4204 123.149 19.4795C119.722 19.0602 118.214 17.1225 118.625 13.6666C119.318 10.8531 121.111 9.6275 124.003 9.9897C126.692 10.667 127.887 12.4052 127.588 15.2041H120.59C121.004 17.5206 122.313 18.2329 124.517 17.3411C124.737 17.1953 124.926 17.0069 125.072 16.7869C125.219 16.5668 125.319 16.3197 125.369 16.06ZM122.295 11.6153C124.341 11.296 125.423 12.1507 125.539 14.1794H120.59C120.619 12.9554 121.188 12.1007 122.297 11.6153H122.295Z" fill="#FAFAFA"/>
<path opacity="0.93" fill-rule="evenodd" clip-rule="evenodd" d="M148.079 12.4703V19.3089H146.03C146.059 17.2566 146.03 15.2051 145.944 13.1544C145.155 11.6566 143.988 11.2857 142.444 12.0417C142.061 12.3061 141.787 12.7019 141.676 13.1544C141.434 15.1964 141.349 17.2539 141.42 19.3089H139.371V7H141.42C141.391 8.53978 141.42 10.0784 141.505 11.6159C142.909 9.79202 144.644 9.4211 146.713 10.5032C147.345 11.0157 147.819 11.698 148.079 12.4703Z" fill="#F7F7F7"/>
<path opacity="0.95" fill-rule="evenodd" clip-rule="evenodd" d="M61 7.51367H70.0492V10.0778H66.9761V19.3097H63.9025C63.8468 16.2482 63.9038 13.2003 64.0736 10.1659C63.0514 10.0807 62.0253 10.0522 61 10.0807V7.51367Z" fill="#F0F0F0"/>
<path opacity="0.95" fill-rule="evenodd" clip-rule="evenodd" d="M109.32 7.51367H117.857V9.22343H114.443V19.3097H112.393V9.22343H109.32V7.51367Z" fill="#EEEEEE"/>
<path opacity="0.94" fill-rule="evenodd" clip-rule="evenodd" d="M75.0008 9.73633C78.6157 9.87953 80.3229 11.7601 80.1226 15.3779C77.9588 15.3496 75.7961 15.3781 73.6343 15.4636C73.9655 16.7124 74.7622 17.1683 76.0246 16.8313C76.1722 16.7814 76.3084 16.7029 76.4256 16.6002C76.5428 16.4975 76.6385 16.3727 76.7074 16.2328C80.1287 15.3833 80.6979 16.1525 78.415 18.5405C75.9668 19.971 73.7187 19.7146 71.6706 17.7713C70.2633 15.3107 70.4627 13.0028 72.2688 10.8476C73.0794 10.267 74.0154 9.88624 75.0008 9.73633ZM74.6592 12.3005C75.2965 12.2412 75.939 12.3289 76.5373 12.5569C76.6978 12.6944 76.8267 12.865 76.9151 13.0571C77.0035 13.2492 77.0494 13.4581 77.0495 13.6696H73.8054C73.834 13.0397 74.1186 12.5833 74.6592 12.3005Z" fill="#FAFAFA"/>
<path opacity="0.96" fill-rule="evenodd" clip-rule="evenodd" d="M84.561 9.73624C85.8633 9.66238 86.9162 10.1183 87.7196 11.1039C87.8045 10.711 87.8333 10.308 87.8051 9.90702H90.7076V19.3097H87.8051C87.8329 18.9654 87.804 18.6189 87.7196 18.284C85.5816 19.9819 83.5898 19.8109 81.744 17.7712C80.4916 15.6628 80.4916 13.5544 81.744 11.446C82.5026 10.541 83.4416 9.97104 84.561 9.73624ZM85.2442 12.4712C86.832 12.2976 87.6856 13.01 87.8051 14.6081C87.5796 16.5433 86.5551 17.1702 84.7316 16.4887C83.885 15.6256 83.6859 14.6283 84.1343 13.4968C84.3795 12.994 84.7494 12.6521 85.2442 12.4712Z" fill="#FBFBFB"/>
<path opacity="0.95" fill-rule="evenodd" clip-rule="evenodd" d="M92.5859 9.90526H95.6595C95.6317 10.193 95.6606 10.4835 95.7445 10.7601C97.2427 9.71577 98.808 9.6303 100.44 10.5037L101.379 11.4442C102.43 10.048 103.825 9.56418 105.562 9.99282C106.843 10.3634 107.668 11.1897 108.038 12.4718C108.27 14.7433 108.355 17.0274 108.294 19.3099H105.221C105.249 17.3718 105.221 15.4343 105.135 13.4975C104.501 12.4602 103.619 12.2038 102.489 12.7282C102.287 12.8777 102.138 13.0872 102.062 13.3267C101.825 15.3117 101.74 17.3119 101.806 19.3099H98.9036C98.932 17.3718 98.9035 15.4343 98.8181 13.4975C98.1832 12.4602 97.3011 12.2038 96.1717 12.7282C95.9699 12.8777 95.8204 13.0871 95.7445 13.3267C95.6595 15.3206 95.6312 17.315 95.6595 19.3099H92.5859V9.90526Z" fill="#F7F7F7"/>
<path opacity="0.93" fill-rule="evenodd" clip-rule="evenodd" d="M132.54 9.90692C135.282 9.69405 137.047 10.8908 137.832 13.4972C137.167 13.6951 136.463 13.7245 135.784 13.5828C134.974 11.7492 133.665 11.2933 131.857 12.2151C130.682 13.6182 130.54 15.1283 131.43 16.7455C132.608 17.8166 133.832 17.8735 135.102 16.9162C135.408 16.5902 135.59 16.1666 135.615 15.7198C136.359 15.6637 137.107 15.7213 137.834 15.8906C136.9 18.8379 134.908 19.9492 131.858 19.2245C129.754 18.4617 128.729 16.9524 128.783 14.6966C128.839 12.1337 130.091 10.5372 132.54 9.90692Z" fill="#F6F6F6"/>
<path opacity="0.05" fill-rule="evenodd" clip-rule="evenodd" d="M125.367 16.0605C126.082 15.8366 126.821 15.8366 127.587 16.0605C127.566 16.1647 127.51 16.2218 127.416 16.2318C126.747 16.0617 126.055 16.0038 125.367 16.0605Z" fill="#141414"/>
</svg>
