<svg id="Layer_1" data-name="Layer 1" xmlns="http://www.w3.org/2000/svg" xmlns:xlink="http://www.w3.org/1999/xlink" viewBox="0 0 64 64"><defs><style>.cls-1{fill:none;}.cls-2{opacity:0;}.cls-3{clip-path:url(#clip-path);}.cls-4{fill:#e8f0f8;}</style><clipPath id="clip-path"><rect class="cls-1" width="64" height="64"/></clipPath></defs><rect class="cls-2" width="64" height="64"/><rect class="cls-1" width="64.08" height="64"/><g class="cls-3"><path class="cls-4" d="M63,27.52a4.54,4.54,0,0,0-2.77-2.13A6.38,6.38,0,0,0,60.61,23,4.55,4.55,0,0,0,60,20.69a4.89,4.89,0,0,0-3-1.92,2.29,2.29,0,0,0,.42-1.28,4,4,0,0,0-.64-3.3,4.6,4.6,0,0,0-2.77-2,6.34,6.34,0,0,0,.42-2.35,4.43,4.43,0,0,0-.64-2.34,4.73,4.73,0,0,0-3-1.92,4.09,4.09,0,0,0-3.42.64l-4.69,3A24.41,24.41,0,0,0,35,6.61Q33.53,4.69,32,3L30.11,1.07A5.17,5.17,0,0,0,27.54,0a3.6,3.6,0,0,0-2.76.75,4.57,4.57,0,0,0-1.71,2.66,3.19,3.19,0,0,0,.63,3l.22.21A32.37,32.37,0,0,0,15.07,10,27.69,27.69,0,0,0,7.6,16.21,29.12,29.12,0,0,0,.67,35a37.28,37.28,0,0,0,.21,4,28.86,28.86,0,0,0,28.8,25,28,28,0,0,0,16.64-5.33A29.48,29.48,0,0,0,57,44.8a3,3,0,0,0-.11-.64.69.69,0,0,0-.53-.53,1.75,1.75,0,0,0-.85,0,.5.5,0,0,0-.44.53,27.67,27.67,0,0,1-9.91,12.91,25.79,25.79,0,0,1-15.47,5,24.57,24.57,0,0,1-8.53-1.49l14.71-9.82a2.5,2.5,0,0,0,1.29-1.7,2.31,2.31,0,0,0-.43-1.92l-.21-.22L38,46.08a3.22,3.22,0,0,1,3-.64,6.13,6.13,0,0,0,4.69-1.07l10.88-7.25-.42,3a1.7,1.7,0,0,0,.21.64.68.68,0,0,0,.64.42h.21a.75.75,0,0,0,.85-.85,43.11,43.11,0,0,0,.64-4.48l3-1.92a4.82,4.82,0,0,0,1.92-3A4.07,4.07,0,0,0,63,27.52ZM40.78,10.45l-3,2.14L36.3,9A42.76,42.76,0,0,1,40.78,10.45Zm-31.58,7a24.3,24.3,0,0,1,7-5.86,28.46,28.46,0,0,1,8.54-3.1A12.33,12.33,0,0,1,25.42,16L23.07,26.45a3.23,3.23,0,0,0-1.6-.85,2.72,2.72,0,0,0-2,.43L2.59,37.12V35a26.13,26.13,0,0,1,1.7-9.39A26.45,26.45,0,0,1,9.2,17.49Zm26,31.15c-.14.28-.28.43-.42.43l-6,4L18,36.69a.69.69,0,0,0-.64-.42,1.32,1.32,0,0,0-.75.21,1,1,0,0,0-.43.64.62.62,0,0,0,.11.64L27.33,54.19,18.8,59.73A26.08,26.08,0,0,1,8.24,51.52,26.71,26.71,0,0,1,3,39.25l9.81-6.4,1.29,1.71a.69.69,0,0,0,.64.43,1.24,1.24,0,0,0,.74-.22.72.72,0,0,0,.32-.64,1.9,1.9,0,0,0-.21-.85l-1.07-1.49,6-4.06a.78.78,0,0,1,.65-.1,1.65,1.65,0,0,1,.43.32L35,48.21A.64.64,0,0,1,35.22,48.64ZM61.68,30.51a2.69,2.69,0,0,1-1.07,1.7l-16,10.46a3.77,3.77,0,0,1-3.21.64,7.61,7.61,0,0,0-4.69,1.06l-1.28.86L24.55,28.59l2.78-12.16A14.26,14.26,0,0,0,26.27,7l-.85-1.71A1.62,1.62,0,0,1,25,3.73,2,2,0,0,1,27.33,2a2.22,2.22,0,0,1,1.29.53l1.91,1.92a17.91,17.91,0,0,1,4.69,7l1.08,3a.94.94,0,0,0,.64.53,1.17,1.17,0,0,0,.85-.11l10.67-7a2.27,2.27,0,0,1,1.91-.42,2.7,2.7,0,0,1,1.71,1.06,2.31,2.31,0,0,1,.43,1.92,2.54,2.54,0,0,1-1.29,1.71l-3,2.13a1.39,1.39,0,0,0-.32.54,1,1,0,0,0,.11.74.67.67,0,0,0,.64.43,1.9,1.9,0,0,0,.85-.21l1.91-1.28a2.34,2.34,0,0,1,1.93-.43,2.81,2.81,0,0,1,2.14,3.2,2,2,0,0,1-1.08,1.49l-3,2.14a1,1,0,0,0-.53.53.83.83,0,0,0,.22.75.93.93,0,0,0,.75.42.88.88,0,0,0,.64-.21l2.13-1.28a2.3,2.3,0,0,1,1.92-.43,2.62,2.62,0,0,1,1.7,1.18,2.59,2.59,0,0,1,.43,2,2.55,2.55,0,0,1-1.28,1.71l-3,1.92a1.37,1.37,0,0,0-.32.64.92.92,0,0,0,.11.75.72.72,0,0,0,.64.32h.65l2.12-1.5a2.32,2.32,0,0,1,1.93-.42,2.57,2.57,0,0,1,1.7,1.17A2.62,2.62,0,0,1,61.68,30.51Z"/></g></svg>