<svg width="64" height="65" viewBox="0 0 64 65" fill="none" xmlns="http://www.w3.org/2000/svg">
<g id="Link" clip-path="url(#clip0_86_2308)">
<path id="Vector" d="M62.794 28.3149C62.0847 27.1801 61.1627 26.4709 60.0279 26.1872C60.3116 25.4779 60.4535 24.6978 60.4535 23.8467C60.4535 22.9956 60.2407 22.2154 59.8152 21.5062C59.1059 20.5132 58.113 19.8749 56.8363 19.5912C57.12 19.1656 57.2619 18.7401 57.2619 18.3145C57.5456 17.1798 57.3328 16.0804 56.6236 15.0166C55.9143 13.9527 54.9923 13.2789 53.8575 12.9952C54.1412 12.286 54.283 11.5058 54.283 10.6547C54.283 9.8036 54.0703 9.02343 53.6447 8.31418C52.9355 7.32124 51.9425 6.68291 50.6659 6.39922C49.3892 6.11552 48.2545 6.32829 47.2615 7.03754L42.5805 10.0164C40.1691 8.73973 37.6158 7.88863 34.9206 7.46309C33.9277 6.18644 32.9347 4.98073 31.9418 3.84593L30.0268 1.93097C29.3176 1.36357 28.4665 1.00895 27.4736 0.8671C26.4806 0.72525 25.5586 0.973488 24.7075 1.61181C23.8564 2.25013 23.289 3.13669 23.0053 4.27148C22.7216 5.40627 22.9344 6.39922 23.6436 7.25031L23.8564 7.46309C20.7357 8.17233 17.7923 9.30713 15.0263 10.8675C12.2602 12.4278 9.77787 14.4846 7.57921 17.0379C5.38055 19.5912 3.67836 22.4991 2.47264 25.7616C1.26692 29.0242 0.664062 32.3576 0.664062 35.762C0.664062 37.1805 0.734987 38.5281 0.876836 39.8047C1.58608 44.9113 3.50105 49.4859 6.62173 53.5286C9.74241 57.5713 13.7142 60.5856 18.5371 62.5715C21.9414 63.99 25.6295 64.6992 29.6013 64.6992C35.7008 64.6992 41.2329 62.9261 46.1976 59.3799C51.1624 55.8336 54.7086 51.2235 56.8363 45.5496C56.8363 45.4077 56.8009 45.195 56.7299 44.9113C56.659 44.6276 56.4817 44.4503 56.198 44.3793C55.9143 44.3084 55.6306 44.3084 55.3469 44.3793C55.0632 44.4503 54.9214 44.6276 54.9214 44.9113C52.9355 50.1597 49.6375 54.4506 45.0274 57.7841C40.4173 61.1175 35.2753 62.7843 29.6013 62.7843C26.6225 62.7843 23.7855 62.2878 21.0903 61.2948L35.7717 51.5072C36.481 51.0817 36.9065 50.5143 37.0484 49.8051C37.1902 49.0958 37.0484 48.4575 36.6228 47.8901L36.41 47.6773L37.8995 46.8262C38.7506 46.117 39.7435 45.9042 40.8783 46.1879C42.5805 46.4716 44.1408 46.117 45.5593 45.124L56.4108 37.8897C56.2689 38.8827 56.1271 39.8756 55.9852 40.8686C55.9852 41.0104 56.0562 41.2232 56.198 41.5069C56.3399 41.7906 56.5526 41.9324 56.8363 41.9324H57.0491C57.6165 41.9324 57.9002 41.6487 57.9002 41.0813C58.1839 39.6628 58.3967 38.1734 58.5385 36.6131L61.5174 34.6981C62.5103 33.9889 63.1486 32.9959 63.4323 31.7193C63.716 30.4426 63.5032 29.3079 62.794 28.3149ZM40.6655 11.293L37.6867 13.4207L36.1973 9.8036C37.7576 10.2291 39.247 10.7256 40.6655 11.293ZM9.17501 18.3145C11.1609 15.9031 13.5014 13.9527 16.1965 12.4633C18.8917 10.9739 21.7287 9.94545 24.7075 9.37805C25.7004 11.7895 25.9132 14.2718 25.3458 16.8251L23.0053 27.251C22.5798 26.8255 22.0478 26.5418 21.4095 26.3999C20.7712 26.2581 20.0974 26.3999 19.3882 26.8255L2.57903 37.8897V35.762C2.57903 32.4995 3.14642 29.3788 4.28122 26.3999C5.41601 23.4211 7.04727 20.726 9.17501 18.3145ZM35.1334 49.3795C34.9916 49.6632 34.8497 49.8051 34.7079 49.8051L28.7502 53.8478L17.8987 37.4642C17.7569 37.1805 17.5441 37.0386 17.2604 37.0386C16.9767 37.0386 16.7285 37.1096 16.5157 37.2514C16.3029 37.3933 16.1611 37.606 16.0902 37.8897C16.0192 38.1734 16.0547 38.3862 16.1965 38.5281L27.2608 54.9116L18.7498 60.4437C14.4944 58.5997 10.9836 55.8691 8.21753 52.252C5.45147 48.6348 3.71382 44.5566 3.00457 40.0175L12.7922 33.6343L14.0688 35.3364C14.2107 35.6201 14.4234 35.762 14.7071 35.762C14.9908 35.762 15.2391 35.6911 15.4518 35.5492C15.6646 35.4074 15.771 35.1946 15.771 34.9109C15.771 34.6272 15.7001 34.3435 15.5582 34.0598L14.4944 32.5704L20.452 28.5277C20.7357 28.3858 20.9485 28.3504 21.0903 28.4213C21.2322 28.4922 21.374 28.5986 21.5159 28.7405L34.9206 48.954C35.0625 49.0958 35.1334 49.2377 35.1334 49.3795ZM61.5174 31.2937C61.3755 32.003 61.0209 32.5704 60.4535 32.9959L44.4955 43.4218C43.5025 44.1311 42.4386 44.3439 41.3038 44.0602C39.6017 43.9183 38.0413 44.2729 36.6228 45.124L35.3462 45.9751L24.4947 29.3788L27.2608 17.2507C27.97 13.9881 27.6154 10.8675 26.1969 7.88863L25.3458 6.18644C24.9203 5.7609 24.7784 5.22896 24.9203 4.59064C25.0621 3.95232 25.3458 3.49131 25.7714 3.20761C26.1969 2.92391 26.6934 2.81753 27.2608 2.88845C27.8282 2.95938 28.2537 3.13669 28.5374 3.42039L30.4524 5.33535C32.5801 7.32124 34.1405 9.66175 35.1334 12.3569L36.1973 15.3357C36.3391 15.6194 36.5519 15.7967 36.8356 15.8676C37.1193 15.9386 37.403 15.9031 37.6867 15.7613L48.3254 8.73973C48.8928 8.31418 49.5311 8.17233 50.2403 8.31418C50.9496 8.45603 51.517 8.81065 51.9425 9.37805C52.3681 9.94545 52.5099 10.5838 52.3681 11.293C52.2262 12.0023 51.8007 12.5697 51.0914 12.9952L48.1126 15.1229C47.9708 15.2648 47.8644 15.4421 47.7934 15.6549C47.7225 15.8676 47.758 16.1159 47.8998 16.3996C48.0417 16.6833 48.2545 16.8251 48.5382 16.8251C48.8219 16.8251 49.1055 16.7542 49.3892 16.6124L51.3042 15.3357C51.8716 14.9102 52.5099 14.7683 53.2192 14.9102C53.9284 15.052 54.4958 15.4421 54.9214 16.0804C55.3469 16.7187 55.4888 17.3925 55.3469 18.1018C55.2051 18.811 54.8504 19.3075 54.283 19.5912L51.3042 21.7189C51.0205 21.8608 50.8432 22.0381 50.7723 22.2509C50.7014 22.4636 50.7723 22.7119 50.9851 22.9956C51.1978 23.2793 51.4461 23.4211 51.7298 23.4211C52.0135 23.4211 52.2262 23.3502 52.3681 23.2083L54.4958 21.9317C55.0632 21.5062 55.7015 21.3643 56.4108 21.5062C57.12 21.648 57.6874 22.0381 58.113 22.6764C58.5385 23.3147 58.6804 23.9885 58.5385 24.6978C58.3967 25.407 57.9711 25.9744 57.2619 26.3999L54.283 28.3149C54.1412 28.4568 54.0348 28.6695 53.9639 28.9532C53.893 29.2369 53.9284 29.4852 54.0703 29.6979C54.2121 29.9107 54.4249 30.0171 54.7086 30.0171C54.9923 30.0171 55.2051 30.0171 55.3469 30.0171L57.4747 28.5277C58.042 28.1021 58.6804 27.9603 59.3896 28.1021C60.0989 28.244 60.6663 28.6341 61.0918 29.2724C61.5174 29.9107 61.6592 30.5845 61.5174 31.2937Z" fill="#E8F0F8"/>
</g>
<defs>
<clipPath id="clip0_86_2308">
<rect width="63.8321" height="63.8321" fill="white" transform="matrix(1 0 0 -1 0 64.6992)"/>
</clipPath>
</defs>
</svg>
